<svg width="334" height="201" viewBox="0 0 334 201" fill="none" xmlns="http://www.w3.org/2000/svg">
<g clip-path="url(#clip0)">
<path d="M227.227 114.746L230.091 114.251C230.366 114.203 230.638 114.144 230.913 114.094C226.38 111.282 222.939 107.013 221.155 101.988C219.371 96.9631 219.35 91.4811 221.097 86.4428C222.843 81.4046 226.252 77.1097 230.764 74.2639C235.276 71.4181 240.622 70.1906 245.924 70.7831L242.17 79.7097L251.064 71.9491C251.085 71.9542 251.105 71.961 251.125 71.9694C254.037 72.9944 256.719 74.5827 259.017 76.6435C261.315 78.7044 263.184 81.1974 264.518 83.9802C265.852 86.7631 266.625 89.7813 266.791 92.8624C266.958 95.9436 266.516 99.0274 265.49 101.938C265.341 102.361 265.164 102.765 264.994 103.174C267.505 101.913 269.913 100.446 271.878 98.5667C275.854 94.7587 278.033 89.5039 280.467 83.0299C285.291 70.2006 289.935 57.1856 294.394 44.1423C289.476 41.4829 285.668 37.1583 283.654 31.9453C281.641 26.7323 281.553 20.9726 283.406 15.7007C283.645 15.0224 283.922 14.3693 284.215 13.7278C284.289 13.5673 284.363 13.4078 284.439 13.2496C284.737 12.6346 285.052 12.0321 285.398 11.4538C285.454 11.359 285.517 11.2703 285.575 11.1765C285.876 10.689 286.193 10.2158 286.526 9.75713C286.65 9.58491 286.774 9.41317 286.903 9.24505C287.281 8.75115 287.672 8.27056 288.085 7.81175C288.223 7.65823 288.369 7.5148 288.511 7.36525C288.828 7.03089 289.153 6.70663 289.488 6.39246C289.664 6.22707 289.839 6.06047 290.02 5.90094C290.066 5.86001 290.109 5.81534 290.156 5.77474C290.159 5.77774 290.16 5.78095 290.163 5.78391C294.304 2.17725 299.579 0.134774 305.071 0.011481C310.563 -0.111812 315.924 1.69187 320.223 5.10904L315.339 16.7255L324.131 9.05713C327.208 12.9749 328.952 17.7728 329.109 22.7509C329.265 27.729 327.825 32.6267 325 36.7296C325.008 36.7325 325.017 36.7347 325.025 36.7375C324.929 36.8785 324.82 37.0076 324.721 37.1461C324.536 37.406 324.346 37.6613 324.152 37.912C323.902 38.2334 323.642 38.5441 323.378 38.8505C323.178 39.0818 322.981 39.3151 322.772 39.5375C322.468 39.863 322.149 40.1712 321.828 40.4777C321.64 40.6564 321.461 40.8442 321.268 41.0164C320.763 41.4676 320.24 41.8957 319.7 42.3007C319.51 42.4426 319.31 42.5677 319.117 42.7036C318.738 42.9703 318.356 43.2331 317.962 43.4764C317.718 43.6274 317.467 43.7654 317.217 43.9073C316.856 44.1129 316.493 44.312 316.121 44.4981C315.858 44.63 315.593 44.7552 315.325 44.8772C314.944 45.0509 314.557 45.2119 314.167 45.3652C313.906 45.4679 313.645 45.572 313.38 45.6655C312.942 45.8196 312.497 45.9535 312.05 46.0817C311.825 46.1465 311.603 46.2206 311.375 46.2787C310.705 46.4496 310.027 46.595 309.341 46.7065C309.212 46.7275 309.081 46.7355 308.951 46.7543C308.382 46.837 307.811 46.9037 307.235 46.9445C306.987 46.9619 306.738 46.9644 306.489 46.9741C306.024 46.9922 305.558 47.0014 305.089 46.9914C304.816 46.9856 304.542 46.9715 304.268 46.956C303.812 46.9302 303.355 46.8905 302.898 46.8369C302.628 46.8056 302.358 46.7745 302.088 46.7336C301.598 46.6593 301.109 46.5622 300.619 46.4558C300.587 46.4489 300.555 46.4446 300.523 46.4375C298.641 51.9403 296.724 57.4313 294.773 62.9106C297.153 60.7716 299.945 59.1412 302.979 58.1195C306.012 57.0978 309.223 56.7063 312.413 56.9691C315.603 57.2319 318.706 58.1435 321.531 59.6478C324.356 61.1521 326.844 63.2174 328.841 65.7171L320.713 74.7008L331.718 70.3102C334.392 75.9123 334.73 82.3459 332.659 88.1972C331.942 90.2533 330.936 92.1974 329.673 93.9715C326.953 97.8153 323.141 100.754 318.731 102.406C314.32 104.058 309.514 104.347 304.937 103.237C300.359 102.126 296.222 99.6664 293.06 96.1768C289.899 92.6873 287.859 88.3289 287.207 83.6669C287 84.219 286.8 84.778 286.593 85.3295C284.444 91.041 281.771 98.1489 276.403 103.288C272.765 106.771 268.288 108.981 263.993 110.849C261.196 112.066 258.362 113.19 255.49 114.223C252.298 116.157 248.692 117.306 244.968 117.574C240.438 118.832 235.85 119.882 231.219 120.693L228.332 121.19C225.737 121.634 223.076 122.092 220.436 122.619C220.816 122.731 221.197 122.839 221.575 122.972C226.28 124.627 230.337 127.734 233.159 131.845C235.982 135.955 237.423 140.856 237.275 145.839L219.174 151.391L235.553 153.991C234.055 157.671 231.648 160.911 228.556 163.409C225.465 165.908 221.791 167.582 217.876 168.276C213.962 168.971 209.935 168.662 206.172 167.379C202.41 166.097 199.033 163.882 196.359 160.942C196.526 161.499 196.693 162.054 196.86 162.609C197.193 163.712 197.523 164.809 197.839 165.895C202.15 180.696 200.295 192.338 192.615 198.677L188.448 193.636C195.922 187.466 193.604 174.752 191.557 167.721C191.246 166.655 190.922 165.577 190.595 164.494C187.788 155.174 184.605 144.61 188.727 134.902C194.939 120.271 212.842 117.207 227.227 114.746Z" fill="#F2F2F2"/>
<path d="M221.922 200.575H95.093C90.9339 200.575 86.9452 198.924 84.0042 195.985C81.0633 193.046 79.4111 189.06 79.4111 184.903V126.834C79.4111 125.991 79.583 125.156 79.9163 124.382C80.2496 123.607 80.7374 122.908 81.3498 122.328L148.556 58.6625C151.243 56.1171 154.805 54.6982 158.507 54.6982C162.21 54.6982 165.771 56.1171 168.458 58.6625L232.536 119.364C234.137 120.881 235.412 122.707 236.283 124.732C237.154 126.757 237.604 128.938 237.604 131.142V184.903C237.604 186.961 237.198 188.999 236.41 190.901C235.622 192.802 234.467 194.53 233.01 195.985C231.554 197.44 229.825 198.595 227.923 199.382C226.02 200.17 223.981 200.575 221.922 200.575Z" fill="#3F3D56"/>
<path opacity="0.1" d="M79.4111 127.787H236.285V191.112C236.285 193.622 235.288 196.029 233.512 197.804C231.736 199.578 229.327 200.575 226.816 200.575H88.8804C86.369 200.575 83.9604 199.578 82.1846 197.804C80.4088 196.029 79.4111 193.622 79.4111 191.112V127.787Z" fill="black"/>
<path d="M208.047 77.89H108.637C103.872 77.89 100.009 81.7506 100.009 86.5129V185.859C100.009 190.622 103.872 194.482 108.637 194.482H208.047C212.813 194.482 216.676 190.622 216.676 185.859V86.5129C216.676 81.7506 212.813 77.89 208.047 77.89Z" fill="#6C63FF"/>
<path opacity="0.1" d="M216.676 130.406V194.482H100.009V130.406L158.342 158.582L216.676 130.406Z" fill="black"/>
<path d="M158.342 162.205L83.5984 126.102C83.1361 125.879 82.6246 125.777 82.1119 125.805C81.5992 125.833 81.1021 125.991 80.6671 126.264C80.2321 126.536 79.8736 126.915 79.625 127.364C79.3765 127.813 79.2461 128.318 79.2461 128.831V190.947C79.2461 192.19 79.491 193.421 79.9669 194.569C80.4428 195.717 81.1403 196.76 82.0196 197.639C82.8989 198.518 83.9427 199.215 85.0916 199.69C86.2405 200.166 87.4718 200.411 88.7153 200.411H227.969C229.213 200.411 230.444 200.166 231.593 199.69C232.742 199.215 233.786 198.518 234.665 197.639C235.544 196.76 236.242 195.717 236.718 194.569C237.194 193.421 237.439 192.19 237.439 190.947V129.895C237.439 129.269 237.279 128.653 236.976 128.105C236.673 127.557 236.235 127.095 235.705 126.762C235.174 126.429 234.567 126.237 233.941 126.202C233.316 126.168 232.692 126.293 232.128 126.565L158.342 162.205Z" fill="#3F3D56"/>
<path d="M142.688 88.5941H110.061V93.2051H142.688V88.5941Z" fill="#F2F2F2"/>
<path d="M204.317 105.391H107.424V108.026H204.317V105.391Z" fill="#F2F2F2"/>
<path d="M204.317 114.284H107.424V116.919H204.317V114.284Z" fill="#F2F2F2"/>
<path d="M204.317 123.177H107.424V125.811H204.317V123.177Z" fill="#F2F2F2"/>
<path d="M20.0889 200.41H291.653" stroke="#3F3D56" stroke-miterlimit="10"/>
<path d="M0 159.854C0 179.273 12.1902 194.987 27.255 194.987L0 159.854Z" fill="#46455B"/>
<path d="M27.2549 194.987C27.2549 175.349 40.8585 159.459 57.6699 159.459L27.2549 194.987Z" fill="#6C63FF"/>
<path d="M9.875 161.614C9.875 180.06 17.6485 194.987 27.255 194.987L9.875 161.614Z" fill="#6C63FF"/>
<path d="M27.2549 194.987C27.2549 169.895 42.9785 149.591 62.4099 149.591L27.2549 194.987Z" fill="#46455B"/>
<path d="M21.5215 195.234C21.5215 195.234 25.3867 195.115 26.5516 194.286C27.7165 193.457 32.4972 192.468 32.7862 193.797C33.0752 195.126 38.5949 200.409 34.2311 200.444C29.8673 200.48 24.0916 199.765 22.9289 199.057C21.7663 198.35 21.5215 195.234 21.5215 195.234Z" fill="#A8A8A8"/>
<path opacity="0.2" d="M34.309 199.982C29.9452 200.017 24.1695 199.302 23.0068 198.595C22.1214 198.056 21.7686 196.122 21.6505 195.229C21.5688 195.233 21.5215 195.234 21.5215 195.234C21.5215 195.234 21.7663 198.35 22.9289 199.057C24.0916 199.765 29.8673 200.48 34.2311 200.444C35.4908 200.434 35.9259 199.986 35.902 199.323C35.727 199.724 35.2466 199.974 34.309 199.982Z" fill="black"/>
<path d="M237.194 53.6095C236.996 55.3731 235.65 56.7937 235.152 58.4969C234.401 61.0604 235.699 63.8113 237.475 65.8079C238.907 67.4018 240.642 68.6958 242.579 69.6148C244.515 70.5338 246.615 71.0594 248.757 71.1614C249.386 71.2167 250.02 71.1476 250.622 70.9582C251.16 70.7419 251.644 70.4112 252.041 69.989C253.379 68.6472 254.096 66.7881 254.382 64.9161C254.668 63.0442 254.557 61.1371 254.445 59.2467C254.446 58.8559 254.375 58.4684 254.236 58.1032C254.053 57.7553 253.803 57.4476 253.499 57.1983C252.537 56.3158 251.476 55.546 250.339 54.9039C249.825 54.6737 249.371 54.3269 249.014 53.8912C248.8 53.5179 248.66 53.1058 248.605 52.6787L248.256 50.9005C248.194 50.3881 248.019 49.8959 247.743 49.4591C247.126 48.6276 245.947 48.5144 244.912 48.4739L241.12 48.3252C239.94 48.279 238.386 47.941 237.235 48.1725C236.16 48.3886 236.517 49.3788 236.712 50.2803C236.995 51.3689 237.157 52.4854 237.194 53.6095Z" fill="#A0616A"/>
<path opacity="0.1" d="M237.194 53.6095C236.996 55.3731 235.65 56.7937 235.152 58.4969C234.401 61.0604 235.699 63.8113 237.475 65.8079C238.907 67.4018 240.642 68.6958 242.579 69.6148C244.515 70.5338 246.615 71.0594 248.757 71.1614C249.386 71.2167 250.02 71.1476 250.622 70.9582C251.16 70.7419 251.644 70.4112 252.041 69.989C253.379 68.6472 254.096 66.7881 254.382 64.9161C254.668 63.0442 254.557 61.1371 254.445 59.2467C254.446 58.8559 254.375 58.4684 254.236 58.1032C254.053 57.7553 253.803 57.4476 253.499 57.1983C252.537 56.3158 251.476 55.546 250.339 54.9039C249.825 54.6737 249.371 54.3269 249.014 53.8912C248.8 53.5179 248.66 53.1058 248.605 52.6787L248.256 50.9005C248.194 50.3881 248.019 49.8959 247.743 49.4591C247.126 48.6276 245.947 48.5144 244.912 48.4739L241.12 48.3252C239.94 48.279 238.386 47.941 237.235 48.1725C236.16 48.3886 236.517 49.3788 236.712 50.2803C236.995 51.3689 237.157 52.4854 237.194 53.6095Z" fill="black"/>
<path d="M261.315 132.988C260.778 138.874 260.241 144.76 259.704 150.644C259.283 155.275 258.854 159.925 258.03 164.496C257.745 166.072 257.411 167.639 257.015 169.193C255.913 173.506 254.315 177.722 253.8 182.145C253.784 182.272 253.77 182.402 253.756 182.532C253.699 183.51 253.514 184.476 253.206 185.406C252.948 186.081 252.552 186.697 252.272 187.364C251.716 188.698 251.643 190.173 251.575 191.618C249.619 190.518 247.477 189.787 245.256 189.46C244.185 189.3 242.991 189.186 242.261 188.386C241.453 187.502 241.542 186.149 241.678 184.962C242.104 181.274 242.529 177.589 242.953 173.905C243.091 172.32 243.361 170.749 243.759 169.209C243.905 168.696 244.082 168.192 244.261 167.688C244.508 166.994 244.757 166.3 244.944 165.586C245.214 164.434 245.403 163.265 245.509 162.086C245.945 158.377 246.472 154.676 246.933 150.97L246.957 150.774C247.649 145.156 248.176 139.511 248.024 133.853C248.002 133.015 247.967 132.177 247.912 131.337C247.836 130.119 247.725 129.474 248.735 128.712C249.85 127.872 251.317 127.283 252.593 126.733C253.279 126.435 260.838 123.753 261.014 124.342C261.369 125.597 261.555 126.893 261.567 128.197C261.573 129.797 261.489 131.397 261.315 132.988Z" fill="#605D82"/>
<path opacity="0.1" d="M258.029 164.496C257.744 166.072 257.41 167.639 257.014 169.192C255.912 173.506 254.314 177.722 253.799 182.144C253.783 182.272 253.769 182.402 253.756 182.532C250.386 177.722 247.548 172.549 244.26 167.688C244.507 166.994 244.756 166.299 244.943 165.586C245.213 164.434 245.402 163.265 245.508 162.086C245.945 158.377 246.471 154.676 246.932 150.97L246.957 150.774C247.15 151.561 247.425 152.325 247.779 153.055C249.987 157.539 255.234 159.806 257.801 164.098C257.879 164.231 257.955 164.364 258.029 164.496Z" fill="black"/>
<path d="M230.686 125.063C230.798 128.66 231.374 132.224 231.949 135.776L233.135 143.106C233.784 147.117 234.46 151.21 236.36 154.803C237.781 157.491 239.828 159.784 241.68 162.195C246.233 168.123 249.654 174.838 253.971 180.94C255.226 182.713 257.02 184.631 259.161 184.261C260.567 184.018 261.588 182.849 262.693 181.947C263.995 180.884 265.565 180.106 266.59 178.773C267.615 177.441 267.816 175.226 266.427 174.278C265.925 173.999 265.392 173.781 264.838 173.628C262.686 172.81 261.292 170.709 260.406 168.585C259.519 166.461 258.982 164.176 257.801 162.201C255.234 157.909 249.987 155.642 247.778 151.156C246.54 148.643 246.423 145.747 246.328 142.949L246.087 135.814C246.06 135.034 246.04 134.222 246.357 133.509C247.202 131.61 249.753 131.433 251.819 131.192C254.164 130.918 256.435 130.202 258.513 129.082C259.703 128.44 260.865 127.621 261.501 126.429C262.082 125.341 262.162 124.065 262.23 122.834L262.946 109.905C263.007 108.792 263.063 107.642 262.671 106.599C261.686 103.981 258.377 103.125 255.581 103.25C250.377 103.482 245.573 105.719 240.666 107.23C239.451 107.613 238.217 107.935 236.969 108.194C235.868 108.415 234.535 108.323 233.485 108.677C231.617 109.306 231.665 113.388 231.4 115.081C230.853 118.379 230.614 121.721 230.686 125.063Z" fill="#605D82"/>
<path d="M258.454 184.803C258.913 185.266 259.063 185.943 259.183 186.584C259.846 190.135 260.19 193.738 260.213 197.351C260.182 197.688 260.25 198.027 260.407 198.327C260.536 198.505 260.711 198.646 260.914 198.734C262.24 199.365 263.779 198.485 264.885 197.518C266.933 195.724 268.667 193.317 268.783 190.597C268.762 189.897 268.786 189.196 268.857 188.499C269.037 187.475 269.635 186.583 270.162 185.687C271.059 184.162 271.782 182.541 272.319 180.855C272.52 180.221 272.654 179.424 272.158 178.981C271.982 178.844 271.781 178.74 271.567 178.675L265.576 176.452C265.057 176.259 263.765 179.575 263.56 179.938C263.059 180.825 262.56 181.328 261.554 181.533C260.527 181.742 259.304 181.442 258.345 181.954C256.724 182.82 257.536 183.878 258.454 184.803Z" fill="#535070"/>
<path d="M249.211 186.85C249.099 186.628 248.944 186.432 248.755 186.272C248.477 186.096 248.162 185.989 247.835 185.96C246.694 185.766 245.342 185.639 244.555 186.486C243.817 187.28 243.944 188.574 243.327 189.466C243.132 189.748 242.867 189.98 242.698 190.279C242.487 190.735 242.393 191.236 242.421 191.738C242.39 193.119 242.358 194.503 242.453 195.882C242.533 197.038 242.728 198.248 243.451 199.153C244.612 200.606 246.705 200.815 248.562 200.909L250.067 200.986C250.481 201.036 250.902 200.998 251.3 200.873C251.546 200.759 251.768 200.597 251.95 200.396C252.133 200.195 252.273 199.96 252.363 199.703C253.147 197.758 251.906 195.662 251.142 193.709C250.264 191.465 250.422 188.972 249.211 186.85Z" fill="#535070"/>
<path d="M236.759 43.6726C236.74 43.4754 236.769 43.2767 236.843 43.0929C237.064 42.7035 237.639 42.8095 238.073 42.9189C239.819 43.3587 241.658 42.9606 243.455 43.0633C245.253 43.1661 247.277 44.064 247.639 45.8265C248.943 44.9022 250.068 43.7475 250.957 42.4192C251.456 41.6732 251.891 40.8187 251.823 39.9241C251.725 38.6336 250.641 37.6686 249.638 36.8502L246.648 34.4107C246.256 34.0502 245.802 33.7622 245.309 33.56C244.619 33.3242 243.866 33.4365 243.136 33.437C240.959 33.4384 238.638 32.4484 236.703 33.4429C235.894 33.8583 235.285 34.5702 234.698 35.2644L232.03 38.4215C231.829 38.6227 231.682 38.8714 231.603 39.1445C231.527 39.5299 231.725 39.9102 231.794 40.2969C231.92 41.0022 231.616 41.7549 231.85 42.4323C232.238 43.5567 233.604 43.7159 234.439 44.3606C234.751 44.6008 235.239 45.4151 235.609 45.4051C236.279 45.3872 236.741 44.1922 236.759 43.6726Z" fill="#3F3D56"/>
<path d="M241.286 52.9791C246.006 52.9791 249.833 49.1553 249.833 44.4384C249.833 39.7215 246.006 35.8976 241.286 35.8976C236.567 35.8976 232.74 39.7215 232.74 44.4384C232.74 49.1553 236.567 52.9791 241.286 52.9791Z" fill="#A0616A"/>
<path d="M243.288 63.1298C242.998 62.2998 242.451 61.5836 241.726 61.0852C241.001 60.5868 240.137 60.3321 239.257 60.358C239.006 60.4048 238.746 60.3719 238.514 60.264C238.383 60.1633 238.278 60.0323 238.208 59.8823C237.689 58.9484 237.271 57.9614 236.962 56.9383C236.826 56.4863 236.64 55.9533 236.182 55.8358C235.992 55.811 235.8 55.8382 235.625 55.9143C235.449 55.9905 235.298 56.1128 235.187 56.2682C234.97 56.5811 234.732 56.8794 234.476 57.1613C233.401 58.1217 231.496 57.2463 230.355 58.1275C230.169 58.2714 230.015 58.4558 229.819 58.5867C229.623 58.7046 229.412 58.795 229.192 58.8556C226.989 59.5743 224.829 60.4196 222.724 61.3873C223.482 65.9544 224.26 70.6011 226.039 74.8759C226.885 76.9102 227.845 78.9026 228.522 80.9991C230.024 85.6442 230.091 90.6143 230.108 95.4958C230.119 98.8369 230.103 102.249 229.021 105.411C228.73 106.109 228.525 106.841 228.41 107.589C228.345 108.342 228.564 109.172 229.175 109.619C229.529 109.85 229.934 109.992 230.355 110.033C232.23 110.308 234.119 109.809 235.964 109.382C240.911 108.238 245.955 107.583 250.99 106.929L259.427 105.834C260.032 105.793 260.624 105.64 261.172 105.384C262.716 104.539 262.863 102.218 261.904 100.743C261.445 100.036 260.796 99.4555 260.41 98.7057C260.024 97.9559 259.991 96.9075 260.656 96.3882C262.008 95.3318 261.605 93.372 261.669 91.6578C261.849 86.8649 261.825 82.07 261.596 77.2734C261.528 76.2804 261.512 75.2846 261.548 74.2901C261.698 72.6047 262.01 70.9377 262.479 69.3119L265.042 59.2244C264.373 58.1667 263.09 57.4957 261.876 57.1911C260.661 56.8864 259.396 56.7968 258.199 56.4263C255.749 55.6674 253.567 53.7414 251.007 53.9209C250.814 53.9244 250.623 53.9709 250.45 54.0569C249.873 54.3837 249.964 55.2151 249.927 55.8771C249.846 57.3417 248.768 58.5657 247.577 59.424C246.387 60.2822 245.028 60.908 243.934 61.8867C243.741 62.0326 243.582 62.22 243.47 62.4351C243.358 62.6501 243.296 62.8875 243.288 63.1298Z" fill="#3F3D56"/>
<path d="M209.426 72.6981C208.859 73.0656 208.257 73.3753 207.628 73.6225C207.012 73.8055 206.431 74.0876 205.906 74.4576C205.664 74.6667 205.461 74.917 205.307 75.197C205.018 75.7097 204.872 76.2906 204.883 76.879C204.895 77.4675 205.065 78.042 205.375 78.5425C205.685 79.043 206.124 79.4511 206.646 79.7244C207.167 79.9976 207.753 80.1259 208.341 80.0958C209.123 80.0083 209.882 79.7819 210.584 79.4273L216.612 76.817C217.632 76.3752 218.735 75.8574 219.217 74.8561C219.273 74.7628 219.294 74.6523 219.275 74.5449C219.227 74.4313 219.139 74.339 219.028 74.2848C217.668 73.4024 216.479 72.2819 215.518 70.9773C215.271 70.6417 214.968 69.8494 214.619 69.6483C213.343 68.914 210.447 72.0358 209.426 72.6981Z" fill="#A0616A"/>
<path d="M273.865 70.5561L276.088 73.0931C276.565 73.6377 277.042 74.183 277.477 74.7619C278.545 76.2327 279.402 77.8457 280.023 79.5538C280.506 80.8206 280.907 82.1699 280.738 83.515C280.626 84.2046 280.439 84.88 280.182 85.5295C279.775 86.7787 279.27 87.994 278.672 89.1642C278.169 90.0532 277.601 90.9038 276.973 91.7091C275.252 93.9881 273.369 96.1402 271.339 98.1487C270.579 98.9003 270.261 100.116 269.93 101.132C269.32 103.006 267.868 104.465 266.465 105.849C266.014 106.325 265.515 106.754 264.977 107.129C264.17 107.648 263.228 107.916 262.269 107.899C261.849 107.902 261.434 107.816 261.049 107.647C260.089 107.191 259.601 106.081 259.501 105.023C259.411 104.063 259.572 103.096 259.968 102.217C261.243 99.3937 264.518 98.1704 266.833 96.1105C268.19 94.9027 269.228 93.3855 270.252 91.8847C270.947 90.9477 271.528 89.9308 271.981 88.8558C272.498 87.4773 272.296 85.8455 272.748 84.4442C272.939 83.852 273.278 83.3172 273.484 82.7297C273.689 82.1422 273.741 81.4449 273.382 80.9365C273.111 80.6134 272.765 80.3608 272.375 80.2003C270.897 79.4503 269.241 78.4851 268.958 76.8522C268.845 75.9466 269.082 75.0321 269.62 74.2949C270.156 73.5676 270.782 72.9113 271.484 72.3419C272.131 71.7704 273.219 71.1276 273.865 70.5561Z" fill="#A0616A"/>
<path d="M207.999 76.2395C207.606 75.4474 207.116 74.6392 206.324 74.2453C205.94 74.0787 205.526 73.9919 205.108 73.9901C204.689 73.9884 204.275 74.0717 203.889 74.2351C203.121 74.5659 202.403 75.0003 201.753 75.5261L199.837 76.9373C199.403 77.222 199.019 77.5764 198.7 77.9863C198.398 78.4835 198.197 79.0354 198.108 79.6103C197.774 80.9216 197.672 82.2811 197.807 83.6274C198.111 85.7861 199.413 87.6707 200.846 89.314C201.742 90.3408 202.848 91.377 204.21 91.4208C204.798 91.4397 205.452 91.208 205.697 90.6732C205.782 90.4612 205.827 90.2354 205.83 90.0071C205.977 87.5993 205.115 85.2474 204.11 83.0541C203.79 82.4798 203.6 81.8418 203.556 81.1858C203.548 81.0754 203.577 80.9656 203.637 80.8729C203.724 80.7827 203.84 80.7261 203.964 80.7133C205.34 80.4414 207.71 81.5093 208.675 79.9827C209.3 78.993 208.443 77.137 207.999 76.2395Z" fill="#A0616A"/>
<path d="M236.309 40.9852C236.291 40.788 236.32 40.5892 236.394 40.4055C236.614 40.0161 237.19 40.1221 237.624 40.2314C239.37 40.6712 241.209 40.2731 243.006 40.3759C244.804 40.4786 246.828 41.3766 247.189 43.139C248.494 42.2148 249.619 41.0601 250.508 39.7317C251.007 38.9858 251.441 38.1313 251.373 37.2366C251.276 35.9462 250.192 34.9812 249.189 34.1628L246.199 31.7232C245.806 31.3628 245.353 31.0748 244.86 30.8726C244.169 30.6368 243.416 30.7491 242.687 30.7496C240.51 30.751 238.189 29.761 236.253 30.7555C235.445 31.1709 234.836 31.8828 234.249 32.5769L231.58 35.7341C231.379 35.9353 231.233 36.184 231.154 36.4571C231.078 36.8425 231.276 37.2228 231.345 37.6094C231.471 38.3147 231.167 39.0675 231.401 39.7448C231.789 40.8693 233.155 41.0285 233.99 41.6731C234.301 41.9134 234.789 42.7276 235.16 42.7177C235.829 42.6997 236.292 41.5048 236.309 40.9852Z" fill="#3F3D56"/>
<path d="M218.159 64.3906C217.814 64.613 217.511 64.8948 217.264 65.2228C216.951 65.6963 216.887 66.294 216.618 66.7938C216.042 67.8634 214.695 68.2439 213.855 69.1214C213.721 69.2421 213.628 69.4012 213.589 69.5767C213.585 69.8149 213.665 70.0468 213.815 70.232L217.867 76.599C219.217 76.7177 220.511 75.8729 221.861 75.985C222.365 76.0269 222.881 76.2009 223.364 76.052C223.71 75.8987 224.034 75.7005 224.329 75.4625C225.134 74.9536 226.207 74.8943 226.882 74.2229C227.531 73.5786 227.614 72.5704 227.606 71.6566C227.617 70.8631 227.536 70.0709 227.365 69.2959C226.768 66.852 224.898 64.9765 223.725 62.8117C223.155 61.7578 222.844 61.1408 221.636 61.8644C220.421 62.5918 219.302 63.5553 218.159 64.3906Z" fill="#3F3D56"/>
<path d="M267.376 61.171C268.138 61.6652 268.825 62.2662 269.415 62.9556C270.033 63.7512 270.382 64.7248 270.975 65.5386C271.55 66.3274 272.333 66.9384 272.985 67.6648C273.973 68.7664 274.643 70.1103 275.301 71.4362C273.694 73.5301 271.943 75.5086 270.059 77.3571C269.849 77.604 269.573 77.7856 269.263 77.88C269.052 77.9024 268.839 77.8722 268.643 77.7922C268.446 77.7122 268.273 77.5849 268.138 77.4216C267.846 77.1155 267.639 76.7383 267.36 76.4205C266.701 75.7416 265.824 75.3174 264.882 75.223C263.949 75.1329 263.01 75.1199 262.075 75.1843C261.87 75.2072 261.662 75.1723 261.475 75.0837C261.337 74.988 261.224 74.8591 261.148 74.7087C260.051 72.8428 260.404 70.5001 260.791 68.3708L261.679 63.4846C261.808 62.5515 262.057 61.6387 262.419 60.769C262.755 60.0505 263.507 58.832 264.433 59.0471C265.365 59.2639 266.592 60.607 267.376 61.171Z" fill="#3F3D56"/>
<path d="M104.788 93.2542C112.25 93.2542 118.3 87.1975 118.3 79.726C118.3 72.2546 112.25 66.1979 104.788 66.1979C97.325 66.1979 91.2754 72.2546 91.2754 79.726C91.2754 87.1975 97.325 93.2542 104.788 93.2542Z" fill="white"/>
<path d="M104.787 63.8924C101.594 63.8924 98.4714 64.8389 95.8157 66.6122C93.16 68.3855 91.0902 70.906 89.8679 73.8549C88.6457 76.8039 88.3259 80.0488 88.949 83.1793C89.5721 86.3099 91.1101 89.1855 93.3686 91.4425C95.627 93.6995 98.5045 95.2365 101.637 95.8592C104.77 96.4819 108.017 96.1623 110.967 94.9408C113.918 93.7194 116.44 91.6508 118.215 88.9969C119.989 86.3429 120.936 83.2227 120.936 80.0308C120.924 75.7545 119.218 71.6569 116.193 68.6331C113.167 65.6092 109.067 63.9049 104.787 63.8924ZM101.472 88.6354L93.1961 80.3645L95.5175 78.0446L101.48 84.0034L114.065 71.4263L116.387 73.7462L101.472 88.6354L101.472 88.6354Z" fill="#57B894"/>
</g>
<defs>
<clipPath id="clip0">
<rect width="334" height="201" fill="white"/>
</clipPath>
</defs>
</svg>
