<svg width="274" height="160" viewBox="0 0 274 160" fill="none" xmlns="http://www.w3.org/2000/svg">
<g clip-path="url(#clip0)">
<g opacity="0.1">
<path opacity="0.1" d="M201.453 157.64C204.378 157.64 206.749 154.52 206.749 150.671C206.749 146.822 204.378 143.702 201.453 143.702C198.529 143.702 196.158 146.822 196.158 150.671C196.158 154.52 198.529 157.64 201.453 157.64Z" fill="#3F3D56"/>
<path opacity="0.1" d="M205.644 120.856C206.385 119.562 206.77 118.091 206.758 116.597C206.758 112.74 204.387 109.628 201.463 109.628C198.538 109.628 196.17 112.747 196.17 116.597C196.155 118.09 196.536 119.561 197.275 120.856C196.55 122.157 196.17 123.624 196.17 125.115C196.17 126.606 196.55 128.072 197.275 129.373C196.55 130.675 196.17 132.141 196.17 133.633C196.17 135.124 196.55 136.591 197.275 137.892C196.536 139.188 196.155 140.658 196.17 142.152C196.17 146.009 198.541 149.121 201.463 149.121C204.385 149.121 206.758 146.002 206.758 142.152C206.773 140.658 206.392 139.188 205.653 137.892C206.378 136.591 206.758 135.124 206.758 133.633C206.758 132.141 206.378 130.675 205.653 129.373C206.378 128.072 206.758 126.606 206.758 125.115C206.758 123.624 206.378 122.157 205.653 120.856H205.644Z" fill="#3F3D56"/>
<path opacity="0.1" d="M201.453 115.049C204.378 115.049 206.749 111.929 206.749 108.08C206.749 104.231 204.378 101.111 201.453 101.111C198.529 101.111 196.158 104.231 196.158 108.08C196.158 111.929 198.529 115.049 201.453 115.049Z" fill="#3F3D56"/>
<path opacity="0.1" d="M201.453 106.53C204.378 106.53 206.749 103.41 206.749 99.561C206.749 95.7121 204.378 92.5919 201.453 92.5919C198.529 92.5919 196.158 95.7121 196.158 99.561C196.158 103.41 198.529 106.53 201.453 106.53Z" fill="#3F3D56"/>
<path opacity="0.1" d="M221.273 41.2674C221.996 40.3409 222.655 39.3655 223.244 38.3481L209.34 36.0508L224.387 36.1641C225.83 33.0059 226.616 29.5851 226.698 26.1109C226.781 22.6367 226.158 19.1821 224.867 15.9583L204.678 26.4831L223.299 12.7281C221.554 9.69961 219.208 7.06475 216.406 4.98753C213.605 2.9103 210.408 1.43518 207.015 0.653973C203.622 -0.127232 200.106 -0.197795 196.685 0.44668C193.264 1.09115 190.011 2.43687 187.129 4.40006C184.248 6.36325 181.799 8.90188 179.935 11.8579C178.071 14.814 176.832 18.1242 176.295 21.5825C175.759 25.0408 175.936 28.5732 176.815 31.9598C177.695 35.3464 179.258 38.5146 181.408 41.2674C180.281 42.7086 179.312 44.2677 178.517 45.9175L196.575 55.3526L177.321 48.844C175.966 52.8615 175.629 57.1554 176.341 61.3368C177.052 65.5183 178.79 69.4552 181.396 72.7911C178.454 76.5527 176.623 81.071 176.114 85.8294C175.605 90.5878 176.438 95.3942 178.517 99.6991C180.596 104.004 183.838 107.634 187.872 110.173C191.906 112.713 196.57 114.059 201.329 114.059C206.088 114.059 210.751 112.713 214.785 110.173C218.819 107.634 222.061 104.004 224.14 99.6991C226.22 95.3942 227.052 90.5878 226.543 85.8294C226.034 81.071 224.204 76.5527 221.261 72.7911C224.778 68.2962 226.689 62.7433 226.689 57.0244C226.689 51.3055 224.778 45.7527 221.261 41.2578L221.273 41.2674Z" fill="white"/>
<path opacity="0.1" d="M175.981 57.0353C175.972 62.7552 177.885 68.3105 181.408 72.8007C178.466 76.5624 176.636 81.0807 176.126 85.839C175.617 90.5974 176.45 95.4038 178.529 99.7088C180.609 104.014 183.851 107.643 187.885 110.183C191.919 112.722 196.582 114.069 201.341 114.069C206.1 114.069 210.763 112.722 214.797 110.183C218.831 107.643 222.073 104.014 224.153 99.7088C226.232 95.4038 227.065 90.5974 226.555 85.839C226.046 81.0807 224.216 76.5624 221.274 72.8007C224.673 68.4616 175.981 54.1715 175.981 57.0353Z" fill="white"/>
</g>
<g opacity="0.1">
<path opacity="0.1" d="M52.9328 150.186C54.7121 150.186 56.1546 148.287 56.1546 145.944C56.1546 143.6 54.7121 141.701 52.9328 141.701C51.1534 141.701 49.7109 143.6 49.7109 145.944C49.7109 148.287 51.1534 150.186 52.9328 150.186Z" fill="#3F3D56"/>
<path opacity="0.1" d="M55.4954 127.794C55.9452 127.005 56.1777 126.11 56.169 125.2C56.169 122.857 54.7307 120.958 52.9448 120.958C51.1589 120.958 49.723 122.857 49.723 125.2C49.7136 126.109 49.9453 127.005 50.3942 127.794C49.9541 128.587 49.7231 129.479 49.7231 130.387C49.7231 131.294 49.9541 132.187 50.3942 132.979C49.9541 133.772 49.7231 134.664 49.7231 135.572C49.7231 136.48 49.9541 137.372 50.3942 138.165C49.9449 138.953 49.7132 139.847 49.723 140.756C49.723 143.102 51.1613 145.001 52.9448 145.001C54.7283 145.001 56.169 143.102 56.169 140.756C56.1781 139.847 55.9455 138.953 55.4954 138.165C55.9368 137.373 56.1686 136.48 56.1686 135.572C56.1686 134.664 55.9368 133.771 55.4954 132.979C55.9368 132.187 56.1686 131.295 56.1686 130.387C56.1686 129.479 55.9368 128.586 55.4954 127.794Z" fill="#3F3D56"/>
<path opacity="0.1" d="M52.9328 124.258C54.7121 124.258 56.1546 122.358 56.1546 120.015C56.1546 117.672 54.7121 115.772 52.9328 115.772C51.1534 115.772 49.7109 117.672 49.7109 120.015C49.7109 122.358 51.1534 124.258 52.9328 124.258Z" fill="#3F3D56"/>
<path opacity="0.1" d="M52.9328 119.073C54.7121 119.073 56.1546 117.173 56.1546 114.83C56.1546 112.487 54.7121 110.587 52.9328 110.587C51.1534 110.587 49.7109 112.487 49.7109 114.83C49.7109 117.173 51.1534 119.073 52.9328 119.073Z" fill="#3F3D56"/>
<path opacity="0.1" d="M40.8724 79.3407C40.4323 78.7771 40.0318 78.1835 39.6738 77.564L48.1431 76.1659L38.9834 76.2358C38.1064 74.3141 37.628 72.233 37.5773 70.1192C37.5267 68.0055 37.9047 65.9036 38.6885 63.9416L50.9694 70.3563L39.6378 61.9673C40.7006 60.1249 42.1291 58.5222 43.8343 57.2588C45.5396 55.9953 47.4851 55.0983 49.5499 54.6235C51.6147 54.1486 53.7546 54.1062 55.8364 54.4986C57.9182 54.8911 59.8975 55.7102 61.651 56.905C63.4045 58.0997 64.8948 59.6445 66.0291 61.4433C67.1634 63.242 67.9175 65.2563 68.2445 67.3607C68.5715 69.4651 68.4643 71.6147 67.9297 73.6757C67.395 75.7367 66.4444 77.665 65.1368 79.3407C65.8227 80.2169 66.4127 81.1649 66.8964 82.1683L55.9028 87.9152L67.6251 83.9594C68.4484 86.406 68.652 89.0204 68.2175 91.5661C67.783 94.1117 66.7242 96.5083 65.1368 98.5388C66.9278 100.829 68.0419 103.579 68.3517 106.476C68.6614 109.373 68.1544 112.298 66.8886 114.919C65.6228 117.539 63.6493 119.749 61.1936 121.295C58.738 122.841 55.8993 123.66 53.0022 123.66C50.1051 123.66 47.2664 122.841 44.8108 121.295C42.3551 119.749 40.3816 117.539 39.1158 114.919C37.8499 112.298 37.3429 109.373 37.6527 106.476C37.9625 103.579 39.0766 100.829 40.8676 98.5388C38.7274 95.802 37.564 92.4214 37.564 88.9398C37.564 85.4581 38.7274 82.0775 40.8676 79.3407H40.8724Z" fill="white"/>
<path opacity="0.1" d="M68.4399 88.9397C68.445 92.4222 67.2811 95.8044 65.1366 98.5388C66.9276 100.829 68.0416 103.579 68.3514 106.476C68.6612 109.373 68.1542 112.298 66.8884 114.919C65.6226 117.539 63.649 119.749 61.1934 121.295C58.7377 122.841 55.8991 123.66 53.0019 123.66C50.1048 123.66 47.2662 122.841 44.8105 121.295C42.3549 119.749 40.3813 117.539 39.1155 114.919C37.8497 112.298 37.3427 109.373 37.6525 106.476C37.9623 103.579 39.0763 100.829 40.8673 98.5388C38.7985 95.9088 68.4399 87.1968 68.4399 88.9397Z" fill="white"/>
</g>
<g opacity="0.1">
<path opacity="0.1" d="M125.567 153.879C127.949 153.879 129.88 151.338 129.88 148.202C129.88 145.067 127.949 142.525 125.567 142.525C123.186 142.525 121.255 145.067 121.255 148.202C121.255 151.338 123.186 153.879 125.567 153.879Z" fill="#3F3D56"/>
<path opacity="0.1" d="M128.981 123.913C129.582 122.857 129.893 121.659 129.88 120.442C129.88 117.308 127.963 114.765 125.565 114.765C123.168 114.765 121.25 117.308 121.25 120.442C121.238 121.659 121.549 122.857 122.152 123.913C121.561 124.973 121.251 126.168 121.251 127.383C121.251 128.598 121.561 129.793 122.152 130.853C121.561 131.913 121.251 133.107 121.251 134.322C121.251 135.537 121.561 136.731 122.152 137.791C121.549 138.847 121.238 140.045 121.25 141.262C121.25 144.396 123.183 146.939 125.565 146.939C127.948 146.939 129.88 144.396 129.88 141.262C129.893 140.045 129.582 138.847 128.981 137.791C129.571 136.731 129.88 135.537 129.88 134.322C129.88 133.108 129.571 131.913 128.981 130.853C129.571 129.793 129.88 128.598 129.88 127.383C129.88 126.168 129.571 124.973 128.981 123.913Z" fill="#3F3D56"/>
<path opacity="0.1" d="M125.567 119.181C127.949 119.181 129.88 116.639 129.88 113.504C129.88 110.369 127.949 107.827 125.567 107.827C123.186 107.827 121.255 110.369 121.255 113.504C121.255 116.639 123.186 119.181 125.567 119.181Z" fill="#3F3D56"/>
<path opacity="0.1" d="M125.567 112.241C127.949 112.241 129.88 109.699 129.88 106.564C129.88 103.428 127.949 100.887 125.567 100.887C123.186 100.887 121.255 103.428 121.255 106.564C121.255 109.699 123.186 112.241 125.567 112.241Z" fill="#3F3D56"/>
<path opacity="0.1" d="M109.432 59.0746C108.843 58.3207 108.306 57.5265 107.826 56.6978L119.157 54.8271L106.903 54.9187C105.727 52.3461 105.086 49.5592 105.018 46.7287C104.95 43.8981 105.457 41.0834 106.507 38.4566L122.952 47.0336L107.785 35.8242C109.202 33.3479 111.112 31.1921 113.395 29.4915C115.678 27.7909 118.285 26.582 121.053 25.9404C123.822 25.2988 126.692 25.2383 129.485 25.7626C132.278 26.2869 134.933 27.3848 137.285 28.9877C139.637 30.5906 141.635 32.664 143.154 35.0783C144.673 37.4927 145.68 40.1962 146.113 43.0198C146.546 45.8434 146.396 48.7265 145.671 51.4889C144.946 54.2513 143.662 56.8337 141.9 59.0746C142.817 60.2492 143.607 61.5197 144.254 62.8641L129.545 70.5492L145.229 65.2458C146.331 68.5197 146.604 72.0181 146.022 75.4246C145.441 78.831 144.024 82.0379 141.9 84.755C144.296 87.8194 145.787 91.5001 146.202 95.3763C146.616 99.2526 145.938 103.168 144.244 106.675C142.55 110.181 139.909 113.138 136.623 115.207C133.337 117.275 129.538 118.372 125.661 118.372C121.784 118.372 117.985 117.275 114.699 115.207C111.413 113.138 108.772 110.181 107.078 106.675C105.384 103.168 104.706 99.2526 105.12 95.3763C105.535 91.5001 107.026 87.8194 109.422 84.755C106.559 81.0926 105.002 76.5688 105.002 71.91C105.002 67.2511 106.559 62.7274 109.422 59.065L109.432 59.0746Z" fill="white"/>
<path opacity="0.1" d="M146.32 71.9208C146.327 76.5805 144.77 81.1062 141.9 84.7645C144.296 87.829 145.787 91.5097 146.202 95.3859C146.616 99.2622 145.938 103.178 144.244 106.684C142.55 110.191 139.909 113.148 136.623 115.216C133.337 117.285 129.538 118.382 125.661 118.382C121.784 118.382 117.985 117.285 114.699 115.216C111.413 113.148 108.772 110.191 107.078 106.684C105.384 103.178 104.706 99.2622 105.12 95.3859C105.535 91.5097 107.026 87.829 109.422 84.7645C106.654 81.2306 146.32 69.5873 146.32 71.9208Z" fill="white"/>
</g>
<path d="M274 153.368C274 155.024 261.961 156.538 242.057 157.707C238.437 157.917 234.559 158.117 230.445 158.305C226.891 158.466 223.166 158.618 219.269 158.761C215.495 158.896 211.575 159.021 207.511 159.137C194.676 159.506 180.487 159.771 165.414 159.904C161.756 159.937 158.049 159.963 154.293 159.981C150.381 159.998 146.424 160.006 142.422 160.005C69.7536 160.005 10.8472 157.037 10.8472 153.376C10.8472 149.714 69.7536 146.746 142.422 146.746C173.708 146.746 202.439 147.298 225.02 148.214L227.489 148.316H227.504C255.949 149.528 274 151.353 274 153.368Z" fill="#3F3D56"/>
<path opacity="0.15" d="M274 153.368C274 155.024 261.961 156.538 242.057 157.707C238.437 157.917 234.559 158.117 230.445 158.305C226.891 158.466 223.166 158.618 219.269 158.761C215.495 158.896 211.575 159.021 207.511 159.137C194.676 159.506 180.487 159.771 165.414 159.904C161.756 159.937 158.049 159.963 154.293 159.981C150.381 159.998 146.424 160.006 142.422 160.005C69.7536 160.005 10.8472 157.037 10.8472 153.376C10.8472 149.714 69.7536 146.746 142.422 146.746C173.708 146.746 202.439 147.298 225.02 148.214L227.489 148.316H227.504C255.949 149.528 274 151.353 274 153.368Z" fill="white"/>
<path d="M263.153 152.202C263.153 153.585 251.114 154.853 231.21 155.818C227.593 155.994 223.712 156.16 219.6 156.317C216.044 156.452 212.319 156.578 208.425 156.697C204.65 156.81 200.73 156.915 196.666 157.013C183.829 157.322 169.64 157.544 154.567 157.654C150.912 157.682 147.205 157.703 143.446 157.717C139.534 157.732 135.578 157.739 131.578 157.739C58.9088 157.739 0 155.258 0 152.194C0 149.13 58.9088 146.65 131.578 146.65C162.861 146.65 191.591 147.11 214.173 147.877L216.642 147.961H216.659C245.114 148.991 263.153 150.507 263.153 152.202Z" fill="#3F3D56"/>
<path d="M33.9825 101.837L30.6792 91.6662L109.787 90.796L113.028 100.865L33.9825 101.837Z" fill="#3F3D56"/>
<path opacity="0.15" d="M33.9825 101.837L30.6792 91.6662L109.787 90.796L113.028 100.865L33.9825 101.837Z" fill="white"/>
<path d="M28.7091 101.837L25.4058 91.6662L104.513 90.796L107.754 100.865L28.7091 101.837Z" fill="#3F3D56"/>
<path d="M163.755 86.2086C155.576 86.2086 149.13 82.9438 144.417 76.4142C139.704 69.8847 137.348 61.9746 137.348 52.6841C137.348 43.3309 139.627 35.4369 144.184 29.0022C148.742 22.5674 155.172 19.3533 163.472 19.3597C172.275 19.3597 178.907 22.7498 183.369 29.5301C187.831 36.3104 190.063 44.1577 190.064 53.0722C190.064 61.9224 187.755 69.6589 183.137 76.2816C178.518 82.9044 172.058 86.2134 163.755 86.2086ZM163.995 78.8634C169.376 78.8634 173.398 76.505 176.06 71.7882C178.723 67.0715 180.054 61.1253 180.054 53.9497C180.054 45.9625 178.691 39.4225 175.967 34.3296C173.242 29.2368 169.063 26.6896 163.429 26.688C152.722 26.688 147.368 35.2409 147.368 52.3466C147.368 70.0261 152.909 78.865 163.99 78.8634H163.995ZM166.689 149.203H154.859L232.308 20.6687H243.915L166.689 149.203ZM235.206 150.521C226.904 150.521 220.431 147.227 215.789 140.638C211.146 134.049 208.815 126.138 208.796 116.905C208.796 107.615 211.059 99.7522 215.585 93.3175C220.111 86.8827 226.556 83.6686 234.921 83.675C243.661 83.675 250.247 87.0651 254.679 93.8454C259.11 100.626 261.327 108.472 261.328 117.385C261.328 126.177 259.034 133.899 254.446 140.551C249.858 147.203 243.443 150.526 235.201 150.521H235.206ZM235.345 142.988C240.701 142.988 244.701 140.67 247.346 136.034C249.991 131.397 251.313 125.475 251.313 118.267C251.313 110.553 249.975 104.084 247.298 98.8595C244.621 93.6349 240.45 91.0185 234.787 91.0105C224.017 91.0105 218.632 99.5634 218.632 116.669C218.629 134.217 224.198 142.99 235.34 142.988H235.345Z" fill="#3F3D56"/>
<path d="M163.755 86.2086C155.576 86.2086 149.13 82.9438 144.417 76.4142C139.704 69.8847 137.348 61.9746 137.348 52.6841C137.348 43.3309 139.627 35.4369 144.184 29.0022C148.742 22.5674 155.172 19.3533 163.472 19.3597C172.275 19.3597 178.907 22.7498 183.369 29.5301C187.831 36.3104 190.063 44.1577 190.064 53.0722C190.064 61.9224 187.755 69.6589 183.137 76.2816C178.518 82.9044 172.058 86.2134 163.755 86.2086ZM163.995 78.8634C169.376 78.8634 173.398 76.505 176.06 71.7882C178.723 67.0715 180.054 61.1253 180.054 53.9497C180.054 45.9625 178.691 39.4225 175.967 34.3296C173.242 29.2368 169.063 26.6896 163.429 26.688C152.722 26.688 147.368 35.2409 147.368 52.3466C147.368 70.0261 152.909 78.865 163.99 78.8634H163.995ZM166.689 149.203H154.859L232.308 20.6687H243.915L166.689 149.203ZM235.206 150.521C226.904 150.521 220.431 147.227 215.789 140.638C211.146 134.049 208.815 126.138 208.796 116.905C208.796 107.615 211.059 99.7522 215.585 93.3175C220.111 86.8827 226.556 83.6686 234.921 83.675C243.661 83.675 250.247 87.0651 254.679 93.8454C259.11 100.626 261.327 108.472 261.328 117.385C261.328 126.177 259.034 133.899 254.446 140.551C249.858 147.203 243.443 150.526 235.201 150.521H235.206ZM235.345 142.988C240.701 142.988 244.701 140.67 247.346 136.034C249.991 131.397 251.313 125.475 251.313 118.267C251.313 110.553 249.975 104.084 247.298 98.8595C244.621 93.6349 240.45 91.0185 234.787 91.0105C224.017 91.0105 218.632 99.5634 218.632 116.669C218.629 134.217 224.198 142.99 235.34 142.988H235.345Z" fill="#3F3D56"/>
<path opacity="0.15" d="M163.755 86.2086C155.576 86.2086 149.13 82.9438 144.417 76.4142C139.704 69.8847 137.348 61.9746 137.348 52.6841C137.348 43.3309 139.627 35.4369 144.184 29.0022C148.742 22.5674 155.172 19.3533 163.472 19.3597C172.275 19.3597 178.907 22.7498 183.369 29.5301C187.831 36.3104 190.063 44.1577 190.064 53.0722C190.064 61.9224 187.755 69.6589 183.137 76.2816C178.518 82.9044 172.058 86.2134 163.755 86.2086ZM163.995 78.8634C169.376 78.8634 173.398 76.505 176.06 71.7882C178.723 67.0715 180.054 61.1253 180.054 53.9497C180.054 45.9625 178.691 39.4225 175.967 34.3296C173.242 29.2368 169.063 26.6896 163.429 26.688C152.722 26.688 147.368 35.2409 147.368 52.3466C147.368 70.0261 152.909 78.865 163.99 78.8634H163.995ZM166.689 149.203H154.859L232.308 20.6687H243.915L166.689 149.203ZM235.206 150.521C226.904 150.521 220.431 147.227 215.789 140.638C211.146 134.049 208.815 126.138 208.796 116.905C208.796 107.615 211.059 99.7522 215.585 93.3175C220.111 86.8827 226.556 83.6686 234.921 83.675C243.661 83.675 250.247 87.0651 254.679 93.8454C259.11 100.626 261.327 108.472 261.328 117.385C261.328 126.177 259.034 133.899 254.446 140.551C249.858 147.203 243.443 150.526 235.201 150.521H235.206ZM235.345 142.988C240.701 142.988 244.701 140.67 247.346 136.034C249.991 131.397 251.313 125.475 251.313 118.267C251.313 110.553 249.975 104.084 247.298 98.8595C244.621 93.6349 240.45 91.0185 234.787 91.0105C224.017 91.0105 218.632 99.5634 218.632 116.669C218.629 134.217 224.198 142.99 235.34 142.988H235.345Z" fill="white"/>
<path d="M156.324 86.2086C148.145 86.2086 141.699 82.9438 136.986 76.4142C132.273 69.8847 129.917 61.9746 129.917 52.6841C129.917 43.3309 132.195 35.4369 136.753 29.0022C141.311 22.5674 147.74 19.3533 156.041 19.3597C164.844 19.3597 171.476 22.7498 175.938 29.5301C180.4 36.3104 182.632 44.1577 182.633 53.0722C182.633 61.9224 180.324 69.6589 175.705 76.2816C171.087 82.9044 164.626 86.2134 156.324 86.2086ZM156.564 78.8634C161.945 78.8634 165.966 76.505 168.629 71.7882C171.291 67.0715 172.623 61.1253 172.623 53.9497C172.623 45.9625 171.26 39.4225 168.535 34.3296C165.811 29.2368 161.631 26.6896 155.998 26.688C145.291 26.688 139.937 35.2409 139.937 52.3466C139.937 70.0261 145.478 78.865 156.559 78.8634H156.564ZM159.258 149.203H147.428L224.877 20.6687H236.484L159.258 149.203ZM227.775 150.521C219.473 150.521 213 147.227 208.358 140.638C203.715 134.049 201.384 126.138 201.365 116.905C201.365 107.615 203.628 99.7522 208.154 93.3175C212.68 86.8827 219.125 83.6686 227.49 83.675C236.23 83.675 242.816 87.0651 247.248 93.8454C251.679 100.626 253.896 108.472 253.897 117.385C253.897 126.177 251.603 133.899 247.015 140.551C242.427 147.203 236.012 150.526 227.77 150.521H227.775ZM227.914 142.988C233.269 142.988 237.27 140.67 239.914 136.034C242.559 131.397 243.882 125.475 243.882 118.267C243.882 110.553 242.543 104.084 239.867 98.8595C237.19 93.6349 233.018 91.0185 227.351 91.0105C216.581 91.0105 211.196 99.5634 211.196 116.669C211.196 134.217 216.767 142.99 227.909 142.988H227.914Z" fill="#3F3D56"/>
<path d="M182.204 152.428C183.191 150.587 182.07 148.33 180.78 146.686C179.49 145.042 177.918 143.335 177.951 141.241C177.999 138.235 181.173 136.458 183.704 134.862C185.587 133.679 187.324 132.276 188.878 130.682C189.528 130.068 190.066 129.343 190.467 128.541C190.992 127.365 190.975 126.027 190.946 124.74C190.836 120.446 190.625 116.158 190.314 111.877" stroke="#3F3D56" stroke-width="4" stroke-miterlimit="10"/>
<path d="M195.137 111.641C195.101 110.855 194.869 110.091 194.462 109.42C194.055 108.748 193.487 108.191 192.809 107.798L191.764 109.876L191.795 107.359C191.297 107.213 190.777 107.15 190.259 107.174C189.337 107.217 188.449 107.534 187.707 108.085C186.964 108.636 186.401 109.396 186.088 110.269C185.776 111.142 185.727 112.089 185.949 112.989C186.171 113.89 186.654 114.704 187.336 115.328C188.018 115.953 188.869 116.36 189.782 116.498C190.694 116.637 191.627 116.5 192.462 116.105C193.297 115.71 193.996 115.075 194.473 114.281C194.949 113.486 195.18 112.567 195.137 111.641Z" fill="white"/>
<path d="M186.819 143.398C186.329 144.354 185.527 145.113 184.548 145.545C183.569 145.978 182.471 146.059 181.44 145.774C180.408 145.49 179.505 144.857 178.883 143.983C178.26 143.109 177.955 142.045 178.019 140.972C178.083 139.898 178.512 138.879 179.234 138.086C179.957 137.293 180.928 136.773 181.986 136.615C183.044 136.457 184.124 136.669 185.045 137.216C185.966 137.763 186.672 138.612 187.044 139.621L184.129 142.005L187.341 141.253C187.34 142 187.161 142.735 186.819 143.398Z" fill="white"/>
<path d="M184.515 134.284C183.903 134.312 183.291 134.22 182.715 134.011C182.138 133.802 181.609 133.481 181.156 133.066C180.703 132.651 180.335 132.151 180.075 131.593C179.814 131.036 179.665 130.432 179.637 129.817C179.6 129.082 179.738 128.349 180.039 127.678C180.318 127.052 180.73 126.494 181.246 126.045C181.762 125.595 182.37 125.265 183.026 125.077L183 127.006L184.057 124.904C185.293 124.846 186.501 125.284 187.416 126.121C188.331 126.959 188.877 128.128 188.935 129.371C188.993 130.614 188.558 131.829 187.725 132.749C186.892 133.669 185.729 134.218 184.493 134.276L184.515 134.284Z" fill="white"/>
<path d="M195.839 126.707C195.22 126.748 194.599 126.665 194.012 126.462C193.425 126.259 192.885 125.94 192.422 125.525C191.959 125.109 191.583 124.605 191.316 124.041C191.049 123.478 190.897 122.867 190.868 122.243C190.839 121.62 190.934 120.997 191.147 120.411C191.36 119.825 191.688 119.287 192.11 118.83C192.532 118.373 193.041 118.005 193.607 117.747C194.172 117.49 194.783 117.349 195.403 117.332C196.275 117.289 197.141 117.496 197.901 117.927L197.076 120.198L198.774 118.561C199.684 119.396 200.228 120.561 200.286 121.799C200.307 122.233 200.267 122.668 200.166 123.091C199.934 124.085 199.386 124.976 198.606 125.628C197.825 126.281 196.854 126.659 195.839 126.707Z" fill="white"/>
<path opacity="0.1" d="M194.509 112.892C193.433 113.01 192.387 113.347 191.306 113.415C190.225 113.482 189.039 113.222 188.355 112.376C187.986 111.923 187.804 111.346 187.492 110.85C187.198 110.388 186.794 110.006 186.318 109.739C186.018 110.333 185.848 110.985 185.819 111.651C185.79 112.317 185.902 112.981 186.148 113.6C186.394 114.219 186.769 114.778 187.247 115.24C187.724 115.702 188.295 116.056 188.919 116.279C189.544 116.502 190.209 116.588 190.869 116.533C191.53 116.477 192.171 116.28 192.75 115.956C193.329 115.632 193.832 115.187 194.227 114.651C194.622 114.116 194.898 113.502 195.039 112.851C194.861 112.86 194.686 112.872 194.509 112.892Z" fill="white"/>
<path opacity="0.1" d="M195.839 126.707C195.035 126.744 194.236 126.571 193.518 126.206C192.8 125.84 192.188 125.294 191.742 124.621C191.295 123.948 191.029 123.17 190.97 122.363C190.91 121.556 191.059 120.747 191.402 120.015C191.772 120.267 192.09 120.588 192.339 120.96C192.673 121.464 192.874 122.047 193.265 122.51C193.984 123.371 195.233 123.65 196.357 123.6C197.481 123.549 198.57 123.226 199.692 123.118C199.847 123.103 200.006 123.093 200.171 123.089C199.939 124.084 199.391 124.976 198.609 125.629C197.827 126.282 196.855 126.66 195.839 126.707Z" fill="white"/>
<path opacity="0.1" d="M184.515 134.284C183.903 134.312 183.291 134.22 182.715 134.011C182.138 133.802 181.609 133.481 181.156 133.066C180.703 132.651 180.335 132.151 180.075 131.593C179.814 131.036 179.665 130.432 179.637 129.817C179.6 129.082 179.738 128.349 180.039 127.678C180.424 127.936 180.758 128.263 181.025 128.643C181.387 129.156 181.614 129.749 182.039 130.224C182.825 131.104 184.148 131.415 185.339 131.386C186.531 131.357 187.607 131.077 188.755 130.988C188.471 131.909 187.911 132.719 187.152 133.309C186.394 133.899 185.473 134.239 184.515 134.284Z" fill="white"/>
<path opacity="0.1" d="M186.819 143.398C186.276 144.471 185.344 145.293 184.215 145.694C183.087 146.095 181.848 146.044 180.755 145.552C179.663 145.061 178.8 144.165 178.345 143.052C177.891 141.938 177.88 140.692 178.313 139.57C178.697 139.824 179.042 140.134 179.337 140.488C179.781 141.033 180.073 141.65 180.586 142.157C181.545 143.097 183.079 143.485 184.45 143.521C185.241 143.528 186.032 143.486 186.819 143.398Z" fill="white"/>
<path d="M254.36 152.187C255.347 150.345 254.225 148.089 252.936 146.445C251.646 144.801 250.073 143.094 250.107 141C250.155 137.993 253.329 136.217 255.86 134.621C257.743 133.438 259.479 132.035 261.033 130.441C261.684 129.827 262.222 129.102 262.623 128.3C263.148 127.124 263.131 125.786 263.102 124.499C262.992 120.205 262.781 115.917 262.469 111.636" stroke="#3F3D56" stroke-width="4" stroke-miterlimit="10"/>
<path d="M267.293 111.4C267.256 110.614 267.024 109.85 266.618 109.179C266.211 108.507 265.642 107.95 264.965 107.557L263.92 109.635L263.951 107.118C263.452 106.972 262.933 106.909 262.414 106.933C261.493 106.976 260.605 107.293 259.862 107.844C259.12 108.395 258.557 109.155 258.244 110.028C257.931 110.901 257.883 111.847 258.105 112.748C258.327 113.648 258.81 114.462 259.492 115.087C260.174 115.712 261.025 116.119 261.937 116.257C262.85 116.396 263.782 116.259 264.617 115.864C265.452 115.469 266.152 114.834 266.628 114.04C267.104 113.245 267.336 112.326 267.293 111.4Z" fill="white"/>
<path d="M258.974 143.157C258.485 144.113 257.683 144.871 256.704 145.304C255.725 145.737 254.627 145.818 253.596 145.533C252.564 145.249 251.661 144.616 251.038 143.742C250.415 142.868 250.11 141.804 250.174 140.731C250.238 139.657 250.668 138.638 251.39 137.845C252.112 137.052 253.084 136.532 254.142 136.374C255.2 136.215 256.28 136.428 257.201 136.975C258.122 137.522 258.827 138.371 259.2 139.38L256.285 141.764L259.497 141.012C259.496 141.758 259.316 142.494 258.974 143.157Z" fill="white"/>
<path d="M256.671 134.042C256.059 134.071 255.447 133.979 254.871 133.77C254.294 133.561 253.764 133.24 253.311 132.825C252.858 132.41 252.491 131.91 252.23 131.352C251.97 130.795 251.821 130.191 251.792 129.576C251.756 128.841 251.894 128.108 252.195 127.437C252.474 126.811 252.886 126.253 253.402 125.804C253.918 125.354 254.525 125.024 255.182 124.836L255.156 126.765L256.213 124.663H256.225C256.837 124.634 257.448 124.727 258.025 124.935C258.601 125.144 259.131 125.465 259.584 125.88C260.037 126.295 260.404 126.795 260.665 127.353C260.926 127.91 261.074 128.514 261.103 129.13C261.132 129.745 261.04 130.36 260.832 130.94C260.624 131.519 260.305 132.052 259.892 132.508C259.48 132.963 258.982 133.332 258.428 133.595C257.873 133.857 257.273 134.006 256.661 134.035L256.671 134.042Z" fill="white"/>
<path d="M267.995 126.466C267.376 126.507 266.755 126.424 266.168 126.221C265.581 126.018 265.04 125.699 264.577 125.284C264.114 124.868 263.739 124.364 263.472 123.8C263.205 123.237 263.053 122.626 263.024 122.002C262.995 121.379 263.09 120.756 263.303 120.17C263.516 119.584 263.843 119.046 264.266 118.589C264.688 118.132 265.197 117.764 265.762 117.506C266.328 117.249 266.939 117.108 267.559 117.091C268.431 117.048 269.297 117.255 270.057 117.686L269.232 119.957L270.929 118.32C271.84 119.155 272.384 120.32 272.442 121.558C272.463 121.992 272.423 122.427 272.322 122.85C272.09 123.844 271.542 124.735 270.761 125.387C269.98 126.04 269.009 126.418 267.995 126.466Z" fill="white"/>
<path opacity="0.1" d="M266.665 112.651C265.588 112.769 264.543 113.106 263.462 113.174C262.381 113.241 261.194 112.981 260.511 112.135C260.142 111.682 259.96 111.105 259.648 110.609C259.354 110.147 258.95 109.765 258.473 109.498C258.174 110.092 258.004 110.744 257.975 111.41C257.946 112.076 258.058 112.74 258.304 113.359C258.55 113.978 258.925 114.537 259.402 114.999C259.88 115.461 260.45 115.815 261.075 116.038C261.7 116.261 262.364 116.347 263.025 116.292C263.685 116.236 264.327 116.039 264.906 115.715C265.485 115.391 265.988 114.946 266.383 114.41C266.778 113.875 267.054 113.261 267.195 112.61C267.017 112.619 266.842 112.631 266.665 112.651Z" fill="white"/>
<path opacity="0.1" d="M267.995 126.466C267.191 126.503 266.392 126.33 265.674 125.965C264.956 125.599 264.344 125.053 263.897 124.38C263.451 123.707 263.185 122.929 263.126 122.122C263.066 121.315 263.215 120.506 263.558 119.774C263.927 120.026 264.246 120.347 264.495 120.719C264.828 121.223 265.03 121.806 265.421 122.269C266.14 123.13 267.389 123.409 268.513 123.359C269.637 123.308 270.726 122.985 271.847 122.876C272.003 122.862 272.161 122.852 272.327 122.848C272.095 123.843 271.547 124.735 270.765 125.388C269.983 126.041 269.01 126.419 267.995 126.466Z" fill="white"/>
<path opacity="0.1" d="M256.671 134.042C256.059 134.071 255.447 133.979 254.871 133.77C254.294 133.561 253.764 133.24 253.311 132.825C252.858 132.41 252.491 131.91 252.23 131.352C251.97 130.795 251.821 130.191 251.792 129.576C251.756 128.841 251.894 128.108 252.195 127.437C252.58 127.695 252.914 128.022 253.18 128.402C253.542 128.915 253.77 129.508 254.194 129.983C254.981 130.863 256.304 131.174 257.495 131.145C258.651 131.121 259.763 130.836 260.911 130.747C260.627 131.668 260.067 132.478 259.308 133.068C258.549 133.657 257.628 133.998 256.671 134.042Z" fill="white"/>
<path opacity="0.1" d="M258.974 143.157C258.432 144.23 257.499 145.052 256.371 145.453C255.242 145.854 254.004 145.803 252.911 145.311C251.819 144.82 250.956 143.924 250.501 142.811C250.047 141.697 250.035 140.451 250.469 139.329C250.853 139.583 251.198 139.893 251.493 140.247C251.936 140.792 252.229 141.409 252.742 141.916C253.701 142.856 255.235 143.244 256.606 143.28C257.397 143.286 258.188 143.245 258.974 143.157Z" fill="white"/>
<path d="M26.3524 149.053C25.3647 147.212 26.4866 144.955 27.7763 143.311C29.066 141.667 30.6386 139.961 30.605 137.866C30.5571 134.86 27.3832 133.083 24.8517 131.487C22.969 130.304 21.2325 128.901 19.6786 127.307C19.0278 126.693 18.4898 125.968 18.0892 125.167C17.5642 123.99 17.581 122.652 17.6098 121.365C17.72 117.071 17.931 112.783 18.2426 108.502" stroke="#3F3D56" stroke-width="4" stroke-miterlimit="10"/>
<path d="M13.4196 108.266C13.4557 107.48 13.6878 106.717 14.0946 106.045C14.5014 105.373 15.0698 104.816 15.7473 104.423L16.7925 106.501L16.7613 103.984C17.2599 103.838 17.7791 103.775 18.2979 103.799C19.2195 103.842 20.1076 104.16 20.8499 104.711C21.5922 105.262 22.1554 106.021 22.4682 106.894C22.781 107.767 22.8294 108.714 22.6072 109.614C22.3851 110.515 21.9024 111.329 21.2203 111.953C20.5381 112.578 19.687 112.985 18.7747 113.123C17.8624 113.262 16.9298 113.125 16.0949 112.73C15.2599 112.335 14.5601 111.701 14.0839 110.906C13.6077 110.111 13.3766 109.192 13.4196 108.266Z" fill="white"/>
<path d="M21.7379 140.023C22.2274 140.98 23.029 141.738 24.0083 142.17C24.9876 142.603 26.085 142.684 27.1166 142.399C28.1481 142.115 29.051 141.483 29.674 140.608C30.2969 139.734 30.6019 138.671 30.5378 137.597C30.4738 136.523 30.0446 135.504 29.3222 134.711C28.5998 133.918 27.6281 133.398 26.5702 133.24C25.5122 133.082 24.4323 133.294 23.5114 133.841C22.5906 134.388 21.8849 135.237 21.5126 136.246L24.4276 138.63L21.2153 137.878C21.2167 138.625 21.3959 139.36 21.7379 140.023Z" fill="white"/>
<path d="M24.0413 130.909C24.6533 130.938 25.2649 130.845 25.8413 130.636C26.4177 130.427 26.9475 130.106 27.4005 129.691C27.8535 129.277 28.2208 128.776 28.4814 128.218C28.7421 127.661 28.891 127.057 28.9196 126.442C28.9559 125.707 28.8178 124.974 28.5168 124.304C28.2382 123.677 27.8263 123.119 27.3103 122.67C26.7942 122.221 26.1865 121.89 25.5299 121.702L25.5563 123.631L24.4991 121.529C23.2632 121.471 22.0549 121.909 21.14 122.746C20.2252 123.584 19.6787 124.753 19.6208 125.996C19.563 127.239 19.9985 128.454 20.8315 129.374C21.6645 130.294 22.8269 130.843 24.0628 130.901L24.0413 130.909Z" fill="white"/>
<path d="M12.717 123.332C13.3362 123.373 13.9574 123.29 14.5443 123.087C15.1311 122.884 15.6718 122.566 16.1348 122.15C16.5977 121.734 16.9735 121.23 17.2403 120.667C17.5071 120.103 17.6594 119.492 17.6885 118.868C17.7175 118.245 17.6226 117.622 17.4093 117.036C17.196 116.45 16.8686 115.912 16.4463 115.455C16.024 114.998 15.5153 114.63 14.9498 114.373C14.3844 114.115 13.7736 113.974 13.1532 113.957C12.2854 113.917 11.4239 114.123 10.6673 114.553L11.492 116.823L9.78278 115.194C8.87358 116.027 8.32968 117.189 8.27014 118.424C8.24891 118.858 8.28927 119.293 8.39 119.716C8.622 120.71 9.16996 121.601 9.9508 122.253C10.7316 122.906 11.7028 123.285 12.717 123.332Z" fill="white"/>
<path opacity="0.1" d="M14.0474 109.517C15.1237 109.635 16.1689 109.972 17.25 110.04C18.3312 110.107 19.5178 109.847 20.201 109.001C20.5701 108.548 20.7523 107.972 21.064 107.475C21.3583 107.013 21.7618 106.631 22.2386 106.364C22.538 106.958 22.708 107.61 22.7373 108.276C22.7665 108.942 22.6543 109.606 22.4082 110.225C22.162 110.844 21.7875 111.403 21.3097 111.865C20.8319 112.327 20.2616 112.681 19.637 112.904C19.0123 113.127 18.3476 113.213 17.6872 113.158C17.0267 113.102 16.3856 112.906 15.8066 112.581C15.2275 112.257 14.7239 111.812 14.3292 111.277C13.9345 110.741 13.6578 110.127 13.5176 109.476C13.695 109.485 13.87 109.498 14.0474 109.517Z" fill="white"/>
<path opacity="0.1" d="M12.717 123.332C13.5209 123.369 14.3206 123.196 15.0386 122.831C15.7565 122.465 16.3684 121.919 16.8148 121.246C17.2613 120.573 17.5271 119.795 17.5866 118.988C17.646 118.181 17.4971 117.372 17.1542 116.64C16.7846 116.892 16.4665 117.213 16.2169 117.585C15.8837 118.089 15.6823 118.672 15.2916 119.135C14.5724 119.996 13.3235 120.275 12.1992 120.225C11.0749 120.174 9.98658 119.851 8.86469 119.743C8.70888 119.728 8.55066 119.719 8.38525 119.714C8.61702 120.709 9.1655 121.601 9.94734 122.254C10.7292 122.907 11.7017 123.285 12.717 123.332Z" fill="white"/>
<path opacity="0.1" d="M24.0414 130.909C24.6534 130.938 25.2651 130.845 25.8414 130.636C26.4178 130.427 26.9476 130.106 27.4006 129.691C27.8536 129.277 28.221 128.776 28.4816 128.219C28.7422 127.661 28.8911 127.057 28.9197 126.442C28.956 125.707 28.818 124.974 28.517 124.304C28.1324 124.561 27.7983 124.888 27.5318 125.268C27.1698 125.781 26.942 126.374 26.5177 126.849C25.7315 127.729 24.4082 128.04 23.2168 128.011C22.0613 127.987 20.949 127.703 19.8008 127.613C20.0854 128.534 20.6451 129.344 21.4039 129.934C22.1626 130.524 23.0836 130.864 24.0414 130.909Z" fill="white"/>
<path opacity="0.1" d="M21.7378 140.023C22.2806 141.096 23.2128 141.918 24.3414 142.319C25.47 142.72 26.7087 142.669 27.8012 142.178C28.8937 141.686 29.7565 140.791 30.211 139.677C30.6655 138.564 30.677 137.317 30.2431 136.195C29.859 136.449 29.5141 136.759 29.2195 137.114C28.776 137.658 28.4835 138.275 27.9705 138.782C27.0116 139.722 25.4774 140.11 24.1062 140.146C23.315 140.153 22.5241 140.112 21.7378 140.023Z" fill="white"/>
<path d="M161.451 126.464C161.456 125.879 161.324 125.302 161.067 124.778C160.809 124.254 160.434 123.797 159.97 123.445C159.912 121.235 158.344 119.429 156.328 119.15C156.173 118.399 155.823 117.702 155.315 117.13C154.806 116.558 154.157 116.13 153.433 115.891C153.256 115.834 153.076 115.792 152.893 115.763H152.84L152.747 115.751H152.668H152.589H152.486H152.423H152.253C150.196 115.751 148.485 117.332 148.132 119.417C146.802 119.109 145.582 119.509 145.364 120.355C145.307 120.579 145.32 120.815 145.4 121.032C145.625 121.688 146.358 122.315 147.353 122.626L147.483 122.664C147.547 122.684 147.612 122.698 147.677 122.713H147.72C147.354 123.497 147.302 124.392 147.575 125.214C147.848 126.036 148.424 126.72 149.185 127.126C149.155 127.143 149.126 127.161 149.098 127.182C148.976 127.295 148.878 127.433 148.811 127.587C148.57 128.011 148.384 128.464 148.255 128.934C148.159 129.337 148.142 129.759 148.015 130.157C147.797 130.88 147.236 131.514 147.171 132.283C147.142 132.625 147.197 133.028 146.955 133.261C146.895 133.314 146.831 133.361 146.764 133.404C146.594 133.52 146.45 133.672 146.342 133.847C146.271 133.993 146.176 134.125 146.061 134.238C145.843 134.404 145.483 134.387 145.376 134.643C145.268 134.898 145.546 135.2 145.481 135.479C145.428 135.706 145.181 135.809 145.002 135.961C144.801 136.181 144.66 136.449 144.594 136.74C144.236 136.809 143.867 136.799 143.514 136.708C143.16 136.618 142.831 136.45 142.549 136.217C142.646 136.465 142.717 136.723 142.76 136.986C142.475 136.68 142.005 136.591 141.658 136.431C141.209 136.225 140.809 135.926 140.483 135.554L141.111 135.467L138.33 131.224L137.51 131.056L138.246 132.476C138.186 132.505 138.133 132.547 138.092 132.6C138.05 132.652 138.021 132.714 138.007 132.779C137.967 132.937 137.957 133.1 137.978 133.261C138.017 133.642 138.08 134.02 138.167 134.392L138.381 135.39C138.399 135.484 138.422 135.576 138.45 135.667C138.172 135.657 137.894 135.689 137.625 135.761C137.074 135.556 136.5 135.419 135.916 135.354C135.788 135.331 135.656 135.338 135.53 135.373C135.388 135.439 135.264 135.54 135.171 135.667C134.691 136.225 134.266 136.827 133.9 137.466C132.407 140.079 130.412 142.359 128.545 144.722C127.255 145.249 125.956 145.751 124.654 146.247L121.857 147.32C121.298 147.535 120.718 147.754 120.123 147.716C119.855 147.699 119.529 147.658 119.378 147.887C119.304 148 119.247 148.124 119.208 148.253C119.109 148.253 119.011 148.277 118.92 148.282H118.903C118.726 147.838 118.573 147.364 118.232 147.041C118.164 147.051 118.099 147.079 118.044 147.121C117.988 147.163 117.944 147.218 117.916 147.282C117.849 147.407 117.808 147.544 117.731 147.66C117.58 147.882 117.319 147.99 117.132 148.178C116.945 148.366 116.827 148.66 116.626 148.844C116.344 149.05 116.014 149.179 115.667 149.217C115.148 149.34 114.648 149.532 114.178 149.786C114.005 149.893 113.82 149.979 113.627 150.042C113.415 150.083 113.197 150.09 112.982 150.063L111.501 149.955C111.369 149.938 111.235 149.943 111.105 149.972C110.953 150.028 110.823 150.134 110.736 150.272C110.649 150.41 110.611 150.573 110.626 150.736C110.644 150.898 110.695 151.054 110.775 151.195C110.855 151.336 110.964 151.458 111.093 151.556C111.35 151.745 111.635 151.894 111.937 151.997C113.224 152.498 114.552 152.889 115.904 153.166V153.467C116.842 153.942 117.877 154.19 118.927 154.19C119.005 154.197 119.082 154.182 119.153 154.149C119.25 154.076 119.317 153.97 119.342 153.851C119.656 152.905 119.855 151.925 119.934 150.931C120.119 150.919 120.301 150.873 120.469 150.794C120.979 150.654 121.485 151.006 122.01 151.064C122.657 151.134 123.259 150.755 123.87 150.521C123.959 150.488 124.048 150.459 124.136 150.43C123.962 150.657 123.756 150.857 123.525 151.025C123.271 151.209 122.986 151.344 122.736 151.534C122.529 151.724 122.307 151.898 122.072 152.052C121.907 152.13 121.736 152.196 121.562 152.25C121.309 152.343 121.067 152.465 120.843 152.614C120.641 152.733 120.471 152.898 120.344 153.096C120.28 153.188 120.241 153.295 120.23 153.407C120.219 153.519 120.237 153.632 120.282 153.735C120.327 153.838 120.397 153.927 120.486 153.995C120.575 154.063 120.679 154.107 120.79 154.123C120.99 154.159 121.195 154.164 121.396 154.14C122.197 154.08 122.995 154.005 123.794 153.933C124.132 153.91 124.467 153.862 124.798 153.788C124.973 153.744 125.146 153.687 125.321 153.641C125.619 153.562 125.925 153.516 126.234 153.503C126.324 153.496 126.414 153.505 126.5 153.53C126.687 153.59 126.819 153.771 127.008 153.819C127.131 153.831 127.255 153.814 127.37 153.769C127.955 153.641 128.551 153.577 129.149 153.578C129.41 153.564 129.717 153.513 129.839 153.27C129.988 152.968 129.739 152.631 129.64 152.305C129.59 152.098 129.563 151.887 129.559 151.674C129.513 151.149 129.363 150.638 129.118 150.172C128.987 149.955 128.877 149.725 128.789 149.487C129.935 149.049 131.031 148.49 132.059 147.819C132.649 147.45 133.258 147.053 133.924 146.918C134.701 146.761 135.502 146.968 136.266 147.19C138.088 147.72 139.879 148.348 141.634 149.073C142.473 149.417 143.312 149.784 144.17 150.037C144.421 150.377 144.724 150.675 145.069 150.919C145.644 151.293 146.346 151.401 147.022 151.454C147.936 151.538 148.853 151.573 149.77 151.558C150.47 151.546 151.191 151.498 151.817 151.177C151.97 151.098 152.114 151.003 152.246 150.893C152.725 150.98 153.217 150.722 153.593 150.391C154.091 149.965 154.45 149.398 154.624 148.764C154.845 147.894 154.674 146.879 155.206 146.168C155.348 145.977 155.533 145.823 155.672 145.63C155.843 145.372 155.927 145.065 155.911 144.755L155.935 144.719C156.056 144.439 156.136 144.144 156.175 143.842C156.238 143.605 156.318 143.374 156.415 143.15C156.685 142.477 156.92 141.791 157.119 141.094C157.258 140.631 157.367 140.16 157.445 139.683C157.503 139.302 157.537 138.919 157.568 138.536C157.606 137.936 157.722 137.344 157.913 136.774C158.386 135.414 158.654 133.99 158.706 132.55C158.706 132.521 158.706 132.495 158.706 132.466C159.402 132.389 160.045 132.054 160.508 131.526C160.971 130.998 161.222 130.316 161.211 129.612C161.212 129.187 161.124 128.768 160.953 128.38C161.283 127.796 161.455 127.135 161.451 126.464ZM147.895 143.027C147.936 143.174 147.984 143.321 148.032 143.468C147.811 143.249 147.593 143.022 147.37 142.805C147.459 142.832 147.547 142.861 147.634 142.892C147.726 142.929 147.814 142.974 147.897 143.027H147.895ZM146.821 142.304C145.512 141.161 143.997 140.274 142.657 139.17C143.376 139.534 144.095 139.956 144.815 140.361C145.652 140.843 146.499 141.304 147.356 141.744C147.215 141.959 147.036 142.145 146.828 142.294L146.821 142.304ZM147.38 139.425L147.442 139.36C147.442 139.522 147.442 139.674 147.442 139.811C147.324 139.773 147.202 139.734 147.09 139.691C147.193 139.606 147.291 139.514 147.382 139.416L147.38 139.425ZM135.856 142.521C136.395 141.908 136.864 141.236 137.254 140.517C137.772 141.431 138.615 142.089 139.335 142.853C138.179 142.689 137.021 142.562 135.859 142.511L135.856 142.521Z" fill="url(#paint0_linear)"/>
<path d="M137.727 131.408L138.554 131.576L141.37 135.761L140.126 135.93L137.727 131.408Z" fill="#2F2E41"/>
<path d="M117.698 148.393C117.921 149.135 118.196 149.86 118.52 150.562C119.453 150.366 120.371 150.103 121.267 149.774C121.094 149.503 120.903 149.243 120.697 148.996C120.476 148.749 120.213 148.546 119.92 148.395C119.635 148.27 119.282 148.364 118.978 148.381C118.551 148.397 118.124 148.401 117.698 148.393Z" fill="#FBBEBE"/>
<path d="M119.925 149.511C119.46 149.364 119.174 148.892 118.985 148.436C118.796 147.981 118.642 147.484 118.283 147.149C118.214 147.16 118.149 147.187 118.094 147.23C118.039 147.272 117.995 147.327 117.966 147.39C117.897 147.511 117.856 147.648 117.777 147.764C117.628 147.981 117.364 148.087 117.175 148.272C116.986 148.458 116.868 148.74 116.664 148.926C116.382 149.13 116.052 149.258 115.706 149.297C115.183 149.416 114.678 149.604 114.205 149.856C114.03 149.958 113.843 150.039 113.649 150.097C113.435 150.138 113.215 150.146 112.999 150.119L111.506 150.01C111.373 149.994 111.238 150 111.108 150.03C110.956 150.083 110.826 150.186 110.739 150.322C110.652 150.459 110.613 150.621 110.628 150.782C110.648 150.943 110.701 151.097 110.784 151.236C110.866 151.375 110.976 151.496 111.108 151.589C111.367 151.776 111.653 151.922 111.956 152.023C113.258 152.515 114.596 152.9 115.96 153.173V153.47C116.907 153.941 117.949 154.189 119.007 154.193C119.089 154.2 119.171 154.186 119.246 154.152C119.343 154.08 119.411 153.976 119.438 153.858C119.796 152.805 120.005 151.706 120.059 150.594C120.086 150.313 120.065 150.029 119.997 149.755C119.915 149.485 120.193 149.598 119.934 149.492" fill="#2F2E41"/>
<path d="M148.557 143.851C144.129 144.121 139.757 142.815 135.322 142.675C134.772 142.641 134.219 142.677 133.678 142.781C133.113 142.933 132.566 143.146 132.048 143.417C129.672 144.529 127.212 145.449 124.755 146.37L121.936 147.426C121.37 147.636 120.788 147.85 120.186 147.814C119.918 147.797 119.589 147.756 119.436 147.983C118.978 148.665 119.196 149.67 119.498 150.437C119.597 150.678 119.762 150.955 120.026 150.984C120.212 150.971 120.395 150.925 120.565 150.847C121.078 150.709 121.591 151.057 122.118 151.112C122.773 151.182 123.379 150.808 123.995 150.579C125.017 150.201 126.134 150.213 127.208 150.032C129.01 149.731 130.679 148.889 132.242 147.93C132.836 147.566 133.44 147.175 134.121 147.043C134.905 146.889 135.713 147.091 136.482 147.31C138.317 147.833 140.123 148.451 141.893 149.164C142.814 149.567 143.759 149.913 144.722 150.201C146.82 150.756 149.04 150.626 151.06 149.83C151.779 149.548 152.536 149.051 152.577 148.282C152.601 147.843 152.263 147.457 152.038 147.077C151.892 146.836 151.748 146.594 151.59 146.365C150.827 145.247 149.902 143.769 148.557 143.851Z" fill="#2F2E41"/>
<path opacity="0.1" d="M148.557 143.851C144.129 144.121 139.757 142.815 135.322 142.675C134.772 142.641 134.219 142.677 133.678 142.781C133.113 142.933 132.566 143.146 132.048 143.417C129.672 144.529 127.212 145.449 124.755 146.37L121.936 147.426C121.37 147.636 120.788 147.85 120.186 147.814C119.918 147.797 119.589 147.756 119.436 147.983C118.978 148.665 119.196 149.67 119.498 150.437C119.597 150.678 119.762 150.955 120.026 150.984C120.212 150.971 120.395 150.925 120.565 150.847C121.078 150.709 121.591 151.057 122.118 151.112C122.773 151.182 123.379 150.808 123.995 150.579C125.017 150.201 126.134 150.213 127.208 150.032C129.01 149.731 130.679 148.889 132.242 147.93C132.836 147.566 133.44 147.175 134.121 147.043C134.905 146.889 135.713 147.091 136.482 147.31C138.317 147.833 140.123 148.451 141.893 149.164C142.814 149.567 143.759 149.913 144.722 150.201C146.82 150.756 149.04 150.626 151.06 149.83C151.779 149.548 152.536 149.051 152.577 148.282C152.601 147.843 152.263 147.457 152.038 147.077C151.892 146.836 151.748 146.594 151.59 146.365C150.827 145.247 149.902 143.769 148.557 143.851Z" fill="white"/>
<path d="M126.196 148.61C126.889 148.846 127.588 149.065 128.291 149.266C128.686 148.612 129.425 148.159 129.593 147.414C129.602 147.382 129.602 147.348 129.593 147.315C129.574 147.284 129.547 147.258 129.514 147.243C129.008 146.963 128.447 146.798 127.871 146.761C127.416 146.732 127.21 147.209 127.004 147.544C126.932 147.679 126.38 148.673 126.196 148.61Z" fill="#FBBEBE"/>
<path d="M127.172 148.133C126.965 148.098 126.767 148.02 126.592 147.904C126.416 147.789 126.267 147.637 126.153 147.46C126.055 147.289 125.951 147.057 125.755 147.069C125.558 147.081 125.491 147.298 125.45 147.479C125.318 148.155 125.126 148.817 124.877 149.458C124.627 150.102 124.203 150.662 123.653 151.076C123.396 151.254 123.111 151.389 122.859 151.577C122.649 151.765 122.425 151.936 122.188 152.088C122.021 152.165 121.849 152.23 121.672 152.281C121.414 152.372 121.167 152.492 120.936 152.64C120.734 152.759 120.563 152.925 120.435 153.123C120.374 153.223 120.338 153.337 120.331 153.455C120.323 153.572 120.344 153.69 120.392 153.797C120.444 153.885 120.513 153.96 120.596 154.019C120.679 154.077 120.773 154.118 120.872 154.137C121.074 154.171 121.28 154.176 121.483 154.152C122.291 154.092 123.096 154.019 123.902 153.947C124.243 153.926 124.582 153.879 124.916 153.807C125.093 153.764 125.266 153.706 125.441 153.66C125.743 153.583 126.052 153.537 126.364 153.525C126.454 153.518 126.545 153.527 126.632 153.552C126.819 153.612 126.951 153.793 127.143 153.836C127.266 153.849 127.391 153.832 127.507 153.788C128.097 153.662 128.698 153.599 129.3 153.6C129.564 153.585 129.876 153.535 129.996 153.296C130.147 153 129.897 152.667 129.797 152.349C129.747 152.145 129.719 151.936 129.713 151.727C129.667 151.209 129.516 150.706 129.269 150.249C129.063 149.868 128.79 149.449 128.926 149.044C129 148.917 129.046 148.777 129.063 148.632C129.029 147.978 127.536 148.219 127.172 148.133Z" fill="#2F2E41"/>
<path d="M141.919 136.711C141.135 136.363 140.506 135.735 140.155 134.949C140.083 134.78 140.02 134.604 139.951 134.433C139.717 133.867 139.356 133.364 138.896 132.962C138.847 132.908 138.786 132.865 138.719 132.836C138.651 132.807 138.578 132.794 138.505 132.796C138.434 132.817 138.37 132.857 138.32 132.911C138.269 132.966 138.234 133.032 138.218 133.105C138.177 133.262 138.166 133.426 138.186 133.587C138.227 133.961 138.291 134.332 138.378 134.698L138.594 135.682C138.621 135.833 138.666 135.98 138.728 136.12C138.82 136.285 138.942 136.432 139.088 136.552C139.284 136.735 139.483 136.911 139.685 137.082C139.796 137.183 139.917 137.272 140.047 137.347C140.259 137.449 140.487 137.516 140.72 137.545C141.6 137.709 142.494 137.945 143.235 138.509C143.235 138.509 143.235 137.851 143.218 137.786C143.209 137.595 143.144 137.412 143.031 137.258C142.753 136.957 142.274 136.868 141.919 136.711Z" fill="#FBBEBE"/>
<path opacity="0.1" d="M141.919 136.711C141.135 136.363 140.506 135.735 140.155 134.949C140.083 134.78 140.02 134.604 139.951 134.433C139.717 133.867 139.356 133.364 138.896 132.962C138.847 132.908 138.786 132.865 138.719 132.836C138.651 132.807 138.578 132.794 138.505 132.796C138.434 132.817 138.37 132.857 138.32 132.911C138.269 132.966 138.234 133.032 138.218 133.105C138.177 133.262 138.166 133.426 138.186 133.587C138.227 133.961 138.291 134.332 138.378 134.698L138.594 135.682C138.621 135.833 138.666 135.98 138.728 136.12C138.82 136.285 138.942 136.432 139.088 136.552C139.284 136.735 139.483 136.911 139.685 137.082C139.796 137.183 139.917 137.272 140.047 137.347C140.259 137.449 140.487 137.516 140.72 137.545C141.6 137.709 142.494 137.945 143.235 138.509C143.235 138.509 143.235 137.851 143.218 137.786C143.209 137.595 143.144 137.412 143.031 137.258C142.753 136.957 142.274 136.868 141.919 136.711Z" fill="white"/>
<path d="M150.933 129.19C151.527 129.19 152.009 128.702 152.009 128.1C152.009 127.499 151.527 127.011 150.933 127.011C150.338 127.011 149.856 127.499 149.856 128.1C149.856 128.702 150.338 129.19 150.933 129.19Z" fill="#2F2E41"/>
<path d="M150.266 127.442C149.977 127.376 149.674 127.42 149.415 127.565C149.291 127.676 149.192 127.812 149.125 127.965C148.883 128.382 148.695 128.827 148.564 129.291C148.468 129.689 148.452 130.104 148.324 130.496C148.104 131.22 147.538 131.834 147.473 132.589C147.445 132.926 147.5 133.324 147.255 133.553C147.195 133.604 147.13 133.65 147.061 133.691C146.891 133.805 146.746 133.955 146.637 134.129C146.564 134.286 146.462 134.427 146.337 134.546C146.117 134.71 145.755 134.693 145.647 134.946C145.539 135.2 145.817 135.494 145.752 135.768C145.7 135.993 145.45 136.096 145.273 136.251C145.071 136.466 144.929 136.731 144.863 137.02C144.503 137.088 144.132 137.077 143.777 136.987C143.421 136.898 143.089 136.732 142.804 136.501C143.103 137.246 143.111 138.068 143.123 138.871C143.157 139.128 143.089 139.388 142.933 139.594C143.791 139.613 144.626 139.835 145.462 140.035C145.82 140.156 146.207 140.156 146.565 140.035C146.756 139.932 146.927 139.795 147.071 139.63C147.526 139.165 148.003 138.666 148.114 138.018C148.143 137.653 148.149 137.286 148.133 136.921C148.177 136.469 148.269 136.024 148.408 135.592C148.649 134.697 148.81 133.781 148.888 132.856C148.938 132.285 149.427 131.827 149.686 131.316C150.166 130.352 150.669 129.351 150.707 128.271C150.741 127.92 150.621 127.488 150.266 127.442Z" fill="#2F2E41"/>
<path opacity="0.1" d="M150.266 127.442C149.977 127.376 149.674 127.42 149.415 127.565C149.291 127.676 149.192 127.812 149.125 127.965C148.883 128.382 148.695 128.827 148.564 129.291C148.468 129.689 148.452 130.104 148.324 130.496C148.104 131.22 147.538 131.834 147.473 132.589C147.445 132.926 147.5 133.324 147.255 133.553C147.195 133.604 147.13 133.65 147.061 133.691C146.891 133.805 146.746 133.955 146.637 134.129C146.564 134.286 146.462 134.427 146.337 134.546C146.117 134.71 145.755 134.693 145.647 134.946C145.539 135.2 145.817 135.494 145.752 135.768C145.7 135.993 145.45 136.096 145.273 136.251C145.071 136.466 144.929 136.731 144.863 137.02C144.503 137.088 144.132 137.077 143.777 136.987C143.421 136.898 143.089 136.732 142.804 136.501C143.103 137.246 143.111 138.068 143.123 138.871C143.157 139.128 143.089 139.388 142.933 139.594C143.791 139.613 144.626 139.835 145.462 140.035C145.82 140.156 146.207 140.156 146.565 140.035C146.756 139.932 146.927 139.795 147.071 139.63C147.526 139.165 148.003 138.666 148.114 138.018C148.143 137.653 148.149 137.286 148.133 136.921C148.177 136.469 148.269 136.024 148.408 135.592C148.649 134.697 148.81 133.781 148.888 132.856C148.938 132.285 149.427 131.827 149.686 131.316C150.166 130.352 150.669 129.351 150.707 128.271C150.741 127.92 150.621 127.488 150.266 127.442Z" fill="white"/>
<path d="M149.259 144.789C148.336 144.348 147.663 143.526 146.917 142.822C145.493 141.477 143.753 140.527 142.257 139.266C141.267 138.432 140.38 137.461 139.289 136.762C138.33 136.146 137.242 135.763 136.11 135.641C135.981 135.618 135.848 135.625 135.722 135.66C135.579 135.724 135.455 135.824 135.36 135.949C134.877 136.497 134.447 137.09 134.078 137.721C132.181 140.956 129.489 143.678 127.258 146.689C127.186 146.759 127.144 146.855 127.139 146.956C127.134 147.057 127.167 147.156 127.231 147.233L127.684 148.128C127.938 148.627 128.346 149.21 128.883 149.111C129.129 149.04 129.35 148.898 129.518 148.704L131.556 146.744L133.692 144.69C134.943 143.485 136.216 142.255 137.033 140.717C137.671 141.829 138.802 142.557 139.579 143.576C139.874 143.962 140.114 144.389 140.377 144.799C140.802 145.457 141.281 146.074 141.761 146.689L144.213 149.834C144.522 150.282 144.906 150.674 145.347 150.991C145.927 151.36 146.634 151.459 147.317 151.519C148.238 151.604 149.162 151.638 150.086 151.621C150.791 151.609 151.524 151.563 152.148 151.247C152.771 150.931 153.301 150.283 153.267 149.576C153.229 149.206 153.109 148.85 152.915 148.533C152.049 146.918 150.904 145.568 149.259 144.789Z" fill="#2F2E41"/>
<path d="M151.594 129.691C152.051 129.691 152.421 129.317 152.421 128.855C152.421 128.393 152.051 128.018 151.594 128.018C151.137 128.018 150.767 128.393 150.767 128.855C150.767 129.317 151.137 129.691 151.594 129.691Z" fill="#E8E8F0"/>
<path d="M151.412 128.226C151.599 128.6 151.632 129.033 151.503 129.431C151.375 129.823 151.196 130.196 150.971 130.54C150.777 130.895 150.545 131.229 150.278 131.533C151.556 131.596 152.795 131.092 153.922 130.48C154.831 129.997 155.737 129.383 156.221 128.464C156.077 128.499 155.927 128.503 155.781 128.476C155.636 128.449 155.497 128.392 155.375 128.308C155.131 128.137 154.912 127.932 154.725 127.7L154.085 126.977C153.934 126.818 153.801 126.643 153.69 126.454C153.549 126.197 153.49 125.904 153.519 125.613C153.265 125.881 152.98 126.119 152.671 126.321C152.213 126.623 151.712 126.84 151.249 127.136C151.086 127.242 150.724 127.413 150.818 127.618C150.911 127.823 151.283 127.994 151.412 128.226Z" fill="#FBBEBE"/>
<path opacity="0.1" d="M151.412 128.226C151.599 128.6 151.632 129.033 151.503 129.431C151.375 129.823 151.196 130.196 150.971 130.54C150.777 130.895 150.545 131.229 150.278 131.533C151.556 131.596 152.795 131.092 153.922 130.48C154.831 129.997 155.737 129.383 156.221 128.464C156.077 128.499 155.927 128.503 155.781 128.476C155.636 128.449 155.497 128.392 155.375 128.308C155.131 128.137 154.912 127.932 154.725 127.7L154.085 126.977C153.934 126.818 153.801 126.643 153.69 126.454C153.549 126.197 153.49 125.904 153.519 125.613C153.265 125.881 152.98 126.119 152.671 126.321C152.213 126.623 151.712 126.84 151.249 127.136C151.086 127.242 150.724 127.413 150.818 127.618C150.911 127.823 151.283 127.994 151.412 128.226Z" fill="white"/>
<path d="M151.429 128.351C151.3 128.535 151.23 128.754 151.23 128.979C151.23 129.204 151.3 129.423 151.429 129.607C151.465 129.653 151.601 129.94 151.668 129.942C151.725 129.937 151.777 129.91 151.815 129.867C152.104 129.563 152.375 129.241 152.625 128.903C152.878 128.561 153.243 128.32 153.656 128.223C154.157 128.144 154.639 128.411 155.077 128.667C155.266 128.761 155.43 128.898 155.557 129.067C155.649 129.235 155.704 129.421 155.717 129.612C155.843 130.761 155.891 131.918 155.861 133.073C155.884 133.907 155.83 134.74 155.698 135.564C155.617 135.988 155.494 136.402 155.437 136.832C155.395 137.209 155.378 137.589 155.387 137.969V139.56C155.376 139.852 155.397 140.144 155.449 140.431C155.548 140.773 155.664 141.11 155.796 141.441C155.913 141.834 155.993 142.238 156.036 142.646L156.252 144.292C156.321 144.813 156.372 145.38 156.058 145.797C155.919 145.987 155.732 146.136 155.578 146.325C155.039 147.014 155.219 148.014 154.979 148.87C154.802 149.498 154.439 150.057 153.939 150.473C153.557 150.799 153.064 151.057 152.57 150.955C151.906 150.83 151.505 150.133 151.323 149.475C151.141 148.817 151.084 148.099 150.683 147.547C150.362 147.091 149.866 146.807 149.417 146.481C148.969 146.156 148.528 145.739 148.43 145.189C148.387 144.948 148.413 144.707 148.389 144.466C148.353 144.159 148.236 143.867 148.05 143.621C147.863 143.375 147.615 143.184 147.329 143.068C146.989 142.935 146.567 142.887 146.371 142.586C146.859 142.277 147.214 141.797 147.368 141.238C147.517 140.688 147.597 140.121 147.608 139.551L147.723 137.637C147.773 136.781 147.797 135.932 148.171 135.163C148.339 134.821 148.547 134.498 148.72 134.158C148.951 133.681 149.148 133.188 149.31 132.683C149.58 131.899 149.854 131.114 150.096 130.32C150.193 129.936 150.338 129.566 150.527 129.219C150.75 128.857 151.045 128.423 151.429 128.351Z" fill="#E8E8F0"/>
<path d="M147.202 140.787L147.706 140.804L147.814 140.04C147.828 139.887 147.863 139.737 147.919 139.594C148.003 139.443 148.1 139.301 148.209 139.167C148.705 138.464 148.669 137.528 148.792 136.672C148.955 135.532 149.429 134.462 149.899 133.411L150.877 131.22C150.964 131.04 151.034 130.851 151.086 130.658C151.129 130.445 151.149 130.227 151.146 130.01C151.146 129.672 151.256 128.44 151.263 128.1C151.263 127.975 150.99 128.045 150.932 127.934C150.81 127.693 150.642 128.349 150.412 128.493C150.195 128.66 150.037 128.892 149.962 129.156C149.751 129.708 149.621 130.289 149.425 130.844C149.252 131.411 148.938 131.925 148.511 132.336C148.312 132.514 148.08 132.654 147.89 132.842C147.281 133.447 147.224 134.402 147.202 135.253C147.188 135.781 147.09 140.787 147.202 140.787Z" fill="#2F2E41"/>
<path d="M154.454 127.437C153.975 127.63 153.697 128.161 153.56 128.676C153.423 129.192 153.366 129.737 153.102 130.195C152.488 131.27 150.923 131.584 150.489 132.746C150.379 133.138 150.32 133.543 150.314 133.951C150.238 134.783 149.964 135.588 149.883 136.419C149.84 137.066 149.856 137.716 149.928 138.36L150.477 144.924C150.584 145.891 150.528 146.869 150.312 147.817C150.875 147.898 151.449 147.803 151.956 147.544C152.472 147.303 152.942 146.985 153.435 146.71C154.286 146.228 155.226 145.903 155.969 145.264C156.104 145.158 156.22 145.03 156.312 144.885C156.431 144.609 156.512 144.318 156.552 144.02C156.615 143.788 156.695 143.561 156.791 143.34C157.067 142.679 157.307 142.003 157.511 141.315C157.65 140.859 157.76 140.395 157.839 139.924C157.899 139.551 157.93 139.172 157.964 138.796C158.002 138.205 158.119 137.621 158.311 137.061C158.787 135.724 159.056 134.321 159.109 132.902C159.126 132.697 159.112 132.491 159.069 132.29C158.986 132.046 158.875 131.813 158.738 131.596C158.51 131.164 158.374 130.689 158.158 130.253C157.678 129.265 156.818 128.515 155.919 127.886C155.459 127.58 154.953 127.247 154.454 127.437Z" fill="#2F2E41"/>
<path d="M143.01 138.148C142.621 137.943 142.268 137.674 141.967 137.352C141.83 137.191 141.727 137.01 141.579 136.851C141.227 136.473 140.77 136.211 140.268 136.099C139.769 135.988 139.258 135.939 138.748 135.952C138.407 135.928 138.064 135.97 137.738 136.075C137.575 136.128 137.428 136.223 137.31 136.349C137.193 136.476 137.109 136.63 137.067 136.798C136.993 137.208 137.259 137.605 137.578 137.866C137.874 138.109 138.223 138.28 138.597 138.365C138.901 138.418 139.209 138.454 139.517 138.473C141.329 138.664 142.948 139.654 144.535 140.558C145.93 141.351 147.352 142.092 148.802 142.783C148.859 142.347 148.883 141.907 148.873 141.467C148.873 141.139 148.85 140.638 148.54 140.445C148.181 140.218 147.581 140.168 147.183 140.033C146.249 139.726 145.337 139.356 144.453 138.924C143.952 138.68 143.473 138.423 143.01 138.148Z" fill="#FBBEBE"/>
<path d="M150.933 127.852C152.716 127.852 154.162 126.39 154.162 124.586C154.162 122.782 152.716 121.319 150.933 121.319C149.149 121.319 147.704 122.782 147.704 124.586C147.704 126.39 149.149 127.852 150.933 127.852Z" fill="#FBBEBE"/>
<path d="M155.377 131.14C155.12 131.503 154.91 131.898 154.751 132.314C154.351 133.141 153.725 133.85 153.414 134.725C153.083 135.633 153.095 136.716 152.455 137.432C152.326 137.54 152.229 137.682 152.174 137.842C152.17 137.941 152.159 138.04 152.141 138.138C152.05 138.398 151.625 138.41 151.546 138.676C151.525 138.753 151.546 138.837 151.508 138.917C151.443 139.088 151.22 139.112 151.069 139.216C150.755 139.43 150.829 139.927 150.59 140.235C150.492 140.35 150.366 140.437 150.225 140.486C150.084 140.536 149.931 140.548 149.784 140.52C149.49 140.458 149.207 140.351 148.945 140.204C148.853 140.152 148.751 140.12 148.646 140.11C148.52 140.113 148.399 140.154 148.298 140.228C147.701 140.609 147.421 141.366 147.425 142.079C147.467 142.793 147.635 143.493 147.922 144.148C147.955 144.261 148.012 144.366 148.087 144.456C148.284 144.666 148.629 144.632 148.892 144.514C149.139 144.367 149.402 144.249 149.676 144.162C150.175 144.071 150.664 144.418 151.17 144.389C151.54 144.332 151.888 144.178 152.179 143.94C152.692 143.627 153.152 143.232 153.541 142.771C153.761 142.48 153.924 142.147 154.118 141.836C154.366 141.454 154.639 141.088 154.933 140.742L156.796 138.449C156.983 138.232 157.151 137.999 157.297 137.752C157.465 137.419 157.596 137.068 157.688 136.706C157.887 136.102 158.017 135.477 158.074 134.843C158.083 134.318 158.037 133.793 157.937 133.278C157.875 132.766 157.74 132.265 157.537 131.791C157.122 130.947 156.137 130.248 155.377 131.14Z" fill="#2F2E41"/>
<path d="M161.864 126.885C161.866 126.306 161.732 125.735 161.472 125.218C161.212 124.701 160.833 124.254 160.368 123.913C160.354 122.885 159.977 121.895 159.305 121.12C158.633 120.346 157.709 119.836 156.698 119.682C156.502 118.708 155.971 117.835 155.198 117.216C154.425 116.598 153.46 116.273 152.472 116.3C151.485 116.327 150.538 116.703 149.799 117.363C149.061 118.023 148.577 118.923 148.434 119.907C147.092 119.603 145.865 119.998 145.642 120.83C145.402 121.7 146.361 122.717 147.78 123.103C148.225 123.229 148.688 123.276 149.149 123.24C149.479 123.728 149.906 124.14 150.404 124.452C150.902 124.763 151.459 124.966 152.04 125.048C152.21 125.835 152.596 126.558 153.153 127.135C153.71 127.713 154.416 128.124 155.192 128.32C155.407 128.841 155.74 129.305 156.165 129.674C156.165 129.776 156.149 129.879 156.149 129.985C156.133 130.356 156.192 130.726 156.323 131.073C156.453 131.42 156.652 131.737 156.907 132.004C157.163 132.272 157.469 132.485 157.808 132.63C158.148 132.776 158.513 132.851 158.881 132.851C159.25 132.851 159.615 132.776 159.955 132.63C160.294 132.485 160.6 132.272 160.856 132.004C161.111 131.737 161.31 131.42 161.44 131.073C161.57 130.726 161.63 130.356 161.614 129.985C161.614 129.569 161.525 129.158 161.353 128.78C161.69 128.206 161.866 127.552 161.864 126.885Z" fill="#F86D70"/>
<path opacity="0.1" d="M146.553 120.996C146.776 120.165 147.991 119.769 149.346 120.073C149.503 119.075 150.007 118.164 150.767 117.503C151.527 116.841 152.495 116.471 153.5 116.457C153.594 116.457 153.687 116.457 153.778 116.457C153.39 116.338 152.986 116.278 152.58 116.279C151.574 116.292 150.606 116.663 149.846 117.324C149.086 117.986 148.583 118.896 148.425 119.895C147.083 119.591 145.855 119.986 145.632 120.818C145.393 121.688 146.352 122.705 147.771 123.091C148.035 123.165 148.305 123.211 148.579 123.231C147.231 122.836 146.325 121.847 146.553 120.996Z" fill="white"/>
<path opacity="0.1" d="M157.06 130.154C157.06 130.048 157.06 129.944 157.076 129.841C156.651 129.473 156.318 129.01 156.103 128.488C155.328 128.29 154.622 127.879 154.065 127.301C153.509 126.723 153.123 126.001 152.951 125.215C152.37 125.133 151.813 124.93 151.315 124.619C150.817 124.307 150.39 123.894 150.06 123.407C149.791 123.428 149.521 123.421 149.254 123.385C149.586 123.834 150.003 124.213 150.481 124.498C150.959 124.784 151.489 124.971 152.04 125.048C152.21 125.835 152.596 126.558 153.153 127.136C153.71 127.713 154.416 128.124 155.192 128.32C155.407 128.841 155.74 129.305 156.166 129.674C156.166 129.776 156.149 129.879 156.149 129.985C156.137 130.724 156.416 131.438 156.925 131.971C157.434 132.504 158.132 132.813 158.867 132.83C158.331 132.622 157.87 132.254 157.548 131.776C157.225 131.298 157.054 130.732 157.06 130.154Z" fill="white"/>
<path d="M152.41 125.782C152.629 125.615 152.627 125.241 152.405 124.947C152.183 124.654 151.826 124.551 151.607 124.719C151.387 124.886 151.389 125.26 151.611 125.554C151.833 125.848 152.191 125.95 152.41 125.782Z" fill="#FBBEBE"/>
<path d="M75.2241 142.036L78.4171 140.149C77.9856 139.407 77.4338 138.743 76.7846 138.184L70.7629 140.067L75.4806 137.278C74.3123 136.634 72.9977 136.308 71.6659 136.331C70.3342 136.353 69.0313 136.724 67.8854 137.407C66.7396 138.09 65.7903 139.061 65.1309 140.225C64.4716 141.388 64.1249 142.705 64.125 144.044C64.125 148.304 67.5602 148.451 71.7961 148.451C76.0319 148.451 79.4671 148.304 79.4671 144.044C79.4696 142.964 79.245 141.897 78.8079 140.91L75.2241 142.036Z" fill="white"/>
<path opacity="0.1" d="M76.0367 146.178C75.6966 145.835 75.3167 145.535 74.9052 145.283C74.3275 144.895 73.7258 144.5 73.0426 144.37C72.4433 144.254 71.8248 144.353 71.2135 144.317C70.1521 144.251 69.1529 143.791 68.4112 143.024C67.9749 142.571 67.6321 142.014 67.1071 141.667C66.5204 141.317 65.828 141.189 65.1558 141.308C64.961 141.335 64.768 141.375 64.5781 141.426C64.2776 142.266 64.1243 143.152 64.125 144.044C64.125 148.304 67.5602 148.451 71.796 148.451C73.8528 148.451 75.7179 148.417 77.0962 147.894L76.8565 147.462C76.6388 147.001 76.3633 146.569 76.0367 146.178Z" fill="white"/>
</g>
<defs>
<linearGradient id="paint0_linear" x1="136.041" y1="154.193" x2="136.041" y2="115.71" gradientUnits="userSpaceOnUse">
<stop stop-color="#808080" stop-opacity="0.25"/>
<stop offset="0.54" stop-color="#808080" stop-opacity="0.12"/>
<stop offset="1" stop-color="#808080" stop-opacity="0.1"/>
</linearGradient>
<clipPath id="clip0">
<rect width="274" height="160" fill="white"/>
</clipPath>
</defs>
</svg>
