<svg width="218" height="175" viewBox="0 0 218 175" fill="none" xmlns="http://www.w3.org/2000/svg">
<path d="M110.294 175C169.778 175 218 171.246 218 166.616C218 161.986 169.778 158.232 110.294 158.232C50.8102 158.232 2.58887 161.986 2.58887 166.616C2.58887 171.246 50.8102 175 110.294 175Z" fill="#3F3D56"/>
<path d="M201.784 151.041L202.794 158.417L195.728 159.087L196.737 150.035L201.784 151.041Z" fill="#A0616A"/>
<path d="M168.471 49.7881C168.471 49.7881 169.144 58.8405 169.144 59.1758C169.144 59.511 164.433 82.6449 164.433 82.6449C164.433 82.6449 157.704 95.3853 164.433 95.0501C171.163 94.7148 169.144 82.9802 169.144 82.9802L176.211 63.5343L173.182 49.7881L168.471 49.7881Z" fill="#A0616A"/>
<path d="M179.576 151.041L178.566 158.417L185.633 159.087L184.623 150.035L179.576 151.041Z" fill="#A0616A"/>
<path d="M171.836 81.9745L170.154 84.3214C170.154 84.3214 169.144 94.3796 170.154 97.7323C171.163 101.085 173.182 116.508 173.182 117.513C173.182 118.519 173.519 119.19 173.182 119.525C172.846 119.86 171.836 119.86 172.509 120.531C173.182 121.201 173.182 123.213 173.182 123.213V124.889L177.557 149.7C177.557 149.7 174.865 152.717 176.884 152.717C178.903 152.717 186.305 152.717 185.969 149.364L185.296 149.029C185.296 149.029 184.286 126.901 184.623 125.895C184.959 124.889 184.623 122.878 184.623 122.878C184.623 122.878 183.95 121.872 184.623 121.537C185.296 121.201 185.296 118.519 185.296 118.519L188.324 98.0676C188.324 98.0676 191.016 111.814 192.699 113.155C194.381 114.496 194.045 117.849 194.045 117.849L195.391 147.353C195.391 147.353 194.045 150.706 195.391 151.376C196.737 152.047 202.457 154.394 202.794 151.041C203.13 147.688 204.813 118.519 204.813 117.178C204.813 115.837 204.476 115.167 204.813 114.161C205.149 113.155 204.476 113.155 204.813 113.155C205.149 113.155 204.14 112.149 204.14 111.479V95.0501C204.14 95.0501 204.476 91.6974 204.813 91.0269C205.149 90.3563 204.476 89.6858 204.813 88.6799C205.149 87.6741 204.14 84.3214 204.14 84.3214L188.997 80.2981L171.836 81.9745Z" fill="#2F2E41"/>
<path d="M183.614 157.076C183.614 157.076 185.296 155.399 182.941 155.399C181.428 155.43 179.939 155.773 178.566 156.405L176.884 162.44C176.884 162.44 169.986 167.972 177.725 167.302C185.464 166.631 184.287 167.134 184.287 167.134C184.287 167.134 186.642 166.463 186.979 165.793C187.315 165.122 186.306 155.399 186.306 155.399C186.306 155.399 185.296 158.082 183.614 157.076Z" fill="#2F2E41"/>
<path d="M198.083 157.076C198.083 157.076 196.401 155.399 198.756 155.399C200.268 155.43 201.758 155.773 203.131 156.405L204.813 162.44C204.813 162.44 211.711 167.972 203.972 167.302C196.232 166.631 196.401 167.134 196.401 167.134C196.401 167.134 194.045 166.463 193.709 165.793C193.372 165.122 195.391 155.399 195.391 155.399C195.391 155.399 196.401 158.082 198.083 157.076Z" fill="#2F2E41"/>
<path d="M176.211 23.3017C181.043 23.3017 184.96 19.3989 184.96 14.5846C184.96 9.77022 181.043 5.86743 176.211 5.86743C171.379 5.86743 167.462 9.77022 167.462 14.5846C167.462 19.3989 171.379 23.3017 176.211 23.3017Z" fill="#A0616A"/>
<path d="M173.182 20.9545C173.182 20.9545 174.528 27.66 174.528 28.6658C174.528 29.6717 180.248 32.6891 180.248 32.6891L186.642 24.6425C186.642 24.6425 182.604 18.9429 182.604 17.6018L173.182 20.9545Z" fill="#A0616A"/>
<path d="M178.23 29.6719C178.23 29.6719 175.297 28.8941 174.408 27.6066C174.408 27.6066 165.106 36.7126 165.106 38.389L172.509 51.4647C172.509 51.4647 172.509 56.1585 173.182 56.4938C173.855 56.829 173.182 56.4938 173.182 57.8349C173.182 59.176 171.163 67.8931 171.836 69.2342C172.509 70.5753 173.182 69.5695 172.509 71.5811C171.836 73.5927 170.154 84.3215 170.154 84.3215C170.154 84.3215 176.211 82.3099 184.96 85.6626C193.708 89.0153 204.14 84.3215 204.14 84.3215C204.14 84.3215 201.448 78.2866 202.121 76.2749C202.794 74.2633 200.438 70.5753 200.438 70.5753L198.756 39.7301C198.756 39.7301 201.111 25.9838 199.429 25.3133L196.064 23.9722L185.288 22.6526C185.288 22.6526 182.604 29.3366 178.23 29.6719Z" fill="#D0CDE1"/>
<path d="M168.471 36.042L165.106 38.3889C165.106 38.3889 163.424 43.418 165.106 45.7649C166.789 48.1119 167.462 51.4646 167.462 51.4646L174.191 50.794L168.471 36.042Z" fill="#D0CDE1"/>
<path d="M169.531 5.37191L168.014 4.76655C168.014 4.76655 171.187 1.28577 175.602 1.58846L174.36 0.226396C174.36 0.226396 177.395 -0.984299 180.154 2.19379C181.605 3.86445 183.283 5.82821 184.329 8.04037H185.954L185.276 9.52853L187.65 11.0167L185.213 10.7494C185.444 12.0341 185.365 13.3552 184.983 14.6035L185.048 15.7798C185.048 15.7798 182.224 11.4254 182.224 10.8201V12.3335C182.224 12.3335 180.706 10.9714 180.706 10.0634L179.878 11.1228L179.464 9.45803L174.36 11.1228L175.188 9.76072L172.014 10.2147L173.256 8.55001C173.256 8.55001 169.669 10.5174 169.531 12.1821C169.393 13.8469 167.6 15.9656 167.6 15.9656L166.772 14.4522C166.772 14.4522 165.53 7.64197 169.531 5.37191Z" fill="#2F2E41"/>
<path d="M171.56 72.9619H37.8442V166.553H171.56V72.9619Z" fill="#F2F2F2"/>
<path d="M82.6751 108.671H49.1006V167.068H82.6751V108.671Z" fill="#3F3D56"/>
<path d="M64.3546 112.174H55.3105V120.575H64.3546V112.174Z" fill="#F2F2F2"/>
<path d="M76.465 112.174H67.4209V120.575H76.465V112.174Z" fill="#F2F2F2"/>
<path d="M64.3546 123.629H55.3105V132.335H64.3546V123.629Z" fill="#F2F2F2"/>
<path d="M76.465 123.629H67.4209V132.335H76.465V123.629Z" fill="#F2F2F2"/>
<path d="M78.4058 143.928C79.5848 143.928 80.5406 142.976 80.5406 141.801C80.5406 140.626 79.5848 139.674 78.4058 139.674C77.2268 139.674 76.271 140.626 76.271 141.801C76.271 142.976 77.2268 143.928 78.4058 143.928Z" fill="white"/>
<path d="M160.304 103.127H93.9312V158.624H160.304V103.127Z" fill="#3F3D56"/>
<path d="M185.533 90.5816H23.8706L34.6494 68.1275L37.0617 63.0999L40.2175 56.5253L42.6297 51.4978L45.4262 45.6736H172.796L174.448 51.4978L175.874 56.5253L177.739 63.0999L179.166 68.1275L185.533 90.5816Z" fill="#3F3D56"/>
<path d="M98.5891 126.138H96.2603V140.448H98.5891V126.138Z" fill="white"/>
<path d="M98.5891 128.265H96.2603V130.006H98.5891V128.265Z" fill="#F2F2F2"/>
<path d="M98.5891 136.58H96.2603V138.321H98.5891V136.58Z" fill="#F2F2F2"/>
<path d="M105.382 126.138H99.7534V140.448H105.382V126.138Z" fill="white"/>
<path d="M105.382 128.265H99.7534V130.006H105.382V128.265Z" fill="#F2F2F2"/>
<path d="M105.382 136.58H99.7534V138.321H105.382V136.58Z" fill="#F2F2F2"/>
<path d="M109.069 126.138H106.74V140.448H109.069V126.138Z" fill="white"/>
<path d="M109.069 128.265H106.74V130.006H109.069V128.265Z" fill="#F2F2F2"/>
<path d="M109.069 136.58H106.74V138.321H109.069V136.58Z" fill="#F2F2F2"/>
<path d="M112.562 126.138H110.233V140.448H112.562V126.138Z" fill="white"/>
<path d="M112.562 128.265H110.233V130.006H112.562V128.265Z" fill="#F2F2F2"/>
<path d="M112.562 136.58H110.233V138.321H112.562V136.58Z" fill="#F2F2F2"/>
<path d="M114.806 126.189L112.627 127.008L117.693 140.397L119.872 139.579L114.806 126.189Z" fill="white"/>
<path d="M115.56 128.179L113.38 128.998L113.996 130.626L116.176 129.808L115.56 128.179Z" fill="#F2F2F2"/>
<path d="M118.503 135.96L116.324 136.778L116.94 138.407L119.119 137.588L118.503 135.96Z" fill="#F2F2F2"/>
<path d="M158.169 126.138H152.541V140.448H158.169V126.138Z" fill="white"/>
<path d="M158.169 128.265H152.541V130.006H158.169V128.265Z" fill="#F2F2F2"/>
<path d="M158.169 136.58H152.541V138.321H158.169V136.58Z" fill="#F2F2F2"/>
<path d="M151.183 126.138H148.854V140.448H151.183V126.138Z" fill="white"/>
<path d="M151.183 128.265H148.854V130.006H151.183V128.265Z" fill="#F2F2F2"/>
<path d="M151.183 136.58H148.854V138.321H151.183V136.58Z" fill="#F2F2F2"/>
<path d="M147.689 126.138H145.36V140.448H147.689V126.138Z" fill="white"/>
<path d="M147.689 128.265H145.36V130.006H147.689V128.265Z" fill="#F2F2F2"/>
<path d="M147.689 136.58H145.36V138.321H147.689V136.58Z" fill="#F2F2F2"/>
<path d="M143.116 126.189L138.051 139.579L140.23 140.397L145.296 127.007L143.116 126.189Z" fill="white"/>
<path d="M142.363 128.179L141.747 129.808L143.926 130.626L144.542 128.998L142.363 128.179Z" fill="#F2F2F2"/>
<path d="M139.42 135.96L138.804 137.588L140.983 138.407L141.599 136.778L139.42 135.96Z" fill="#F2F2F2"/>
<path d="M160.304 140.448H93.9312V141.801H160.304V140.448Z" fill="#F2F2F2"/>
<path d="M135.075 126.138H122.848V140.448H135.075V126.138Z" fill="white"/>
<path d="M132.067 129.232H125.856V131.939H132.067V129.232Z" fill="#F2F2F2"/>
<path d="M127.7 103.127H126.536V115.503H127.7V103.127Z" fill="#F2F2F2"/>
<path d="M127.118 117.437C128.19 117.437 129.059 116.571 129.059 115.503C129.059 114.435 128.19 113.569 127.118 113.569C126.046 113.569 125.177 114.435 125.177 115.503C125.177 116.571 126.046 117.437 127.118 117.437Z" fill="#F2F2F2"/>
<path d="M175.874 56.5254H40.2178L42.63 51.4978H174.448L175.874 56.5254Z" fill="white"/>
<path d="M179.166 68.1274H34.6499L37.0621 63.0999H177.74L179.166 68.1274Z" fill="white"/>
<path d="M193.372 39.0593C193.372 39.0593 191.423 44.0518 191.83 48.9914C191.904 49.8758 192.203 50.7268 192.699 51.4645L168.826 62.7569C168.826 62.7569 158.04 63.8696 160.732 68.5634C163.424 73.2573 173.182 66.2165 173.182 66.2165C173.182 66.2165 198.755 62.5285 200.774 58.8405C202.793 55.1525 204.139 39.7299 204.139 39.7299L193.372 39.0593Z" fill="#A0616A"/>
<path d="M194.381 25.3132H199.429C199.429 25.3132 203.13 25.9838 204.14 32.6893C205.149 39.3947 206.159 41.0711 205.149 41.0711C204.14 41.0711 192.026 40.7358 192.026 40.4006C192.026 40.0653 194.381 25.3132 194.381 25.3132Z" fill="#D0CDE1"/>
<path d="M25.8907 125.47C40.1898 125.47 51.7815 113.92 51.7815 99.6731C51.7815 85.4259 40.1898 73.8762 25.8907 73.8762C11.5917 73.8762 0 85.4259 0 99.6731C0 113.92 11.5917 125.47 25.8907 125.47Z" fill="white"/>
<path opacity="0.1" d="M25.8905 121.858C38.1877 121.858 48.1566 111.926 48.1566 99.6731C48.1566 87.4205 38.1877 77.4878 25.8905 77.4878C13.5934 77.4878 3.62451 87.4205 3.62451 99.6731C3.62451 111.926 13.5934 121.858 25.8905 121.858Z" fill="black"/>
<path d="M24.8239 112.764V109.535C23.1857 109.504 21.491 108.928 20.5024 108.129L21.1803 105.987C22.355 106.864 23.7796 107.345 25.2475 107.361C27.253 107.361 28.6088 106.051 28.6088 104.228C28.6088 102.47 27.5072 101.383 25.417 100.424C22.536 99.145 20.7566 97.6742 20.7566 94.8929C20.7566 92.2393 22.4231 90.2251 25.0217 89.7456V86.5166H26.7728V89.6178C28.0786 89.6355 29.3523 90.0237 30.4447 90.7367L29.7385 92.8468C28.6908 92.1322 27.4493 91.753 26.1797 91.7597C24.0049 91.7597 23.1857 93.2303 23.1857 94.5092C23.1857 96.1716 24.2308 97.0028 26.6881 98.1539C29.5973 99.4966 31.0661 101.159 31.0661 104.004C31.0661 106.53 29.5126 108.896 26.6033 109.439V112.764H24.8239Z" fill="#F2F2F2"/>
</svg>
