<svg width="251" height="180" viewBox="0 0 251 180" fill="none" xmlns="http://www.w3.org/2000/svg">
<g clip-path="url(#clip0)">
<path d="M106.597 143.074H5.15039C3.78489 143.072 2.47577 142.53 1.51022 141.567C0.544666 140.604 0.00154246 139.298 0 137.936V64.1378C0.00154329 62.7757 0.544667 61.4697 1.51022 60.5065C2.47577 59.5433 3.78489 59.0015 5.15039 59H106.597C107.963 59.0015 109.272 59.5433 110.238 60.5065C111.203 61.4697 111.746 62.7757 111.748 64.1378V137.936C111.746 139.298 111.203 140.604 110.238 141.567C109.272 142.53 107.963 143.072 106.597 143.074Z" fill="#8F8383"/>
<path d="M99.4588 142.918H98.7627L88.0125 121.314L87.7003 120.692L79.75 104.711L66.2778 77.6364L65.9688 77.0137L57.082 59.1558H57.7812L66.6649 77.0137L66.977 77.6364L80.1058 104.023L80.4149 104.646L88.3621 120.614L99.4588 142.918Z" fill="black"/>
<path d="M111.592 104.025H79.8838V104.647H111.592V104.025Z" fill="black"/>
<path d="M30.4392 59.1558H29.8149V143.23H30.4392V59.1558Z" fill="black"/>
<path d="M88.2052 120.691H30.127V121.313H88.2052V120.691Z" fill="black"/>
<path d="M66.4867 92.0067C66.4867 97.3145 58.6618 112.282 55.723 117.717C55.6162 117.914 55.4578 118.08 55.2645 118.195C55.0713 118.31 54.8503 118.371 54.6252 118.371C54.4 118.371 54.1791 118.31 53.9858 118.195C53.7925 118.08 53.6341 117.914 53.5274 117.717C50.5885 112.282 42.7637 97.3145 42.7637 92.0067C42.7637 88.8685 44.0134 85.8588 46.2378 83.6398C48.4623 81.4207 51.4793 80.1741 54.6252 80.1741C57.771 80.1741 60.7881 81.4207 63.0125 83.6398C65.237 85.8588 66.4867 88.8685 66.4867 92.0067Z" fill="white"/>
<path d="M54.6253 97.3002C57.556 97.3002 59.9318 94.9302 59.9318 92.0067C59.9318 89.0831 57.556 86.7131 54.6253 86.7131C51.6946 86.7131 49.3188 89.0831 49.3188 92.0067C49.3188 94.9302 51.6946 97.3002 54.6253 97.3002Z" fill="#8F8383"/>
<path d="M54.6254 123.457C55.8322 123.457 56.8105 122.481 56.8105 121.277C56.8105 120.073 55.8322 119.097 54.6254 119.097C53.4187 119.097 52.4404 120.073 52.4404 121.277C52.4404 122.481 53.4187 123.457 54.6254 123.457Z" fill="white"/>
<path d="M54.7097 153.929C52.3182 153.928 49.9803 154.636 47.9917 155.961C46.0032 157.286 44.4532 159.17 43.5379 161.374C42.6225 163.578 42.383 166.003 42.8494 168.343C43.3159 170.683 44.4675 172.832 46.1585 174.519C47.8496 176.206 50.0041 177.355 52.3497 177.82C54.6952 178.285 57.1264 178.046 59.3358 177.133C61.5452 176.22 63.4336 174.674 64.762 172.69C66.0905 170.706 66.7994 168.374 66.799 165.989C66.7953 162.791 65.5204 159.726 63.2541 157.465C60.9877 155.204 57.9148 153.932 54.7097 153.929ZM54.7097 177.385C52.4504 177.386 50.2418 176.718 48.3632 175.466C46.4845 174.214 45.0201 172.434 44.1553 170.352C43.2904 168.27 43.0639 165.979 43.5043 163.769C43.9448 161.558 45.0324 159.528 46.6297 157.934C48.227 156.34 50.2622 155.254 52.478 154.814C54.6938 154.374 56.9906 154.6 59.078 155.462C61.1654 156.324 62.9496 157.784 64.205 159.658C65.4605 161.532 66.1307 163.735 66.131 165.989C66.1275 169.01 64.9231 171.906 62.782 174.042C60.641 176.179 57.738 177.381 54.7097 177.385V177.385Z" fill="#8F8383"/>
<path d="M60.6587 160.206C60.3291 159.954 59.9128 159.843 59.5013 159.898C59.0898 159.952 58.7168 160.167 58.4642 160.496L53.0704 167.511L50.7886 165.767C50.6255 165.642 50.4392 165.55 50.2404 165.496C50.0415 165.443 49.8341 165.429 49.6299 165.456C49.4257 165.482 49.2287 165.549 49.0504 165.652C48.872 165.754 48.7157 165.891 48.5904 166.054C48.4652 166.217 48.3734 166.403 48.3204 166.602C48.2673 166.8 48.2541 167.007 48.2814 167.211C48.3087 167.415 48.3761 167.611 48.4795 167.788C48.583 167.966 48.7206 168.122 48.8845 168.246L52.4086 170.936L52.4243 170.949C52.6943 171.151 53.023 171.261 53.3607 171.26C53.6013 171.26 53.8387 171.205 54.0546 171.1C54.2705 170.994 54.4592 170.84 54.6061 170.65L60.9488 162.395C61.2012 162.066 61.3123 161.651 61.2579 161.241C61.2035 160.83 60.988 160.458 60.6587 160.206Z" fill="white"/>
<path d="M171.914 190.211L168.902 183.087L166.317 176.974L164.204 171.974C163.827 171.086 163.113 170.383 162.218 170.02C161.322 169.657 160.319 169.663 159.428 170.037L130.699 182.128C129.811 182.506 129.109 183.218 128.745 184.11C128.382 185.001 128.386 186 128.757 186.889L136.47 205.127C136.656 205.566 136.927 205.966 137.267 206.301C137.608 206.636 138.011 206.902 138.454 207.081C138.897 207.261 139.372 207.352 139.85 207.349C140.329 207.346 140.802 207.249 141.243 207.063L169.973 194.976C170.863 194.6 171.567 193.887 171.931 192.994C172.295 192.101 172.289 191.1 171.914 190.211ZM169.657 194.231L140.931 206.319C140.238 206.611 139.458 206.616 138.761 206.334C138.065 206.052 137.509 205.506 137.216 204.815L129.503 186.577C129.262 186.007 129.217 185.373 129.375 184.775C129.442 184.507 129.549 184.25 129.693 184.015C130.002 183.504 130.464 183.104 131.014 182.872L159.743 170.784C160.328 170.537 160.979 170.495 161.591 170.663C161.858 170.734 162.111 170.845 162.344 170.993C162.84 171.299 163.229 171.751 163.455 172.288L165.665 177.516V177.519L168.059 183.177L171.168 190.526C171.46 191.217 171.465 191.996 171.182 192.691C170.898 193.385 170.35 193.94 169.657 194.231L169.657 194.231Z" fill="#CCCCCC"/>
<path d="M150.112 188.451C149.345 188.776 148.496 188.857 147.681 188.685L129.014 184.697L129.183 183.907L147.851 187.895C148.495 188.03 149.165 187.968 149.773 187.718C150.382 187.467 150.901 187.04 151.262 186.491L161.87 170.238L162.549 170.679L151.941 186.932C151.497 187.609 150.86 188.138 150.112 188.451Z" fill="#CCCCCC"/>
<path d="M203.606 141.149C203.606 141.149 197.284 137.166 191.295 141.813L187.302 183.304C187.302 183.304 202.275 194.922 205.935 183.968L203.606 141.149Z" fill="white"/>
<path d="M213.422 183.47L210.094 232.928L204.937 232.762L198.116 193.096L191.794 232.264L185.804 232.596L184.141 181.479C184.141 181.479 209.429 175.836 213.422 183.47Z" fill="#2F2E41"/>
<path d="M197.721 136.951C201.955 136.951 205.387 133.527 205.387 129.303C205.387 125.079 201.955 121.655 197.721 121.655C193.487 121.655 190.054 125.079 190.054 129.303C190.054 133.527 193.487 136.951 197.721 136.951Z" fill="#FFB8B8"/>
<path d="M202.441 139.656L204.438 140.983C204.438 140.983 212.756 140.983 213.422 145.962C214.087 150.941 215.917 184.964 213.921 184.964C211.924 184.964 211.592 182.309 211.592 182.309C211.592 182.309 210.261 182.641 207.599 185.296C204.937 187.951 203.273 187.951 202.275 183.968C201.277 179.985 194.622 149.448 200.944 143.805L202.441 139.656Z" fill="#2F2E41"/>
<path d="M192.792 139.656L190.795 140.983C190.795 140.983 182.477 140.983 181.811 145.962C181.146 150.941 179.316 184.964 181.312 184.964C183.308 184.964 183.641 182.309 183.641 182.309C183.641 182.309 184.972 182.641 187.634 185.296C190.296 187.951 191.96 187.951 192.958 183.968C193.956 179.985 200.611 149.448 194.289 143.805L192.792 139.656Z" fill="#2F2E41"/>
<path d="M203.941 133.966C204.511 133.367 204.889 132.613 205.028 131.798C205.167 130.984 205.059 130.147 204.72 129.394C204.38 128.641 203.824 128.005 203.121 127.568C202.419 127.131 201.602 126.913 200.774 126.94C199.714 126.976 198.715 127.408 197.703 127.726C196.17 128.246 194.534 128.393 192.932 128.155C191.321 127.905 189.867 127.049 188.869 125.761C187.921 124.461 187.625 122.657 188.295 121.194C189.069 119.506 190.876 118.575 192.576 117.819C193.261 117.477 193.994 117.237 194.749 117.107C195.128 117.044 195.515 117.06 195.887 117.153C196.259 117.247 196.608 117.416 196.911 117.65C197.389 118.06 197.669 118.676 198.189 119.032C198.774 119.431 199.534 119.421 200.24 119.491C201.829 119.65 203.333 120.288 204.55 121.32C205.768 122.352 206.642 123.729 207.055 125.269C207.469 126.808 207.403 128.436 206.866 129.938C206.329 131.439 205.347 132.741 204.05 133.672L203.941 133.966Z" fill="#2F2E41"/>
<path d="M164.83 180.506C164.726 180.028 164.729 179.533 164.837 179.056C164.946 178.579 165.158 178.132 165.459 177.746C165.76 177.36 166.141 177.044 166.578 176.821C167.014 176.598 167.494 176.473 167.984 176.455L173.078 169.298L176.361 172.634L171.499 179.914C171.475 180.737 171.149 181.523 170.583 182.122C170.017 182.721 169.25 183.092 168.428 183.165C167.606 183.238 166.786 183.008 166.123 182.518C165.459 182.028 164.999 181.312 164.83 180.506Z" fill="#FFB8B8"/>
<path d="M209.977 187.039C209.619 186.706 209.338 186.298 209.154 185.845C208.971 185.391 208.889 184.903 208.915 184.415C208.941 183.926 209.075 183.45 209.305 183.018C209.536 182.587 209.859 182.211 210.251 181.917L210.341 173.14L214.945 174.012L215.116 182.757C215.567 183.447 215.749 184.278 215.626 185.092C215.504 185.906 215.087 186.648 214.453 187.175C213.82 187.703 213.014 187.981 212.189 187.956C211.365 187.931 210.577 187.605 209.977 187.039Z" fill="#FFB8B8"/>
<path d="M184.286 166.309L182.976 145.465L182.605 144.008C182.605 144.008 169.36 160.998 169.329 173.78C169.329 173.78 175.818 176.933 176.816 174.609C177.208 173.697 178.547 172.344 184.286 166.309Z" fill="#2F2E41"/>
<path d="M212.257 145.465L213.454 146.221C213.454 146.221 217.742 165.046 216.583 177.662C216.583 177.662 209.762 180.815 208.763 178.492C207.765 176.168 212.257 145.465 212.257 145.465Z" fill="#2F2E41"/>
</g>
<defs>
<clipPath id="clip0">
<rect width="251" height="180" fill="white"/>
</clipPath>
</defs>
</svg>
