<svg width="300" height="200" viewBox="0 0 300 200" fill="none" xmlns="http://www.w3.org/2000/svg">
<g clip-path="url(#clip0)">
<path d="M276.776 199.694H-6V200.299H276.776V199.694Z" fill="#3F3D56"/>
<path d="M16.241 89.9358L16.0039 90.493L276.451 199.946L276.688 199.388L16.241 89.9358Z" fill="#3F3D56"/>
<path d="M276.776 89.8853H-6V90.4903H276.776V89.8853Z" fill="#3F3D56"/>
<path d="M238.423 103.044C238.462 115.844 235.962 128.527 231.067 140.367C226.172 152.207 218.977 162.972 209.893 172.047C208.891 173.049 207.868 174.027 206.822 174.982C205.561 176.137 204.269 177.258 202.944 178.343C202.691 178.551 202.438 178.757 202.183 178.96C196.948 183.175 191.279 186.829 185.271 189.859C184.915 190.037 184.559 190.216 184.2 190.391C183.63 190.669 183.055 190.942 182.48 191.208C161.184 201.056 136.965 202.69 114.525 195.791C75.2381 183.673 46.6592 146.734 46.6592 103.044C46.6592 49.4978 89.5869 6.0918 142.541 6.0918C195.495 6.0918 238.423 49.4978 238.423 103.044Z" fill="white"/>
<path d="M163.889 82.7059L163.965 82.703L163.665 82.0477C163.328 81.1197 162.915 80.2202 162.432 79.3582L153.625 60.1401C153.344 59.5268 152.889 59.0083 152.315 58.6483C151.742 58.2884 151.075 58.1027 150.397 58.1139L139.243 58.2985C138.522 58.3105 137.822 58.5447 137.241 58.9688C136.659 59.3928 136.225 59.9859 135.997 60.666L128.985 81.5955C128.754 82.1816 128.554 82.7792 128.385 83.3858L128.147 84.0964L128.203 84.0942C127.553 86.8543 127.554 89.7263 128.204 92.4862C128.855 95.2461 130.138 97.8194 131.954 100.005C133.769 102.192 136.069 103.931 138.672 105.089C141.275 106.247 144.113 106.792 146.963 106.681C149.813 106.57 152.599 105.807 155.103 104.45C157.608 103.093 159.763 101.18 161.401 98.8598C163.039 96.5394 164.116 93.8743 164.548 91.0723C164.979 88.2703 164.754 85.4071 163.889 82.7059H163.889Z" fill="#3F3D56"/>
<path d="M143.102 62.9984L139.592 82.0663L139.988 82.1383L143.498 63.0704L143.102 62.9984Z" fill="white"/>
<path d="M147.32 62.9282L146.926 63.0132L151.07 81.9551L151.463 81.8701L147.32 62.9282Z" fill="white"/>
<path d="M138.028 48.9133L152.32 48.6767C152.427 48.6749 152.53 48.7154 152.607 48.7892C152.684 48.863 152.728 48.964 152.73 49.0701C152.731 49.1763 152.691 49.2787 152.616 49.355C152.542 49.4313 152.44 49.4751 152.334 49.4769L138.041 49.7135C137.988 49.7144 137.936 49.7049 137.887 49.6856C137.837 49.6663 137.793 49.6376 137.755 49.6011C137.717 49.5645 137.686 49.5209 137.665 49.4727C137.644 49.4245 137.633 49.3726 137.632 49.3201C137.631 49.2676 137.641 49.2153 137.66 49.1665C137.679 49.1176 137.708 49.073 137.745 49.0352C137.782 48.9974 137.826 48.9672 137.874 48.9463C137.923 48.9254 137.975 48.9142 138.028 48.9133Z" fill="#3F3D56"/>
<path d="M138.179 51.9126L152.471 51.676C152.578 51.6742 152.681 51.7147 152.758 51.7884C152.835 51.8622 152.879 51.9633 152.88 52.0694C152.882 52.1755 152.842 52.278 152.767 52.3543C152.693 52.4306 152.591 52.4744 152.485 52.4762L138.192 52.7128C138.085 52.7146 137.982 52.6741 137.905 52.6003C137.829 52.5265 137.785 52.4255 137.783 52.3194C137.781 52.2133 137.822 52.1108 137.896 52.0345C137.97 51.9582 138.072 51.9144 138.179 51.9126Z" fill="#3F3D56"/>
<path d="M138.33 54.9117L152.622 54.6751C152.729 54.6733 152.832 54.7138 152.909 54.7876C152.985 54.8614 153.03 54.9624 153.031 55.0685C153.033 55.1747 152.992 55.2771 152.918 55.3534C152.844 55.4297 152.742 55.4736 152.635 55.4753L138.343 55.712C138.236 55.7137 138.133 55.6733 138.056 55.5995C137.98 55.5257 137.935 55.4246 137.934 55.3185C137.932 55.2124 137.973 55.1099 138.047 55.0336C138.121 54.9573 138.223 54.9135 138.33 54.9117Z" fill="#3F3D56"/>
<path d="M145.126 45.9411C142.291 45.988 140.019 47.5963 140.052 49.5333L150.318 49.3634C150.286 47.4264 147.961 45.8942 145.126 45.9411Z" fill="#3F3D56"/>
<path d="M146.705 84.8823C147.266 84.92 147.796 85.1454 148.211 85.5216C148.317 85.6091 148.421 85.7008 148.526 85.7926C148.857 86.1361 149.263 86.3999 149.712 86.564C150.696 86.8308 151.667 86.0577 152.487 85.2663L152.767 85.5532C151.866 86.4236 150.786 87.2698 149.606 86.9501C149.096 86.7717 148.635 86.4782 148.259 86.0925C148.158 86.0033 148.057 85.9144 147.954 85.8296C147.617 85.5523 146.968 85.1208 146.39 85.3445C146.15 85.4607 145.937 85.6242 145.763 85.8251C145.628 85.966 145.483 86.0961 145.328 86.2144C145.011 86.4382 144.634 86.5637 144.245 86.5752C143.856 86.5867 143.473 86.4837 143.143 86.279C143.024 86.2004 142.91 86.1153 142.801 86.0242C142.621 85.8477 142.398 85.7214 142.154 85.6584C141.812 85.6108 141.501 85.8535 141.172 86.1102C140.86 86.4112 140.462 86.6079 140.032 86.6727C140.018 86.6735 140.003 86.674 139.988 86.6742C139.186 86.6875 138.677 85.8899 138.362 85.2836L138.72 85.1002C139.148 85.9245 139.56 86.3003 140.011 86.2731C140.356 86.2073 140.673 86.041 140.923 85.7954C141.304 85.4983 141.698 85.1911 142.21 85.2621C142.528 85.331 142.821 85.4873 143.054 85.7131C143.152 85.7949 143.254 85.8714 143.36 85.9423C143.623 86.1017 143.926 86.1818 144.233 86.1727C144.54 86.1637 144.838 86.0658 145.091 85.8911C145.229 85.7849 145.358 85.6683 145.478 85.5423C145.69 85.3006 145.951 85.1062 146.243 84.9718C146.391 84.9148 146.547 84.8845 146.705 84.8823Z" fill="white"/>
<path d="M145.58 6H145.162V45.9248H145.58V6Z" fill="#3F3D56"/>
<path d="M271.874 75.1732C269.323 84.5464 260.583 90.3515 260.583 90.3515C260.583 90.3515 255.981 80.9596 258.532 71.5864C261.084 62.2131 269.823 56.4081 269.823 56.4081C269.823 56.4081 274.425 65.8 271.874 75.1732Z" fill="white"/>
<path d="M248.663 75.1732C251.215 84.5464 259.954 90.3515 259.954 90.3515C259.954 90.3515 264.556 80.9596 262.005 71.5864C259.453 62.2131 250.714 56.4081 250.714 56.4081C250.714 56.4081 246.112 65.8 248.663 75.1732Z" fill="white"/>
<path d="M252.412 73.1588C259.413 79.932 260.268 90.3439 260.268 90.3439C260.268 90.3439 249.772 89.7743 242.771 83.0012C235.77 76.228 234.915 65.8162 234.915 65.8162C234.915 65.8162 245.411 66.3857 252.412 73.1588Z" fill="#3F3D56"/>
<path d="M268.125 73.1588C261.124 79.932 260.269 90.3439 260.269 90.3439C260.269 90.3439 270.765 89.7743 277.766 83.0012C284.767 76.228 285.622 65.8162 285.622 65.8162C285.622 65.8162 275.126 66.3857 268.125 73.1588Z" fill="#3F3D56"/>
<path d="M-10.7902 185.664C-17.7913 192.438 -18.6465 202.849 -18.6465 202.849C-18.6465 202.849 -8.15051 202.28 -1.14935 195.507C5.85181 188.734 6.70695 178.322 6.70695 178.322C6.70695 178.322 -3.78904 178.891 -10.7902 185.664Z" fill="#3F3D56"/>
<path d="M189.665 98.0887C192.899 98.0887 195.52 95.4837 195.52 92.2702C195.52 89.0568 192.899 86.4518 189.665 86.4518C186.432 86.4518 183.811 89.0568 183.811 92.2702C183.811 95.4837 186.432 98.0887 189.665 98.0887Z" fill="#2F2E41"/>
<path d="M183.392 89.7766C183.393 88.3415 183.926 86.9572 184.891 85.8895C185.856 84.8219 187.184 84.1463 188.62 83.9925C187.802 83.9038 186.975 83.9872 186.192 84.2374C185.409 84.4876 184.688 84.899 184.075 85.4447C183.463 85.9904 182.973 86.6582 182.638 87.4046C182.303 88.151 182.129 88.9592 182.129 89.7766C182.129 90.594 182.303 91.4022 182.638 92.1486C182.973 92.895 183.463 93.5628 184.075 94.1085C184.688 94.6542 185.409 95.0655 186.192 95.3157C186.975 95.5659 187.802 95.6494 188.62 95.5606C187.184 95.4069 185.856 94.7313 184.891 93.6636C183.926 92.596 183.393 91.2116 183.392 89.7766Z" fill="#2F2E41"/>
<path d="M183.81 92.2701C183.81 92.2701 182.901 96.4262 188.583 98.0886L183.81 92.2701Z" fill="white"/>
<path d="M192.087 131.792C202.942 131.792 211.742 123.046 211.742 112.258C211.742 101.47 202.942 92.7251 192.087 92.7251C181.232 92.7251 172.432 101.47 172.432 112.258C172.432 123.046 181.232 131.792 192.087 131.792Z" fill="#2F2E41"/>
<path d="M202.943 178.343C202.691 178.552 202.438 178.757 202.182 178.96C196.948 183.176 191.279 186.829 185.271 189.859C184.915 190.038 184.558 190.216 184.199 190.392C183.63 190.67 183.055 190.942 182.48 191.208L172.404 187.872L172.52 185.473V185.464L172.958 176.316L173.107 173.188L202.943 178.343Z" fill="#A0616A"/>
<path d="M184.199 190.392C183.63 190.67 183.055 190.942 182.48 191.208C178.544 193.037 174.485 194.591 170.331 195.858C170.31 195.797 170.298 195.734 170.295 195.67L172.404 185.425L172.52 185.473L184.199 190.392Z" fill="#2F2E41"/>
<path d="M187.18 132.982C194.369 132.982 200.196 127.191 200.196 120.047C200.196 112.903 194.369 107.111 187.18 107.111C179.992 107.111 174.164 112.903 174.164 120.047C174.164 127.191 179.992 132.982 187.18 132.982Z" fill="#A0616A"/>
<path d="M197.734 120.746C197.734 120.746 199.845 131.234 203.714 133.682L182.255 158.853L174.164 151.162L180.144 140.674C180.144 140.674 186.828 136.828 184.718 131.584L197.734 120.746Z" fill="#A0616A"/>
<path d="M223.2 155.483C219.386 161.471 214.924 167.026 209.893 172.048C209.677 167.359 209.208 163.493 208.289 162.35C208.286 162.35 208.284 162.348 208.282 162.347L197.029 158.853C197.029 158.853 199.492 135.778 205.473 134.731C205.473 134.731 206.341 134.907 207.689 135.312C212.036 136.613 221.368 140.279 222.71 148.014C223.092 150.485 223.256 152.984 223.2 155.483Z" fill="#A0616A"/>
<path d="M180.145 140.674C180.145 140.674 169.591 140.324 162.907 148.715C156.223 157.105 140.041 163.398 140.041 163.398L99.5857 179.131C99.5857 179.131 92.1981 166.195 87.6249 170.74C83.0517 175.285 96.0678 186.822 102.048 185.424C108.029 184.025 144.263 173.187 144.263 173.187L173.109 160.252L180.145 140.674Z" fill="#A0616A"/>
<path d="M208.288 162.35L206.821 174.982C205.561 176.138 204.268 177.258 202.943 178.343C202.691 178.552 202.438 178.757 202.182 178.96C192.025 175.865 176.109 176.21 172.958 176.316C172.599 176.325 172.404 176.334 172.404 176.334L172.054 168.993C168.679 167.876 167.571 165.435 167.54 162.749C167.488 157.879 170.998 152.21 170.998 152.21C171.628 151.584 176.337 142.711 177.311 140.872C177.424 140.657 177.487 140.539 177.487 140.539L181.709 139.493C181.709 139.493 181.697 139.526 181.673 139.586C181.295 140.636 178.014 150.132 183.664 150.461C189.222 150.788 201.312 135.276 202.977 133.101C203.102 132.937 203.169 132.85 203.169 132.85L207.744 135.297C207.725 135.303 207.707 135.306 207.689 135.312C204.894 136.083 202.307 142.772 202.307 142.772C195.011 155.549 207.963 162.186 208.282 162.347C208.284 162.348 208.286 162.349 208.288 162.35Z" fill="#D0CDE1"/>
<path d="M187.888 104.863C180.959 104.863 175.342 108.119 175.342 112.136C175.342 113.934 176.471 115.576 178.335 116.845L180.75 115.106L180.093 117.831C180.365 117.956 180.644 118.078 180.934 118.19L184.542 114.006V119.146C185.648 119.322 186.767 119.41 187.888 119.409C194.816 119.409 200.433 116.153 200.433 112.136C200.433 108.119 194.816 104.863 187.888 104.863Z" fill="#2F2E41"/>
<path d="M213.587 107.179C216.821 107.179 219.442 104.574 219.442 101.36C219.442 98.1466 216.821 95.5416 213.587 95.5416C210.354 95.5416 207.732 98.1466 207.732 101.36C207.732 104.574 210.354 107.179 213.587 107.179Z" fill="#2F2E41"/>
<path d="M207.314 98.8663C207.314 97.4312 207.848 96.0469 208.813 94.9792C209.778 93.9116 211.106 93.236 212.542 93.0823C212.333 93.0598 212.124 93.0483 211.914 93.0479C211.118 93.0467 210.33 93.2069 209.599 93.5186C208.867 93.8304 208.207 94.2871 207.659 94.8609C207.111 95.4347 206.687 96.1135 206.412 96.8559C206.137 97.5982 206.017 98.3885 206.06 99.1785C206.102 99.9684 206.307 100.741 206.66 101.45C207.014 102.159 207.509 102.789 208.116 103.301C208.722 103.813 209.428 104.197 210.189 104.429C210.95 104.661 211.75 104.736 212.542 104.65C211.106 104.497 209.778 103.821 208.813 102.753C207.848 101.686 207.314 100.301 207.314 98.8663Z" fill="#2F2E41"/>
<path d="M207.732 101.36C207.732 101.36 206.823 105.516 212.505 107.178L207.732 101.36Z" fill="white"/>
<path d="M200.724 121.27C201.286 121.27 201.741 120.253 201.741 118.998C201.741 117.743 201.286 116.726 200.724 116.726C200.163 116.726 199.708 117.743 199.708 118.998C199.708 120.253 200.163 121.27 200.724 121.27Z" fill="#A0616A"/>
<path d="M72.56 127.789L57.1345 131.503L57.0842 131.515L55.4074 133.024L54.9248 133.458L53.8902 133.271L52.0586 132.942L53.3349 128.661L53.5743 120.496L52.6968 115.501L57.5629 112.172C57.5629 112.172 67.0557 111.617 72.56 127.789Z" fill="#D0CDE1"/>
<path opacity="0.1" d="M57.1345 131.504C56.9255 131.947 57.3634 131.654 57.1241 132.11L54.8905 132.824L53.8901 133.271L52.0586 132.942L53.3349 128.661L53.5742 120.496L52.6968 115.501L57.5628 112.172C57.5628 112.172 62.7855 119.522 57.1345 131.504Z" fill="black"/>
<path d="M90.7478 116.056C90.7478 116.056 70.4858 125.411 62.2693 126.838C54.0528 128.265 54.7708 136.431 54.7708 136.431L100.799 129.296C100.799 129.296 99.2037 121.923 90.7478 116.056Z" fill="#D0CDE1"/>
<path d="M51.6596 114.471C51.6596 114.471 55.1696 122.953 51.2607 133.497L55.8078 135.559L57.5627 133.497L57.6026 133.299L52.7764 132.863C52.7764 132.863 56.765 122.24 53.4943 114.867C53.4944 114.867 52.7764 113.282 51.6596 114.471Z" fill="white"/>
<path d="M134.588 177.338C116.639 173.374 99.9272 181.579 99.9272 181.579L99.8817 181.539L93.2263 175.633L67.2207 133.458L73.5626 133.497C91.1921 123.033 116.001 124.46 116.001 124.46C126.691 136.51 134.588 177.338 134.588 177.338Z" fill="#3F3D56"/>
<path opacity="0.1" d="M83.8817 181.539L77.2263 175.633L51.2207 133.458L57.5626 133.497C57.5626 133.497 82.8391 166.674 83.8817 181.539Z" fill="black"/>
<path d="M86.8024 148.631C92.2359 146.975 95.7818 142.85 94.7225 139.417C93.6631 135.985 88.3996 134.545 82.9661 136.201C77.5326 137.857 73.9867 141.983 75.0461 145.415C76.1054 148.847 81.3689 150.287 86.8024 148.631Z" fill="#D0CDE1"/>
<path d="M276.553 206C279.747 206 282.336 203.427 282.336 200.252C282.336 197.078 279.747 194.505 276.553 194.505C273.359 194.505 270.77 197.078 270.77 200.252C270.77 203.427 273.359 206 276.553 206Z" fill="#3F3D56"/>
<path d="M276.553 94.9817C279.075 94.9817 281.119 92.9502 281.119 90.4442C281.119 87.9381 279.075 85.9066 276.553 85.9066C274.031 85.9066 271.987 87.9381 271.987 90.4442C271.987 92.9502 274.031 94.9817 276.553 94.9817Z" fill="white"/>
</g>
<defs>
<clipPath id="clip0">
<rect width="300" height="200" fill="white"/>
</clipPath>
</defs>
</svg>
