<svg width="352" height="237" viewBox="0 0 352 237" fill="none" xmlns="http://www.w3.org/2000/svg">
<g clip-path="url(#clip0)">
<path opacity="0.1" d="M237.14 237C261.235 237 280.768 235.623 280.768 233.924C280.768 232.226 261.235 230.849 237.14 230.849C213.045 230.849 193.513 232.226 193.513 233.924C193.513 235.623 213.045 237 237.14 237Z" fill="#6C63FF"/>
<path opacity="0.1" d="M352 139.663C351.993 151.59 349.401 163.373 344.403 174.199C339.406 185.025 332.121 194.637 323.052 202.371C313.983 210.106 303.346 215.778 291.874 218.998C280.403 222.217 268.37 222.907 256.606 221.019H126.12C121.08 221.711 115.999 222.059 110.912 222.059C107.26 222.059 103.652 221.884 100.088 221.536C72.6666 218.871 47.2206 206.074 28.715 185.642C10.2094 165.21 -0.0280467 138.609 5.77118e-05 111.029C5.77118e-05 49.7079 49.6586 0 110.912 0C160.245 0 202.048 32.2446 216.454 76.8286C231.314 64.1726 250.196 57.2369 269.707 57.2678C315.15 57.2678 352 94.1566 352 139.663Z" fill="#6C63FF"/>
<path opacity="0.1" d="M320.382 204.58C311.451 211.561 301.179 216.624 290.206 219.452C279.232 222.28 267.795 222.814 256.606 221.019H126.12C121.08 221.712 115.999 222.059 110.912 222.059C107.26 222.059 103.652 221.884 100.088 221.536C78.4782 219.414 57.9649 210.992 41.0899 197.313C24.2148 183.634 11.7196 165.3 5.15234 144.581C15.7766 121.855 43.0714 105.684 75.0731 105.684C106.257 105.684 132.987 121.044 144.143 142.859C149.636 141.859 155.208 141.357 160.792 141.361C193.113 141.361 220.632 157.868 231.023 180.935C239.63 178.323 248.577 177.006 257.571 177.026C283.932 177.038 307.101 188.009 320.382 204.58Z" fill="#6C63FF"/>
<path d="M108.055 207.059C108.055 214.939 105.034 219.217 100.088 221.536C81.4554 219.735 63.5872 213.217 48.165 202.596C48.5605 199.917 49.3181 197.305 50.4171 194.83L64.4854 199.21L51.9563 191.829C53.6508 188.933 55.8158 186.341 58.3622 184.158L81.9979 191.515L63.4808 180.627C67.2937 178.535 71.514 177.295 75.8514 176.992C80.1887 176.688 84.5403 177.329 88.6068 178.869C92.6733 180.41 96.3583 182.814 99.4084 185.916C102.458 189.018 104.801 192.744 106.276 196.839L106.34 197.023C106.389 197.162 106.438 197.3 106.485 197.442C106.65 197.932 106.803 198.427 106.942 198.927C106.995 199.105 107.044 199.284 107.087 199.465C107.13 199.647 107.176 199.81 107.216 199.982C107.256 200.154 107.29 200.29 107.32 200.431C107.342 200.523 107.363 200.616 107.382 200.708C107.415 200.855 107.446 201.015 107.474 201.154C107.517 201.369 107.56 201.587 107.597 201.803C107.634 202.018 107.674 202.252 107.707 202.476C107.741 202.701 107.781 202.975 107.812 203.227C107.843 203.479 107.867 203.676 107.889 203.9C107.889 203.971 107.904 204.039 107.91 204.109C107.932 204.306 107.947 204.503 107.962 204.7C107.964 204.726 107.964 204.751 107.962 204.777C107.981 205.023 107.996 205.269 108.008 205.515C108.021 205.761 108.03 206.001 108.036 206.235C108.038 206.258 108.038 206.282 108.036 206.305C108.051 206.551 108.055 206.804 108.055 207.059Z" fill="#6C63FF"/>
<path opacity="0.1" d="M108.055 207.059C108.055 214.939 105.035 219.217 100.088 221.536C88.0389 220.374 76.2634 217.232 65.2354 212.235L65.7392 211.9C68.0158 210.39 70.3693 208.846 73.0484 208.332C75.4049 207.88 77.8351 208.261 80.2285 208.126C84.3949 207.871 88.3171 206.072 91.2306 203.079C92.9419 201.308 94.3029 199.133 96.346 197.78C98.5643 196.322 101.379 196.008 104.008 196.371C104.772 196.483 105.53 196.638 106.276 196.836L106.34 197.02C106.39 197.159 106.439 197.297 106.485 197.438C106.651 197.928 106.803 198.424 106.943 198.924C106.995 199.102 107.044 199.281 107.087 199.462C107.13 199.644 107.176 199.807 107.216 199.979C107.256 200.151 107.29 200.286 107.32 200.428C107.342 200.52 107.364 200.612 107.382 200.705C107.416 200.852 107.446 201.012 107.474 201.151C107.517 201.366 107.56 201.584 107.597 201.8C107.634 202.015 107.674 202.249 107.708 202.473C107.741 202.698 107.781 202.971 107.812 203.224C107.843 203.476 107.867 203.673 107.889 203.897C107.889 203.968 107.904 204.036 107.91 204.106C107.932 204.303 107.947 204.5 107.963 204.697C107.964 204.722 107.964 204.748 107.963 204.774C107.981 205.02 107.996 205.266 108.009 205.512C108.021 205.758 108.03 205.998 108.036 206.232C108.038 206.255 108.038 206.279 108.036 206.302C108.052 206.551 108.055 206.804 108.055 207.059Z" fill="black"/>
<path d="M287.419 212.174C287.421 212.976 287.339 213.776 287.173 214.56C287.142 214.708 287.109 214.853 287.075 214.994C286.202 218.497 283.741 221.059 280.804 221.222C280.706 221.222 280.607 221.222 280.497 221.222C277.391 221.222 274.764 218.54 273.897 214.846C273.873 214.748 273.851 214.65 273.83 214.539C273.664 213.754 273.582 212.954 273.584 212.152C273.584 207.148 276.678 203.094 280.497 203.094C284.316 203.094 287.419 207.17 287.419 212.174Z" fill="#3F3D56"/>
<path opacity="0.1" d="M287.419 212.174C287.422 212.976 287.339 213.776 287.173 214.56C287.143 214.708 287.109 214.853 287.075 214.994C286.971 214.994 286.869 214.994 286.768 214.994C286.007 214.953 285.251 214.85 284.507 214.687C283.847 214.891 283.174 215.045 282.491 215.148C281.968 215.227 281.441 215.276 280.912 215.296C280.734 215.296 280.556 215.296 280.377 215.296C279.744 215.296 279.112 215.253 278.485 215.169C277.47 215.034 276.474 214.786 275.514 214.431C274.988 214.606 274.453 214.75 273.91 214.862C273.886 214.763 273.864 214.665 273.843 214.554C273.677 213.77 273.594 212.97 273.597 212.168C273.597 207.164 276.691 203.11 280.51 203.11C284.328 203.11 287.419 207.17 287.419 212.174Z" fill="black"/>
<path d="M302.167 195.301C302.17 193.099 301.654 190.927 300.661 188.962L292.532 191.493L299.669 187.295C298.472 185.564 296.902 184.123 295.075 183.08C293.248 182.038 291.21 181.419 289.112 181.27C288.778 180.763 288.412 180.278 288.015 179.818L276.34 183.457L285.917 177.819C284.085 176.412 281.935 175.478 279.656 175.101C277.378 174.723 275.042 174.914 272.855 175.656C270.668 176.397 268.697 177.667 267.117 179.353C265.537 181.039 264.396 183.088 263.796 185.321L273.796 196.845L262.948 188.99C260.2 190.941 258.243 193.816 257.435 197.09C256.627 200.364 257.021 203.82 258.545 206.828C260.069 209.836 262.622 212.196 265.738 213.477C268.854 214.759 272.327 214.877 275.523 213.81C278.414 214.874 281.574 214.961 284.519 214.059C286.572 214.509 288.7 214.493 290.746 214.011C292.792 213.529 294.705 212.595 296.343 211.276C297.98 209.957 299.302 208.288 300.211 206.39C301.119 204.493 301.591 202.415 301.592 200.311C301.592 200.004 301.592 199.696 301.561 199.388C301.963 198.063 302.167 196.686 302.167 195.301Z" fill="#6C63FF"/>
<path opacity="0.1" d="M301.923 197.909C297.63 197.094 293.228 197.038 288.915 197.743C284.033 198.552 279.044 200.33 274.269 199.032C271.467 198.269 269.046 196.504 266.309 195.522C263.667 194.6 260.822 194.43 258.09 195.03C257.049 197.524 256.747 200.264 257.22 202.925C257.693 205.586 258.922 208.054 260.758 210.034C262.595 212.014 264.963 213.424 267.578 214.093C270.194 214.763 272.946 214.665 275.507 213.81C278.398 214.874 281.558 214.961 284.503 214.059C286.557 214.512 288.687 214.497 290.735 214.017C292.783 213.536 294.698 212.602 296.337 211.283C297.977 209.964 299.3 208.293 300.209 206.395C301.119 204.496 301.591 202.417 301.592 200.311C301.592 200.004 301.592 199.696 301.561 199.388C301.709 198.902 301.83 198.408 301.923 197.909Z" fill="black"/>
<path d="M219.219 77.0193H217.904C217.515 77.0193 217.2 77.3346 217.2 77.7236V98.773C217.2 99.162 217.515 99.4773 217.904 99.4773H219.219C219.607 99.4773 219.922 99.162 219.922 98.773V77.7236C219.922 77.3346 219.607 77.0193 219.219 77.0193Z" fill="#3A3768"/>
<path d="M127.562 59.4238H127.442C127.053 59.4238 126.738 59.7391 126.738 60.1281V66.1132C126.738 66.5022 127.053 66.8175 127.442 66.8175H127.562C127.95 66.8175 128.265 66.5022 128.265 66.1132V60.1281C128.265 59.7391 127.95 59.4238 127.562 59.4238Z" fill="#3A3768"/>
<path d="M127.7 72.9626H127.386C126.998 72.9626 126.683 73.2779 126.683 73.6669V85.1266C126.683 85.5156 126.998 85.8309 127.386 85.8309H127.7C128.088 85.8309 128.403 85.5156 128.403 85.1266V73.6669C128.403 73.2779 128.088 72.9626 127.7 72.9626Z" fill="#3A3768"/>
<path d="M127.644 90.3336H127.414C127.025 90.3336 126.71 90.649 126.71 91.0379V102.608C126.71 102.997 127.025 103.313 127.414 103.313H127.644C128.033 103.313 128.348 102.997 128.348 102.608V91.0379C128.348 90.649 128.033 90.3336 127.644 90.3336Z" fill="#3A3768"/>
<path d="M206.69 34.9911H139.583C132.967 34.9911 127.604 40.3601 127.604 46.9829V208.271C127.604 214.894 132.967 220.263 139.583 220.263H206.69C213.305 220.263 218.669 214.894 218.669 208.271V46.9829C218.669 40.3601 213.305 34.9911 206.69 34.9911Z" fill="#3F3D56"/>
<path d="M175.88 40.5242H165.542C164.885 40.5242 164.353 41.0571 164.353 41.7144V41.9174C164.353 42.5748 164.885 43.1077 165.542 43.1077H175.88C176.537 43.1077 177.069 42.5748 177.069 41.9174V41.7144C177.069 41.0571 176.537 40.5242 175.88 40.5242Z" fill="#E6E8EC"/>
<path d="M180.455 43.283C181.264 43.283 181.92 42.6262 181.92 41.8159C181.92 41.0057 181.264 40.3489 180.455 40.3489C179.645 40.3489 178.989 41.0057 178.989 41.8159C178.989 42.6262 179.645 43.283 180.455 43.283Z" fill="#E6E8EC"/>
<path d="M205.802 39.8168H195.386V41.0747C195.386 42.6555 194.759 44.1716 193.642 45.2894C192.526 46.4072 191.011 47.0352 189.432 47.0352H156.195C154.616 47.0352 153.102 46.4072 151.985 45.2894C150.868 44.1716 150.241 42.6555 150.241 41.0747V39.8168H140.459C139.509 39.8168 138.569 40.0041 137.692 40.3679C136.814 40.7318 136.017 41.2652 135.346 41.9375C134.674 42.6098 134.142 43.408 133.779 44.2864C133.416 45.1647 133.229 46.1061 133.229 47.0567V208.197C133.229 209.148 133.416 210.089 133.779 210.967C134.142 211.846 134.674 212.644 135.346 213.316C136.017 213.989 136.814 214.522 137.692 214.886C138.569 215.25 139.509 215.437 140.459 215.437H205.802C207.72 215.437 209.559 214.674 210.916 213.316C212.272 211.959 213.034 210.117 213.034 208.197V47.0567C213.034 45.1366 212.272 43.2951 210.916 41.9373C209.559 40.5796 207.72 39.8168 205.802 39.8168Z" fill="#6C63FF"/>
<path opacity="0.1" d="M182.354 68.7306H136.576V76.1121H182.354V68.7306Z" fill="black" stroke="#6C63FF" stroke-miterlimit="10"/>
<path opacity="0.1" d="M147.636 119.17C153.066 119.17 157.468 114.764 157.468 109.329C157.468 103.893 153.066 99.4866 147.636 99.4866C142.206 99.4866 137.805 103.893 137.805 109.329C137.805 114.764 142.206 119.17 147.636 119.17Z" fill="black" stroke="#6C63FF" stroke-miterlimit="10"/>
<path d="M144.871 107.483V111.174H147.329L150.401 114.388V104.266L147.329 107.483H144.871Z" fill="white"/>
<path opacity="0.1" d="M173.751 119.17C179.181 119.17 183.583 114.764 183.583 109.329C183.583 103.893 179.181 99.4866 173.751 99.4866C168.321 99.4866 163.919 103.893 163.919 109.329C163.919 114.764 168.321 119.17 173.751 119.17Z" fill="black" stroke="#6C63FF" stroke-miterlimit="10"/>
<path d="M173.751 113.438C173.518 113.436 173.291 113.504 173.097 113.633C172.903 113.761 172.752 113.944 172.662 114.159C172.572 114.373 172.548 114.61 172.593 114.838C172.637 115.066 172.749 115.276 172.913 115.441C173.077 115.606 173.286 115.718 173.513 115.764C173.741 115.81 173.978 115.787 174.192 115.698C174.407 115.61 174.591 115.459 174.72 115.266C174.849 115.072 174.918 114.845 174.918 114.612C174.918 114.302 174.796 114.004 174.577 113.784C174.358 113.564 174.061 113.439 173.751 113.438ZM170.31 102.87C170.077 102.868 169.849 102.935 169.655 103.063C169.461 103.191 169.309 103.374 169.219 103.589C169.129 103.803 169.104 104.04 169.148 104.268C169.193 104.497 169.304 104.707 169.467 104.872C169.631 105.037 169.84 105.15 170.068 105.196C170.296 105.242 170.533 105.22 170.748 105.131C170.963 105.042 171.146 104.892 171.276 104.698C171.405 104.505 171.474 104.277 171.474 104.045C171.474 103.735 171.352 103.437 171.134 103.217C170.916 102.997 170.619 102.872 170.31 102.87ZM170.31 106.394C170.077 106.393 169.849 106.46 169.655 106.588C169.461 106.716 169.309 106.899 169.219 107.114C169.129 107.329 169.104 107.565 169.149 107.794C169.193 108.023 169.304 108.233 169.469 108.398C169.633 108.563 169.842 108.676 170.07 108.721C170.298 108.767 170.535 108.744 170.75 108.655C170.965 108.566 171.148 108.415 171.277 108.221C171.406 108.027 171.475 107.799 171.474 107.566C171.474 107.257 171.352 106.959 171.134 106.74C170.915 106.52 170.619 106.396 170.31 106.394ZM170.31 109.916C170.077 109.914 169.849 109.982 169.655 110.109C169.461 110.237 169.309 110.42 169.219 110.635C169.129 110.849 169.104 111.086 169.148 111.314C169.193 111.543 169.304 111.753 169.467 111.918C169.631 112.084 169.84 112.196 170.068 112.242C170.296 112.289 170.533 112.266 170.748 112.177C170.963 112.089 171.146 111.938 171.276 111.745C171.405 111.551 171.474 111.324 171.474 111.091C171.474 110.781 171.352 110.483 171.134 110.263C170.916 110.043 170.619 109.918 170.31 109.916ZM177.192 105.22C177.424 105.221 177.652 105.153 177.846 105.025C178.039 104.896 178.191 104.713 178.28 104.499C178.37 104.284 178.394 104.048 178.35 103.819C178.305 103.591 178.194 103.381 178.03 103.216C177.866 103.051 177.657 102.939 177.429 102.893C177.201 102.847 176.965 102.87 176.75 102.959C176.535 103.047 176.352 103.198 176.223 103.391C176.093 103.585 176.024 103.812 176.024 104.045C176.024 104.199 176.054 104.351 176.112 104.493C176.171 104.636 176.257 104.765 176.365 104.874C176.473 104.983 176.602 105.07 176.744 105.129C176.886 105.188 177.038 105.219 177.192 105.22ZM173.751 109.916C173.518 109.915 173.291 109.983 173.097 110.111C172.903 110.239 172.752 110.422 172.662 110.637C172.572 110.852 172.548 111.088 172.593 111.316C172.637 111.545 172.749 111.755 172.913 111.919C173.077 112.084 173.286 112.197 173.513 112.243C173.741 112.289 173.978 112.266 174.192 112.177C174.407 112.088 174.591 111.938 174.72 111.744C174.849 111.551 174.918 111.324 174.918 111.091C174.918 110.78 174.796 110.482 174.577 110.262C174.358 110.042 174.061 109.918 173.751 109.916ZM177.192 109.916C176.959 109.915 176.732 109.983 176.538 110.111C176.344 110.239 176.193 110.422 176.103 110.637C176.013 110.852 175.989 111.088 176.034 111.316C176.078 111.545 176.19 111.755 176.354 111.919C176.518 112.084 176.727 112.197 176.954 112.243C177.182 112.289 177.419 112.266 177.633 112.177C177.848 112.088 178.032 111.938 178.161 111.744C178.29 111.551 178.359 111.324 178.359 111.091C178.359 110.78 178.237 110.482 178.018 110.262C177.799 110.042 177.502 109.918 177.192 109.916ZM177.192 106.394C176.959 106.393 176.732 106.461 176.538 106.59C176.344 106.718 176.193 106.901 176.103 107.116C176.013 107.331 175.989 107.567 176.034 107.796C176.079 108.024 176.191 108.234 176.355 108.399C176.519 108.564 176.728 108.676 176.956 108.722C177.184 108.767 177.421 108.744 177.636 108.654C177.85 108.565 178.034 108.414 178.163 108.22C178.291 108.027 178.36 107.799 178.359 107.566C178.359 107.256 178.236 106.958 178.018 106.739C177.799 106.519 177.502 106.395 177.192 106.394ZM173.751 106.394C173.518 106.393 173.291 106.461 173.097 106.59C172.903 106.718 172.752 106.901 172.662 107.116C172.572 107.331 172.548 107.567 172.593 107.796C172.638 108.024 172.75 108.234 172.914 108.399C173.078 108.564 173.287 108.676 173.515 108.722C173.743 108.767 173.98 108.744 174.195 108.654C174.409 108.565 174.593 108.414 174.722 108.22C174.85 108.027 174.919 107.799 174.918 107.566C174.918 107.256 174.795 106.958 174.577 106.739C174.358 106.519 174.061 106.395 173.751 106.394ZM173.751 102.87C173.518 102.869 173.291 102.936 173.097 103.065C172.903 103.193 172.752 103.376 172.662 103.591C172.572 103.805 172.548 104.042 172.593 104.27C172.637 104.498 172.749 104.708 172.913 104.873C173.077 105.038 173.286 105.151 173.513 105.197C173.741 105.242 173.978 105.219 174.192 105.131C174.407 105.042 174.591 104.891 174.72 104.698C174.849 104.505 174.918 104.277 174.918 104.045C174.918 103.734 174.796 103.436 174.577 103.216C174.358 102.996 174.061 102.871 173.751 102.87Z" fill="white"/>
<g opacity="0.4">
<path opacity="0.1" d="M147.636 148.696C153.066 148.696 157.468 144.29 157.468 138.854C157.468 133.419 153.066 129.012 147.636 129.012C142.206 129.012 137.805 133.419 137.805 138.854C137.805 144.29 142.206 148.696 147.636 148.696Z" fill="black" stroke="#6C63FF" stroke-miterlimit="10"/>
<path opacity="0.4" d="M152.245 139.47H148.251V143.468H147.022V139.47H143.028V138.239H147.022V134.241H148.251V138.239H152.245V139.47Z" fill="white"/>
</g>
<path opacity="0.1" d="M199.866 119.17C205.296 119.17 209.697 114.764 209.697 109.329C209.697 103.893 205.296 99.4866 199.866 99.4866C194.436 99.4866 190.034 103.893 190.034 109.329C190.034 114.764 194.436 119.17 199.866 119.17Z" fill="black" stroke="#6C63FF" stroke-miterlimit="10"/>
<path d="M199.866 103.328C199.13 103.338 198.403 103.492 197.727 103.783C197.051 104.074 196.439 104.495 195.925 105.023C195.411 105.551 195.007 106.175 194.734 106.859C194.462 107.544 194.326 108.275 194.336 109.012V113.431C194.333 113.677 194.378 113.921 194.469 114.149C194.56 114.377 194.694 114.585 194.866 114.761C195.037 114.937 195.241 115.077 195.466 115.174C195.692 115.271 195.934 115.323 196.179 115.326H198.023V110.248H195.565V109.018C195.565 107.876 196.018 106.781 196.825 105.973C197.631 105.166 198.725 104.712 199.866 104.712C201.007 104.712 202.101 105.166 202.908 105.973C203.714 106.781 204.168 107.876 204.168 109.018V110.248H201.71V115.323H203.553C203.798 115.32 204.041 115.269 204.267 115.172C204.492 115.075 204.696 114.935 204.868 114.759C205.039 114.583 205.174 114.375 205.265 114.146C205.355 113.918 205.4 113.674 205.396 113.428V109.012C205.406 108.275 205.271 107.544 204.998 106.859C204.726 106.175 204.321 105.551 203.807 105.023C203.294 104.495 202.681 104.074 202.005 103.783C201.329 103.492 200.602 103.338 199.866 103.328Z" fill="white"/>
<g opacity="0.4">
<path opacity="0.1" d="M173.751 148.696C179.181 148.696 183.583 144.29 183.583 138.854C183.583 133.419 179.181 129.012 173.751 129.012C168.321 129.012 163.919 133.419 163.919 138.854C163.919 144.29 168.321 148.696 173.751 148.696Z" fill="black" stroke="#6C63FF" stroke-miterlimit="10"/>
<path opacity="0.4" d="M177.438 137.799V135.339C177.437 135.246 177.417 135.154 177.38 135.068C177.343 134.982 177.29 134.904 177.223 134.839C177.157 134.774 177.078 134.723 176.991 134.688C176.905 134.654 176.812 134.637 176.719 134.638H168.012C167.824 134.636 167.643 134.709 167.509 134.84C167.375 134.972 167.298 135.151 167.296 135.339V142.354C167.299 142.542 167.376 142.721 167.51 142.852C167.644 142.983 167.824 143.057 168.012 143.056H176.716C176.904 143.057 177.085 142.985 177.219 142.853C177.354 142.722 177.431 142.543 177.435 142.354V139.894L180.2 142.699V134.995L177.438 137.799Z" fill="white"/>
</g>
<path opacity="0.1" d="M199.866 148.696C205.296 148.696 209.697 144.29 209.697 138.854C209.697 133.419 205.296 129.012 199.866 129.012C194.436 129.012 190.034 133.419 190.034 138.854C190.034 144.29 194.436 148.696 199.866 148.696Z" fill="black" stroke="#6C63FF" stroke-miterlimit="10"/>
<path d="M199.381 141.389C198.852 141.689 198.254 141.847 197.646 141.847C197.038 141.847 196.441 141.689 195.912 141.389C194.554 141.804 193.721 143.179 193.414 144.387H201.878C201.571 143.179 200.742 141.804 199.381 141.389ZM197.648 134.93C197.044 134.929 196.454 135.108 195.952 135.443C195.449 135.779 195.058 136.256 194.827 136.814C194.595 137.372 194.535 137.986 194.652 138.579C194.77 139.172 195.061 139.716 195.487 140.144C195.914 140.571 196.458 140.862 197.05 140.98C197.642 141.097 198.256 141.037 198.814 140.805C199.371 140.574 199.848 140.182 200.183 139.679C200.518 139.176 200.696 138.585 200.696 137.981C200.696 137.172 200.374 136.396 199.803 135.824C199.231 135.251 198.456 134.93 197.648 134.93ZM197.648 140.306C197.189 140.298 196.743 140.155 196.364 139.896C195.985 139.637 195.69 139.273 195.516 138.848H199.777C199.603 139.273 199.309 139.638 198.93 139.897C198.552 140.157 198.106 140.3 197.648 140.309V140.306Z" fill="white"/>
<path d="M201.784 142.542H206.318C206.177 141.904 205.872 141.313 205.435 140.828C204.997 140.343 204.441 139.979 203.82 139.774C203.291 140.074 202.693 140.232 202.085 140.232C201.676 140.236 201.271 140.167 200.886 140.029C200.672 140.406 200.401 140.746 200.081 141.038C200.784 141.36 201.377 141.884 201.784 142.542ZM201.323 137.237H204.217C204.041 137.66 203.746 138.023 203.367 138.281C202.988 138.539 202.543 138.68 202.085 138.688C201.835 138.686 201.588 138.643 201.353 138.559C201.315 138.806 201.253 139.048 201.166 139.282C201.586 139.416 202.029 139.457 202.467 139.403C202.904 139.35 203.324 139.201 203.699 138.969C204.074 138.737 204.394 138.427 204.637 138.059C204.88 137.691 205.041 137.275 205.108 136.839C205.176 136.403 205.148 135.958 205.027 135.534C204.906 135.11 204.695 134.717 204.408 134.383C204.121 134.048 203.765 133.78 203.364 133.596C202.964 133.412 202.528 133.317 202.088 133.318C201.575 133.319 201.07 133.449 200.621 133.696C200.172 133.944 199.792 134.3 199.516 134.733C199.977 134.999 200.376 135.359 200.687 135.791C200.999 136.223 201.215 136.715 201.323 137.237Z" fill="white"/>
<path d="M173.751 188.064C179.181 188.064 183.583 183.658 183.583 178.222C183.583 172.787 179.181 168.38 173.751 168.38C168.321 168.38 163.919 172.787 163.919 178.222C163.919 183.658 168.321 188.064 173.751 188.064Z" fill="#FF6F61"/>
<path d="M168.703 180.652C169.241 180.143 169.853 179.72 170.519 179.397C170.622 179.351 170.709 179.276 170.77 179.181C170.831 179.086 170.862 178.975 170.86 178.862L170.912 176.949C172.791 176.39 174.799 176.444 176.645 177.103L176.593 179.016C176.592 179.127 176.619 179.236 176.673 179.333C176.727 179.431 176.805 179.512 176.9 179.569C177.568 179.917 178.172 180.375 178.688 180.923C178.744 180.981 178.81 181.029 178.884 181.062C178.958 181.095 179.037 181.113 179.118 181.115C179.199 181.118 179.279 181.104 179.355 181.075C179.43 181.046 179.499 181.003 179.558 180.947L181.119 179.465C181.236 179.353 181.305 179.199 181.31 179.036C181.314 178.874 181.254 178.716 181.143 178.597C180.2 177.6 179.069 176.799 177.816 176.239C176.564 175.679 175.213 175.372 173.841 175.335C172.47 175.298 171.105 175.532 169.824 176.023C168.542 176.514 167.37 177.253 166.374 178.198C166.316 178.253 166.269 178.32 166.236 178.394C166.203 178.468 166.185 178.547 166.183 178.628C166.181 178.709 166.195 178.79 166.224 178.865C166.253 178.94 166.297 179.009 166.353 179.068L167.831 180.63C167.886 180.689 167.953 180.736 168.027 180.769C168.101 180.802 168.18 180.82 168.261 180.822C168.342 180.824 168.422 180.81 168.497 180.781C168.573 180.751 168.642 180.708 168.7 180.652H168.703Z" fill="white"/>
<path opacity="0.1" d="M201.095 82.5708C205.337 82.5708 208.776 79.1283 208.776 74.8818C208.776 70.6352 205.337 67.1927 201.095 67.1927C196.853 67.1927 193.414 70.6352 193.414 74.8818C193.414 79.1283 196.853 82.5708 201.095 82.5708Z" fill="black" stroke="#6C63FF" stroke-miterlimit="10"/>
<path d="M202.831 76.6072C202.302 76.9075 201.703 77.0653 201.095 77.0653C200.487 77.0653 199.889 76.9075 199.359 76.6072C198.001 77.0224 197.169 78.3972 196.861 79.6089H205.329C205.022 78.3972 204.189 77.0224 202.831 76.6072ZM201.095 70.1484C200.492 70.1478 199.901 70.3264 199.399 70.6616C198.897 70.9968 198.506 71.4736 198.274 72.0316C198.043 72.5896 197.982 73.2038 198.099 73.7964C198.217 74.389 198.507 74.9335 198.934 75.3609C199.36 75.7884 199.904 76.0795 200.496 76.1976C201.088 76.3157 201.701 76.2554 202.259 76.0244C202.816 75.7933 203.293 75.4018 203.628 74.8995C203.964 74.3972 204.143 73.8066 204.143 73.2025C204.142 72.3932 203.821 71.6174 203.249 71.0449C202.678 70.4724 201.903 70.15 201.095 70.1484ZM201.095 75.5276C200.637 75.5183 200.191 75.3755 199.812 75.1166C199.433 74.8577 199.138 74.4939 198.963 74.0698H203.227C203.052 74.494 202.757 74.858 202.378 75.1174C201.999 75.3768 201.554 75.5204 201.095 75.5307V75.5276Z" fill="white"/>
<path opacity="0.1" d="M124.301 20.4189C123.585 20.0037 122.618 20.4005 122.126 21.0679C121.634 21.7353 121.512 22.6057 121.373 23.4146C121.1 25.2322 120.9 27.3206 122.126 28.6923C120.123 22.6118 114.362 17.9523 107.993 17.2726" stroke="#6C63FF" stroke-width="3" stroke-miterlimit="10"/>
<path opacity="0.1" d="M248.434 120.761C247.973 120.493 247.353 120.761 247.036 121.179C246.756 121.635 246.589 122.152 246.551 122.686C246.376 123.858 246.244 125.199 247.036 126.069C246.362 124.117 245.153 122.394 243.548 121.096C241.943 119.798 240.006 118.977 237.958 118.728" stroke="#6C63FF" stroke-width="3" stroke-miterlimit="10"/>
<path opacity="0.1" d="M91.8977 80.9991C91.4368 80.7346 90.8162 80.9991 90.4997 81.4174C90.2188 81.8743 90.0523 82.3924 90.0143 82.9275C89.8392 84.0963 89.7071 85.4372 90.4997 86.3107C89.8244 84.3591 88.6154 82.6364 87.0105 81.3386C85.4055 80.0407 83.4689 79.2198 81.4209 78.9692" stroke="#6C63FF" stroke-width="3" stroke-miterlimit="10"/>
<path d="M214.098 224.817C214.405 225.399 214.983 225.756 215.539 226.072C219.402 228.29 223.473 230.124 227.693 231.55C227.798 231.611 227.916 231.647 228.037 231.657C228.158 231.666 228.28 231.648 228.393 231.604C228.506 231.56 228.608 231.491 228.691 231.403C228.774 231.314 228.836 231.208 228.873 231.092C229.358 230.274 229.89 228.939 229.764 227.859C230.163 227.617 230.453 227.229 230.572 226.777C230.738 226.227 230.991 225.708 231.322 225.239C231.896 224.372 232.59 223.501 232.683 222.446C232.675 222.07 232.711 221.694 232.79 221.327C232.953 220.841 233.386 220.521 233.712 220.133C234.219 219.518 234.461 218.725 234.692 217.953C235.65 214.745 236.609 211.537 237.408 208.28C237.666 207.225 237.906 206.167 238.259 205.143C238.566 204.245 238.959 203.384 239.35 202.522C240.745 199.401 242.369 196.387 244.207 193.505C244.494 194.473 244.842 195.422 245.248 196.347C245.457 196.823 245.682 197.294 245.894 197.771C246.696 199.567 246.551 201.873 247.537 203.562C247.947 204.255 248.351 204.947 248.748 205.638C248.973 205.977 249.148 206.347 249.267 206.736C249.332 207.007 249.338 207.29 249.384 207.563C249.593 208.794 250.591 209.661 251.144 210.759C251.651 211.762 251.759 212.912 252.066 214.016C252.794 216.569 254.582 218.786 254.764 221.447C254.786 222.165 254.769 222.883 254.711 223.6C254.665 224.853 254.749 226.109 254.96 227.346C254.977 227.47 255.01 227.592 255.059 227.709C253.484 230.053 251.06 231.693 248.299 232.279C247.777 232.383 247.178 232.494 246.904 232.974C246.576 233.546 246.948 234.333 247.519 234.641C248.09 234.949 248.748 234.918 249.362 234.862C253.77 234.493 258.131 233.688 262.38 232.457C262.595 232.413 262.791 232.306 262.945 232.15C263.097 231.925 263.163 231.653 263.133 231.384C263.13 230.39 262.899 229.41 262.457 228.52L262.764 228.413C262.936 227.183 262.303 225.992 261.812 224.851C260.957 222.861 260.49 220.712 259.815 218.642C258.512 214.643 256.407 210.913 255.9 206.73C255.762 205.58 255.418 204.411 255.344 203.254C255.197 200.898 255.037 198.53 254.524 196.236C254.094 194.347 253.415 192.545 252.988 190.635C252.561 188.725 252.422 186.717 253.049 184.89C253.227 184.367 253.467 183.872 253.63 183.352C254.244 181.319 253.658 179.117 253.061 177.075C252.873 176.429 252.687 175.785 252.502 175.143C252.253 174.298 252.008 173.449 251.737 172.609C251.774 172.575 251.808 172.541 251.845 172.501C252.386 171.886 252.379 170.945 252.767 170.21C252.957 169.832 253.246 169.521 253.449 169.152C253.832 168.354 253.93 167.449 253.728 166.587C253.565 165.726 253.24 164.908 252.994 164.068C252.326 161.764 252.276 159.324 252.846 156.994C253.095 156.001 253.461 155.026 253.513 154.002C253.531 153.317 253.468 152.633 253.326 151.963C252.849 149.379 251.915 146.759 250.02 145.052C249.009 144.129 247.642 143.32 247.534 141.918C247.371 141.855 247.192 141.848 247.024 141.899C246.938 141.58 246.88 141.254 246.852 140.924H246.868C246.962 140.935 247.056 140.935 247.15 140.924C247.23 140.919 247.307 140.897 247.378 140.86C247.417 140.836 247.454 140.808 247.488 140.777C247.608 140.654 247.711 140.516 247.795 140.367C247.921 140.158 248.035 139.934 248.13 139.78C248.226 139.626 248.379 139.38 248.499 139.165C248.857 138.55 249.19 137.924 249.498 137.289V137.264C249.528 137.206 249.556 137.144 249.584 137.086L249.62 137.003L249.676 136.877C249.676 136.846 249.703 136.812 249.716 136.781C249.728 136.751 249.749 136.704 249.765 136.664L249.808 136.563C249.823 136.526 249.836 136.489 249.851 136.449C249.866 136.415 249.879 136.38 249.891 136.345C249.906 136.308 249.918 136.271 249.931 136.234C249.943 136.197 249.955 136.163 249.971 136.126C249.986 136.089 249.992 136.052 250.004 136.016L250.041 135.905C250.041 135.868 250.06 135.834 250.072 135.797L250.103 135.683L250.13 135.576L250.158 135.459C250.158 135.425 250.158 135.391 250.18 135.354C250.201 135.317 250.18 135.274 250.201 135.234C250.223 135.194 250.201 135.167 250.201 135.133L250.22 135.013V134.911C250.22 134.868 250.22 134.828 250.22 134.788C250.22 134.748 250.22 134.721 250.22 134.687C250.22 134.653 250.22 134.604 250.22 134.564V134.493C250.22 134.45 250.22 134.41 250.22 134.367C250.22 134.324 250.22 134.305 250.22 134.275C250.22 134.244 250.22 134.189 250.22 134.146C250.22 134.102 250.22 134.087 250.22 134.059C250.205 133.939 250.181 133.82 250.149 133.703C249.942 132.986 249.522 132.35 248.945 131.879C248.386 131.422 247.765 131.049 247.101 130.769C246.939 130.706 246.791 130.613 246.665 130.495C246.517 130.28 246.394 130.049 246.299 129.806C246.029 129.332 245.488 129.12 244.981 128.994C244.474 128.868 243.93 128.788 243.506 128.465C243.469 128.432 243.425 128.407 243.377 128.391C243.312 128.386 243.247 128.4 243.19 128.431L242.007 128.957C241.995 128.884 241.969 128.813 241.93 128.75C241.89 128.687 241.839 128.632 241.778 128.589C241.718 128.545 241.649 128.515 241.577 128.498C241.504 128.482 241.429 128.48 241.356 128.493C241.064 128.563 240.799 128.716 240.591 128.932C240.555 128.896 240.529 128.85 240.517 128.801C240.504 128.751 240.505 128.699 240.52 128.649L239.598 129.265C239.485 129.338 239.276 129.357 239.291 129.215C238.779 129.776 238.334 130.395 237.967 131.061C237.852 131.264 237.756 131.477 237.678 131.697C237.678 131.744 237.651 131.79 237.638 131.836C237.637 131.845 237.637 131.854 237.638 131.863C237.638 131.903 237.62 131.946 237.614 131.99C237.612 132.002 237.612 132.014 237.614 132.026C237.614 132.079 237.614 132.134 237.614 132.186C237.611 132.246 237.611 132.305 237.614 132.365C237.623 132.536 237.677 132.701 237.771 132.845C237.864 132.988 237.993 133.105 238.145 133.183C238.263 133.227 238.388 133.247 238.514 133.241C238.778 133.21 239.039 133.156 239.294 133.081C239.377 133.061 239.461 133.047 239.546 133.038C239.586 133.035 239.626 133.035 239.666 133.038C239.827 133.035 239.983 133.088 240.108 133.189L240.127 133.207C239.456 133.691 238.91 134.328 238.536 135.066C238.162 135.804 237.97 136.621 237.976 137.449C237.975 138.263 238.16 139.067 238.517 139.799C238.394 139.867 238.293 139.968 238.225 140.091C238.157 140.214 238.125 140.353 238.133 140.494C238.053 140.258 238.01 140.011 238.007 139.762C237.503 139.66 237.137 140.251 236.956 140.758C236.583 141.905 236.295 143.078 236.093 144.267C235.936 145.058 235.786 145.848 235.626 146.639C235.466 147.429 235.319 148.278 235.202 149.099C234.931 151.231 235.027 153.394 235.488 155.493C235.457 155.561 235.429 155.632 235.402 155.699C235.309 155.945 235.048 156.155 235.018 156.416C234.852 157.981 235.841 159.393 236.775 160.62C236.851 160.746 236.957 160.851 237.082 160.928C237.219 160.985 237.369 161.004 237.515 160.983C237.888 160.965 238.259 160.928 238.628 160.873C238.649 161.082 238.674 161.288 238.698 161.488C238.962 163.696 239.414 165.904 239.411 168.128C239.408 170.352 238.987 172.606 239.838 174.587C239.979 174.925 240.253 175.202 240.28 175.552H240.333C239.812 176.614 239.387 177.719 239.061 178.856C238.723 180.19 238.652 181.593 238.274 182.915C237.952 184.038 237.414 185.068 236.981 186.163C236.275 187.942 235.86 189.823 235.752 191.733C235.74 192.61 235.563 193.478 235.23 194.289C234.733 195.262 234.298 196.266 233.927 197.294C233.312 199.121 232.277 200.852 232.083 202.787C231.976 203.882 232.133 205.051 231.675 206.041C231.497 206.428 231.232 206.764 231.024 207.13C230.718 207.716 230.48 208.335 230.314 208.975L227.272 219.072C227.157 219.627 226.901 220.143 226.529 220.57C226.246 220.841 225.874 220.988 225.607 221.268C225.177 221.705 225.069 222.345 225.066 222.997C224.74 223.056 224.424 223.159 224.126 223.304C222.84 223.854 221.456 224.138 220.057 224.138C218.658 224.138 217.274 223.854 215.987 223.304C215.496 223.092 214.937 222.84 214.451 223.083C213.883 223.378 213.791 224.236 214.098 224.817ZM238.33 148.333C238.512 147.497 238.854 146.705 239.337 145.999C240.025 144.864 240.751 143.741 241.408 142.582L241.595 142.4C241.648 142.548 241.697 142.708 241.743 142.846C241.857 143.241 241.948 143.641 242.016 144.046C242.113 144.552 242.142 145.07 242.102 145.584L242.059 145.618C241.811 145.777 241.61 146.002 241.479 146.267C241.393 146.53 241.393 146.815 241.479 147.078L241.451 147.109L241.482 147.088C241.589 147.512 241.789 147.949 241.724 148.379C241.654 148.899 241.236 149.278 240.975 149.723C240.36 150.797 240.557 152.427 239.546 153.085L239.528 153.128C239.311 153.077 239.109 152.977 238.937 152.835C238.764 152.693 238.627 152.513 238.535 152.31C238.615 150.997 238.124 149.65 238.33 148.333Z" fill="url(#paint0_linear)"/>
<path d="M263.535 231.442C263.568 231.709 263.499 231.978 263.342 232.196C263.178 232.352 262.973 232.459 262.752 232.503C258.316 233.719 253.775 234.514 249.19 234.878C248.533 234.927 247.839 234.964 247.258 234.659C246.677 234.355 246.29 233.577 246.643 233.014C246.929 232.54 247.565 232.43 248.097 232.328C250.974 231.766 253.523 230.113 255.212 227.715C255.414 227.371 255.676 227.067 255.986 226.817C256.576 226.414 257.36 226.509 258.057 226.647C259.286 226.9 260.918 227.198 262.027 227.801C263.136 228.404 263.517 230.264 263.535 231.442Z" fill="#3F3D56"/>
<path opacity="0.1" d="M263.535 231.442C263.568 231.709 263.499 231.978 263.342 232.196C263.178 232.352 262.973 232.459 262.752 232.503C258.316 233.719 253.775 234.514 249.19 234.878C248.533 234.927 247.839 234.964 247.258 234.659C246.677 234.355 246.29 233.577 246.643 233.014C246.929 232.54 247.565 232.43 248.097 232.328C250.974 231.766 253.523 230.113 255.212 227.715C255.414 227.371 255.676 227.067 255.986 226.817C256.576 226.414 257.36 226.509 258.057 226.647C259.286 226.9 260.918 227.198 262.027 227.801C263.136 228.404 263.517 230.264 263.535 231.442Z" fill="black"/>
<path d="M227.83 231.144C227.711 231.385 227.506 231.574 227.256 231.673C227.035 231.71 226.808 231.684 226.602 231.596C222.22 230.196 217.98 228.387 213.937 226.192C213.36 225.885 212.758 225.528 212.435 224.962C212.112 224.396 212.211 223.526 212.804 223.24C213.301 223 213.885 223.24 214.395 223.458C217.115 224.556 220.155 224.556 222.875 223.458C223.231 223.279 223.618 223.166 224.015 223.126C224.724 223.111 225.336 223.612 225.858 224.113C226.755 224.996 227.956 226.137 228.559 227.244C229.161 228.351 228.454 230.144 227.83 231.144Z" fill="#3F3D56"/>
<path opacity="0.1" d="M227.83 231.144C227.711 231.385 227.506 231.574 227.256 231.673C227.035 231.71 226.808 231.684 226.602 231.596C222.22 230.196 217.98 228.387 213.937 226.192C213.36 225.885 212.758 225.528 212.435 224.962C212.112 224.396 212.211 223.526 212.804 223.24C213.301 223 213.885 223.24 214.395 223.458C217.115 224.556 220.155 224.556 222.875 223.458C223.231 223.279 223.618 223.166 224.015 223.126C224.724 223.111 225.336 223.612 225.858 224.113C226.755 224.996 227.956 226.137 228.559 227.244C229.161 228.351 228.454 230.144 227.83 231.144Z" fill="black"/>
<path d="M251.248 172.246C251.706 173.476 252.09 174.707 252.477 175.937L253.061 177.844C253.675 179.858 254.29 182.03 253.654 184.038C253.485 184.558 253.236 185.047 253.039 185.576C252.388 187.378 252.539 189.38 252.975 191.247C253.411 193.114 254.118 194.907 254.566 196.783C255.11 199.047 255.267 201.397 255.42 203.707C255.497 204.848 255.854 206.001 256.001 207.136C256.53 211.26 258.72 214.957 260.078 218.888C260.782 220.927 261.267 223.046 262.161 225.011C262.671 226.137 263.332 227.303 263.154 228.524C260.656 229.409 257.888 229.394 255.534 228.179C255.386 228.126 255.257 228.029 255.165 227.901C255.073 227.773 255.022 227.62 255.018 227.463C254.802 226.245 254.72 225.007 254.772 223.772C254.831 223.068 254.848 222.362 254.824 221.656C254.637 219.032 252.772 216.846 252.016 214.324C251.709 213.25 251.568 212.103 251.039 211.113C250.462 210.03 249.423 209.166 249.196 207.96C249.147 207.689 249.141 207.413 249.076 207.145C248.95 206.758 248.767 206.392 248.532 206.059L247.279 204.002C246.249 202.335 246.4 200.059 245.567 198.287C245.346 197.817 245.11 197.365 244.891 196.885C244.47 195.974 244.108 195.037 243.807 194.08C241.894 196.908 240.199 199.879 238.738 202.965C238.315 203.808 237.935 204.671 237.601 205.552C237.232 206.561 236.986 207.606 236.713 208.646C235.883 211.86 234.869 215.025 233.883 218.18C233.644 218.943 233.389 219.718 232.863 220.333C232.525 220.715 232.077 221.028 231.905 221.511C231.823 221.872 231.786 222.242 231.794 222.612C231.696 223.655 230.974 224.513 230.375 225.38C230.031 225.846 229.767 226.366 229.594 226.918C229.523 227.166 229.401 227.395 229.234 227.591C229.067 227.787 228.86 227.945 228.627 228.055C228.394 228.164 228.141 228.222 227.884 228.225C227.626 228.228 227.372 228.175 227.136 228.071H227.112C226.868 227.95 226.634 227.81 226.411 227.653C225.83 227.288 225.278 226.876 224.761 226.423C224.304 225.981 223.893 225.495 223.532 224.971C223.471 224.882 223.43 224.78 223.415 224.672C223.399 224.565 223.408 224.455 223.442 224.352C223.476 224.249 223.534 224.155 223.61 224.078C223.687 224 223.78 223.942 223.883 223.907C223.818 223.052 223.8 222.077 224.414 221.487C224.7 221.21 225.087 221.062 225.382 220.798C225.766 220.383 226.033 219.873 226.156 219.321C227.205 216.016 228.252 212.711 229.296 209.406C229.471 208.77 229.719 208.157 230.037 207.579C230.255 207.216 230.528 206.887 230.716 206.505C231.192 205.527 231.023 204.377 231.14 203.294C231.339 201.384 232.408 199.681 233.057 197.878C233.445 196.86 233.898 195.869 234.415 194.91C234.762 194.115 234.947 193.259 234.959 192.391C235.072 190.5 235.504 188.642 236.237 186.895C236.685 185.825 237.247 184.801 237.582 183.691C237.979 182.386 238.049 181.002 238.406 179.692C238.748 178.563 239.193 177.467 239.736 176.42C240.182 175.497 240.639 174.553 241.374 173.836C242.578 172.661 244.351 172.277 246.031 172.225C247.712 172.172 249.574 172.421 251.248 172.246Z" fill="#3F3D56"/>
<path d="M240.934 148.293C243.097 147.014 245.237 145.693 247.352 144.332C246.846 143.649 246.566 142.824 246.551 141.973C246.551 141.939 246.551 141.905 246.551 141.871C246.52 141.044 246.833 140.334 245.792 140.441C244.791 140.571 243.802 140.776 242.833 141.056C242.556 141.127 240.16 142.01 240.068 141.921C240.602 142.555 240.997 143.295 241.226 144.092C241.344 144.481 241.44 144.876 241.512 145.276C241.721 146.334 241.73 147.577 240.934 148.293Z" fill="#A0616A"/>
<path d="M238.031 162.481C238.308 164.659 238.778 166.839 238.775 169.029C238.771 171.219 238.332 173.449 239.22 175.411C239.368 175.743 239.65 176.001 239.681 176.364C240.91 176.577 242.108 176.001 243.279 175.586C244.352 175.21 245.466 174.96 246.597 174.842C247.519 174.75 248.465 174.744 249.38 174.568C250.293 174.425 251.136 173.994 251.786 173.338C252.348 172.723 252.342 171.8 252.735 171.077C252.935 170.705 253.236 170.401 253.448 170.035C253.844 169.253 253.947 168.355 253.737 167.504C253.524 166.663 253.269 165.833 252.972 165.019C252.275 162.753 252.222 160.337 252.818 158.043C253.076 157.062 253.451 156.099 253.513 155.087C253.531 154.411 253.466 153.736 253.319 153.076C252.821 150.529 251.848 147.943 249.875 146.26C248.821 145.359 247.396 144.55 247.285 143.185C246.83 143.006 246.342 143.311 245.952 143.6L241.57 146.832C241.31 146.986 241.098 147.208 240.956 147.475C240.682 148.13 241.312 148.85 241.211 149.557C241.137 150.071 240.701 150.443 240.431 150.886C239.785 151.941 239.994 153.55 238.94 154.199C238.845 154.395 238.756 154.598 238.676 154.814C238.3 155.889 238.047 157.003 237.924 158.135C237.777 159.583 237.813 161.043 238.031 162.481Z" fill="#3F3D56"/>
<path opacity="0.1" d="M240.08 141.927C240.614 142.561 241.009 143.301 241.238 144.098C241.587 144.176 241.944 144.215 242.301 144.215C244.089 144.215 245.288 142.164 246.176 140.755C246.148 139.928 246.833 140.34 245.792 140.447C244.791 140.577 243.802 140.782 242.833 141.063C242.556 141.133 240.16 142.016 240.08 141.927Z" fill="black"/>
<path d="M242.301 143.794C245.077 143.794 247.328 141.541 247.328 138.762C247.328 135.983 245.077 133.73 242.301 133.73C239.525 133.73 237.275 135.983 237.275 138.762C237.275 141.541 239.525 143.794 242.301 143.794Z" fill="#A0616A"/>
<path d="M238.456 142.325L239.618 143.599C239.999 144.017 240.646 144.047 241.063 143.665L244.966 140.099C245.384 139.717 245.413 139.07 245.032 138.652L243.87 137.378C243.489 136.96 242.842 136.93 242.425 137.312L238.522 140.878C238.104 141.259 238.075 141.907 238.456 142.325Z" fill="#3F3D56"/>
<path opacity="0.1" d="M238.456 142.325L239.618 143.599C239.999 144.017 240.646 144.047 241.063 143.665L244.966 140.099C245.384 139.717 245.413 139.07 245.032 138.652L243.87 137.378C243.489 136.96 242.842 136.93 242.425 137.312L238.522 140.878C238.104 141.259 238.075 141.907 238.456 142.325Z" fill="black"/>
<path d="M242.615 140.125C242.846 140.125 243.033 139.937 243.033 139.706C243.033 139.475 242.846 139.288 242.615 139.288C242.384 139.288 242.197 139.475 242.197 139.706C242.197 139.937 242.384 140.125 242.615 140.125Z" fill="white"/>
<path opacity="0.1" d="M238.031 162.481C241.908 161.909 245.429 159.578 248.124 156.687C248.628 156.211 249.017 155.627 249.264 154.98C249.399 154.438 249.446 153.878 249.402 153.322L249.337 151.101C249.31 150.129 249.27 149.121 248.8 148.272C248.33 147.423 247.282 146.811 246.379 147.165C244.004 148.087 242.458 150.197 241.1 152.356C240.712 153.029 240.288 153.681 239.832 154.309C239.601 154.601 239.288 154.9 238.91 154.86C238.83 154.853 238.752 154.832 238.679 154.798C238.303 155.873 238.05 156.988 237.927 158.12C237.777 159.572 237.812 161.038 238.031 162.481Z" fill="black"/>
<path d="M237.684 149.514C237.876 148.683 238.233 147.898 238.734 147.208C240.237 144.855 241.926 142.557 242.728 139.879C241.558 140.091 241.373 142.108 240.187 142.198L240.28 140.743C240.28 140.497 240.28 140.198 240.08 140.069C239.88 139.94 239.524 140.109 239.392 140.352C239.26 140.595 239.232 140.89 239.109 141.14C238.986 141.389 238.697 141.61 238.442 141.499L238.338 141.017C238.228 140.994 238.115 140.996 238.006 141.023C237.898 141.051 237.797 141.103 237.711 141.175C237.626 141.247 237.558 141.338 237.512 141.441C237.467 141.543 237.446 141.655 237.45 141.767C237.366 141.535 237.322 141.291 237.318 141.044C236.793 140.946 236.412 141.527 236.224 142.028C235.835 143.157 235.533 144.314 235.321 145.488L234.839 147.829C234.67 148.638 234.504 149.447 234.393 150.262C234.104 152.425 234.218 154.624 234.731 156.745C235.375 156.388 235.999 155.997 236.602 155.573C237.066 155.18 237.585 154.734 237.76 154.134C238.194 152.621 237.429 151.037 237.684 149.514Z" fill="#A0616A"/>
<path d="M246.379 146.537C247.282 146.183 248.33 146.796 248.8 147.644C249.27 148.493 249.31 149.49 249.338 150.474L249.399 152.701C249.445 153.257 249.4 153.817 249.264 154.358C249.017 155.005 248.628 155.588 248.127 156.065C245.147 159.261 241.162 161.768 236.799 161.98C236.647 162 236.491 161.981 236.348 161.924C236.224 161.846 236.119 161.741 236.041 161.617C235.067 160.405 234.037 159.012 234.197 157.468C234.225 157.21 234.504 157 234.597 156.761C235.182 155.363 236.255 154.226 237.617 153.562L237.881 153.439C237.983 153.642 238.128 153.821 238.307 153.961C238.486 154.102 238.694 154.201 238.916 154.251C239.285 154.288 239.601 153.992 239.838 153.7C240.295 153.071 240.719 152.418 241.107 151.744C242.459 149.564 244.007 147.463 246.379 146.537Z" fill="#3F3D56"/>
<path d="M246.069 142.053C245.641 141.832 245.574 141.263 245.531 140.783C245.483 140.224 245.398 139.669 245.276 139.122C245.144 138.507 244.926 137.873 244.403 137.547C244.22 137.434 244.011 137.368 243.795 137.358C243.58 137.347 243.365 137.391 243.172 137.486C242.978 137.581 242.812 137.724 242.688 137.901C242.564 138.078 242.487 138.283 242.465 138.498C242.471 138.6 242.44 138.701 242.379 138.784C242.337 138.822 242.286 138.849 242.231 138.86C241.99 138.916 241.737 138.879 241.522 138.757C241.306 138.635 241.144 138.438 241.067 138.202C240.978 137.895 241.045 137.498 240.827 137.246C240.609 136.994 240.351 137 240.139 136.834C240.01 136.707 239.913 136.552 239.852 136.381C239.792 136.211 239.771 136.029 239.792 135.849C239.792 135.391 239.853 134.844 239.484 134.561C238.928 134.127 238.093 134.816 237.438 134.561C237.257 134.473 237.107 134.332 237.006 134.157C236.906 133.982 236.861 133.781 236.876 133.58C236.914 133.177 237.051 132.79 237.275 132.454C237.66 131.795 238.123 131.184 238.655 130.636C238.655 130.772 238.867 130.756 238.984 130.682L239.954 130.092C239.938 130.141 239.937 130.194 239.951 130.244C239.964 130.293 239.992 130.338 240.031 130.372C240.252 130.158 240.527 130.009 240.827 129.941C240.978 129.913 241.133 129.945 241.26 130.031C241.387 130.117 241.476 130.249 241.506 130.399L242.735 129.867C242.785 129.833 242.845 129.818 242.906 129.824C242.966 129.83 243.022 129.857 243.064 129.901C243.506 130.209 244.071 130.298 244.6 130.421C245.128 130.544 245.691 130.756 245.973 131.224C246.074 131.464 246.203 131.691 246.357 131.9C246.493 132.02 246.651 132.113 246.821 132.174C247.514 132.447 248.165 132.814 248.757 133.266C249.351 133.723 249.789 134.353 250.013 135.068C250.345 136.265 249.866 137.529 249.31 138.633C248.886 139.477 248.41 140.293 247.884 141.078C247.688 141.386 247.417 141.967 247.101 142.145C246.757 142.241 246.39 142.208 246.069 142.053Z" fill="#3F3D56"/>
<path opacity="0.1" d="M237.447 133.306C238.101 133.558 238.937 132.869 239.493 133.306C239.853 133.589 239.8 134.136 239.8 134.595C239.78 134.774 239.801 134.956 239.861 135.127C239.921 135.297 240.019 135.452 240.148 135.579C240.36 135.745 240.661 135.785 240.836 135.991C241.011 136.197 240.986 136.628 241.075 136.948C241.153 137.183 241.315 137.381 241.53 137.502C241.746 137.624 241.999 137.661 242.24 137.606C242.295 137.594 242.346 137.568 242.387 137.529C242.449 137.447 242.479 137.345 242.473 137.243C242.496 137.028 242.573 136.823 242.697 136.646C242.82 136.469 242.987 136.327 243.18 136.232C243.374 136.137 243.589 136.092 243.804 136.103C244.019 136.114 244.229 136.179 244.412 136.292C244.934 136.618 245.152 137.264 245.285 137.867C245.406 138.414 245.492 138.969 245.54 139.528C245.583 140.008 245.65 140.577 246.077 140.798C246.404 140.958 246.778 140.991 247.128 140.89C247.435 140.712 247.715 140.122 247.911 139.823C248.437 139.034 248.913 138.212 249.337 137.363C249.69 136.706 249.944 136.002 250.093 135.271C250.314 136.403 249.859 137.578 249.337 138.621C248.913 139.464 248.437 140.281 247.911 141.066C247.715 141.373 247.444 141.955 247.128 142.133C246.778 142.234 246.404 142.201 246.077 142.041C245.65 141.819 245.583 141.25 245.54 140.771C245.492 140.212 245.406 139.657 245.285 139.11C245.152 138.495 244.934 137.861 244.412 137.535C244.229 137.421 244.019 137.356 243.804 137.346C243.589 137.335 243.374 137.379 243.18 137.474C242.987 137.569 242.82 137.712 242.697 137.888C242.573 138.065 242.496 138.271 242.473 138.485C242.479 138.588 242.449 138.689 242.387 138.771C242.346 138.81 242.295 138.837 242.24 138.848C241.999 138.904 241.746 138.867 241.53 138.745C241.315 138.623 241.153 138.425 241.075 138.19C240.986 137.883 241.054 137.486 240.836 137.234C240.618 136.981 240.36 136.988 240.148 136.821C240.019 136.694 239.921 136.54 239.861 136.369C239.801 136.199 239.78 136.017 239.8 135.837C239.8 135.379 239.862 134.832 239.493 134.549C238.937 134.115 238.101 134.804 237.447 134.549C237.266 134.46 237.115 134.32 237.015 134.145C236.915 133.97 236.869 133.769 236.885 133.567C236.896 133.346 236.948 133.128 237.038 132.925C237.127 133.095 237.271 133.23 237.447 133.306Z" fill="black"/>
</g>
<defs>
<linearGradient id="paint0_linear" x1="238.532" y1="234.899" x2="238.532" y2="128.385" gradientUnits="userSpaceOnUse">
<stop stop-color="#808080" stop-opacity="0.25"/>
<stop offset="0.54" stop-color="#808080" stop-opacity="0.12"/>
<stop offset="1" stop-color="#808080" stop-opacity="0.1"/>
</linearGradient>
<clipPath id="clip0">
<rect width="352" height="237" fill="white"/>
</clipPath>
</defs>
</svg>
