<svg width="300" height="250" viewBox="0 0 300 250" fill="none" xmlns="http://www.w3.org/2000/svg">
<g clip-path="url(#clip0)">
<path d="M109.166 189.635C108.257 187.383 108.158 184.868 108.884 182.546C109.611 180.224 111.116 178.247 113.128 176.973C113.798 176.552 113.186 175.459 112.512 175.883C110.205 177.309 108.482 179.561 107.672 182.213C106.861 184.865 107.017 187.732 108.112 190.273C108.42 191.018 109.471 190.375 109.166 189.635H109.166Z" fill="white"/>
<path d="M109.515 191.334C107.869 188.317 108.256 184.706 108.848 181.443C109.466 178.038 110.276 174.58 109.575 171.116C109.257 169.434 108.505 167.873 107.398 166.598C106.865 165.999 106.004 166.894 106.535 167.491C108.605 169.817 108.845 173.192 108.509 176.188C108.113 179.723 106.991 183.168 107.131 186.76C107.167 188.581 107.623 190.368 108.461 191.971C108.546 192.109 108.679 192.209 108.833 192.247C108.986 192.286 109.149 192.262 109.285 192.179C109.422 192.096 109.522 191.962 109.565 191.804C109.608 191.647 109.59 191.478 109.515 191.334L109.515 191.334Z" fill="white"/>
<path d="M118.346 200.968H97.605C97.1198 200.968 96.6546 200.768 96.3115 200.413C95.9684 200.058 95.7754 199.576 95.7749 199.074V192.769C95.7767 191.149 96.3994 189.596 97.5064 188.45C98.6135 187.305 100.114 186.66 101.68 186.658H104.722C104.884 186.658 105.039 186.592 105.153 186.473C105.268 186.355 105.332 186.194 105.332 186.027V183.081C105.332 182.802 105.44 182.534 105.63 182.337C105.821 182.14 106.079 182.029 106.349 182.029H109.602C109.872 182.029 110.13 182.14 110.321 182.337C110.511 182.534 110.619 182.802 110.619 183.081V186.027C110.619 186.194 110.684 186.355 110.798 186.473C110.912 186.592 111.067 186.658 111.229 186.658H114.271C115.837 186.66 117.338 187.305 118.445 188.45C119.552 189.596 120.174 191.149 120.176 192.769V199.074C120.176 199.576 119.983 200.058 119.64 200.413C119.296 200.768 118.831 200.968 118.346 200.968Z" fill="#CCCCCC"/>
<path d="M108.295 163.106C108.732 165.504 108.191 167.623 107.087 167.838C105.984 168.054 104.735 166.284 104.298 163.885C103.862 161.487 105.205 157.498 105.205 157.498C105.205 157.498 107.858 160.707 108.295 163.106Z" fill="white"/>
<path d="M116.67 174.264C115.287 176.241 113.428 177.292 112.518 176.61C111.609 175.929 111.992 173.773 113.375 171.796C114.758 169.819 118.48 168.087 118.48 168.087C118.48 168.087 118.053 172.287 116.67 174.264Z" fill="white"/>
<path d="M70.9372 38.1202C70.0289 35.8676 69.9291 33.353 70.6558 31.0309C71.3825 28.7087 72.8878 26.7321 74.8996 25.4581C75.5696 25.0366 74.9572 23.9442 74.2838 24.3679C71.9762 25.7939 70.2539 28.046 69.443 30.6978C68.6321 33.3497 68.7889 36.2172 69.8837 38.7575C70.1915 39.5023 71.2428 38.8598 70.9372 38.1202H70.9372Z" fill="white"/>
<path d="M71.2861 39.8184C69.6405 36.8014 70.0278 33.1909 70.6197 29.9283C71.2375 26.5225 72.0475 23.0644 71.3467 19.6005C71.0289 17.9187 70.2765 16.3575 69.1697 15.0829C68.6367 14.4838 67.7756 15.3785 68.307 15.9757C70.3765 18.3019 70.6165 21.6764 70.2808 24.6733C69.8849 28.2081 68.7628 31.6525 68.9021 35.2444C68.9385 37.0663 69.3947 38.853 70.2326 40.4557C70.3171 40.5942 70.4503 40.6934 70.6041 40.7322C70.7579 40.771 70.9202 40.7465 71.0569 40.6639C71.1936 40.5812 71.2939 40.4468 71.3366 40.2891C71.3794 40.1314 71.3613 39.9626 71.2861 39.8185L71.2861 39.8184Z" fill="white"/>
<path d="M80.1176 49.4528H59.3765C58.8913 49.4523 58.4261 49.2525 58.083 48.8975C57.7399 48.5424 57.5469 48.061 57.5464 47.5589V41.254C57.5482 39.6338 58.1709 38.0805 59.2779 36.9349C60.3849 35.7893 61.8858 35.1449 63.4514 35.1431H66.4935C66.6553 35.1429 66.8103 35.0763 66.9247 34.9579C67.0391 34.8396 67.1034 34.6791 67.1036 34.5117V31.5656C67.1039 31.2867 67.2111 31.0192 67.4017 30.822C67.5923 30.6247 67.8507 30.5137 68.1203 30.5134H71.3738C71.6433 30.5137 71.9018 30.6247 72.0924 30.822C72.283 31.0192 72.3902 31.2867 72.3905 31.5656V34.5117C72.3907 34.6791 72.455 34.8396 72.5694 34.9579C72.6837 35.0763 72.8388 35.1429 73.0005 35.1431H76.0427C77.6082 35.1449 79.1091 35.7893 80.2162 36.9349C81.3232 38.0805 81.9459 39.6338 81.9477 41.254V47.5589C81.9471 48.061 81.7541 48.5424 81.411 48.8975C81.068 49.2525 80.6028 49.4523 80.1176 49.4528Z" fill="#CCCCCC"/>
<path d="M70.0658 11.5908C70.5025 13.9892 69.9619 16.108 68.8582 16.3232C67.7546 16.5384 66.506 14.7685 66.0693 12.3701C65.6326 9.97165 66.9756 5.98328 66.9756 5.98328C66.9756 5.98328 69.6291 9.19234 70.0658 11.5908Z" fill="white"/>
<path d="M78.441 22.7492C77.0581 24.7262 75.1996 25.7764 74.2899 25.0949C73.3802 24.4134 73.7638 22.2582 75.1467 20.2812C76.5296 18.3042 80.2517 16.5718 80.2517 16.5718C80.2517 16.5718 79.8239 20.7721 78.441 22.7492Z" fill="white"/>
<path d="M29.6884 114.478H13.0142V120.791H29.6884V114.478Z" fill="white"/>
<path d="M29.6884 135.101H13.0142V141.414H29.6884V135.101Z" fill="white"/>
<path d="M131.36 249.579H6.9137C5.0807 249.577 3.32337 248.823 2.02725 247.481C0.731123 246.14 0.00205489 244.321 0 242.424V7.15488C0.00205489 5.25794 0.731123 3.43931 2.02725 2.09797C3.32337 0.756628 5.0807 0.00212657 6.9137 0H131.36C133.193 0.00213547 134.951 0.756636 136.247 2.09797C137.543 3.43931 138.272 5.25795 138.274 7.15488V242.424C138.272 244.321 137.543 246.14 136.247 247.481C134.951 248.822 133.193 249.577 131.36 249.579ZM6.9137 0.841751C5.29636 0.843645 3.74578 1.50938 2.60214 2.69291C1.45851 3.87644 0.815206 5.48112 0.813376 7.15488V242.424C0.815206 244.098 1.45851 245.703 2.60214 246.886C3.74578 248.07 5.29636 248.735 6.9137 248.737H131.36C132.978 248.735 134.528 248.07 135.672 246.886C136.815 245.703 137.459 244.098 137.461 242.424V7.15488C137.459 5.48112 136.815 3.87644 135.672 2.69291C134.528 1.50938 132.978 0.843645 131.36 0.841751H6.9137Z" fill="white"/>
<path d="M137.868 48.5912H0.407227V49.4329H137.868V48.5912Z" fill="white"/>
<path d="M137.868 99.1096H0.407227V99.9514H137.868V99.1096Z" fill="white"/>
<path d="M137.868 149.628H0.407227V150.47H137.868V149.628Z" fill="white"/>
<path d="M137.868 200.146H0.407227V200.988H137.868V200.146Z" fill="white"/>
<path d="M28.4683 150.673H14.6409C14.1018 150.673 13.5849 150.451 13.2037 150.056C12.8225 149.662 12.608 149.127 12.6074 148.569V107.744C12.608 107.186 12.8225 106.651 13.2037 106.257C13.5849 105.862 14.1018 105.64 14.6409 105.64H28.4683C29.0074 105.64 29.5242 105.862 29.9054 106.257C30.2867 106.651 30.5011 107.186 30.5017 107.744V148.569C30.5011 149.127 30.2867 149.662 29.9054 150.056C29.5242 150.451 29.0074 150.673 28.4683 150.673ZM14.6409 106.482C14.3174 106.482 14.0073 106.615 13.7786 106.852C13.5498 107.088 13.4212 107.409 13.4208 107.744V148.569C13.4212 148.904 13.5498 149.225 13.7786 149.461C14.0073 149.698 14.3174 149.831 14.6409 149.832H28.4683C28.7917 149.831 29.1019 149.698 29.3306 149.461C29.5593 149.225 29.688 148.904 29.6883 148.569V107.744C29.688 107.409 29.5593 107.088 29.3306 106.852C29.1019 106.615 28.7917 106.482 28.4683 106.482H14.6409Z" fill="white"/>
<path d="M55.3095 114.478H38.6353V120.791H55.3095V114.478Z" fill="white"/>
<path d="M55.3095 135.101H38.6353V141.414H55.3095V135.101Z" fill="white"/>
<path d="M54.0894 150.673H40.262C39.7228 150.673 39.206 150.451 38.8248 150.056C38.4436 149.662 38.2291 149.127 38.2285 148.569V107.744C38.2291 107.186 38.4436 106.651 38.8248 106.257C39.206 105.862 39.7228 105.64 40.262 105.64H54.0894C54.6285 105.64 55.1453 105.862 55.5265 106.257C55.9077 106.651 56.1222 107.186 56.1228 107.744V148.569C56.1222 149.127 55.9077 149.662 55.5265 150.056C55.1453 150.451 54.6285 150.673 54.0894 150.673ZM40.262 106.482C39.9385 106.482 39.6284 106.615 39.3996 106.852C39.1709 107.088 39.0423 107.409 39.0419 107.744V148.569C39.0423 148.904 39.1709 149.225 39.3996 149.461C39.6284 149.698 39.9385 149.831 40.262 149.832H54.0894C54.4128 149.831 54.7229 149.698 54.9517 149.461C55.1804 149.225 55.3091 148.904 55.3094 148.569V107.744C55.3091 107.409 55.1804 107.088 54.9517 106.852C54.7229 106.615 54.4128 106.482 54.0894 106.482H40.262Z" fill="white"/>
<path d="M95.9784 63.5521H79.3042V69.8653H95.9784V63.5521Z" fill="white"/>
<path d="M95.9784 84.175H79.3042V90.4882H95.9784V84.175Z" fill="white"/>
<path d="M94.7583 99.7474H80.9309C80.3918 99.7468 79.8749 99.5249 79.4937 99.1304C79.1125 98.7359 78.8981 98.201 78.8975 97.6431V56.8181C78.8981 56.2602 79.1125 55.7253 79.4937 55.3308C79.8749 54.9363 80.3918 54.7144 80.9309 54.7137H94.7583C95.2974 54.7144 95.8143 54.9363 96.1955 55.3308C96.5767 55.7253 96.7911 56.2602 96.7917 56.8181V97.6431C96.7911 98.201 96.5767 98.7359 96.1955 99.1304C95.8143 99.5249 95.2974 99.7468 94.7583 99.7474ZM80.9309 55.5555C80.6074 55.5559 80.2973 55.689 80.0686 55.9257C79.8399 56.1624 79.7112 56.4834 79.7108 56.8181V97.6431C79.7112 97.9778 79.8399 98.2988 80.0686 98.5355C80.2973 98.7722 80.6074 98.9053 80.9309 98.9057H94.7583C95.0818 98.9053 95.3919 98.7722 95.6206 98.5355C95.8494 98.2988 95.978 97.9778 95.9784 97.6431V56.8181C95.978 56.4834 95.8494 56.1624 95.6206 55.9257C95.3919 55.689 95.0818 55.5559 94.7583 55.5555H80.9309Z" fill="white"/>
<path d="M121.6 63.5521H104.925V69.8653H121.6V63.5521Z" fill="white"/>
<path d="M121.6 84.175H104.925V90.4882H121.6V84.175Z" fill="white"/>
<path d="M75.7614 110.708L60.1528 116.778L62.2986 122.687L77.9073 116.617L75.7614 110.708Z" fill="white"/>
<path d="M82.7717 130.013L67.1631 136.083L69.3089 141.992L84.9175 135.922L82.7717 130.013Z" fill="white"/>
<path d="M73.2624 150.203C72.8489 150.202 72.4454 150.071 72.1056 149.827C71.7658 149.584 71.5057 149.238 71.36 148.838L57.4837 110.622C57.2947 110.1 57.3137 109.521 57.5364 109.013C57.7591 108.505 58.1675 108.109 58.6719 107.912L71.6157 102.879C71.8657 102.781 72.1317 102.736 72.3986 102.745C72.6655 102.754 72.928 102.818 73.1712 102.932C73.4144 103.046 73.6335 103.209 73.8159 103.411C73.9983 103.613 74.1405 103.85 74.2344 104.108L88.1107 142.324C88.2997 142.847 88.2808 143.425 88.0581 143.933C87.8353 144.441 87.427 144.837 86.9226 145.034H86.9225L73.9788 150.068C73.7498 150.157 73.5072 150.203 73.2624 150.203ZM72.3317 103.585C72.1848 103.585 72.0392 103.613 71.9018 103.667L58.9581 108.7C58.6554 108.818 58.4104 109.056 58.2767 109.361C58.1431 109.665 58.1317 110.013 58.2451 110.326L72.1214 148.542C72.1778 148.697 72.2631 148.839 72.3726 148.96C72.482 149.082 72.6135 149.179 72.7594 149.248C72.9053 149.316 73.0628 149.354 73.2229 149.36C73.3831 149.365 73.5427 149.338 73.6927 149.28L86.6364 144.246C86.9391 144.128 87.1841 143.891 87.3177 143.586C87.4514 143.281 87.4628 142.934 87.3493 142.62L73.473 104.404C73.3856 104.164 73.2296 103.957 73.0257 103.811C72.8218 103.664 72.5798 103.586 72.3317 103.585Z" fill="white"/>
<path d="M19.6389 60.6236L4.03027 66.6935L6.17609 72.6031L21.7847 66.5333L19.6389 60.6236Z" fill="white"/>
<path d="M26.6486 79.9287L11.04 85.9985L13.1859 91.9082L28.7945 85.8384L26.6486 79.9287Z" fill="white"/>
<path d="M17.1394 100.119C16.7259 100.118 16.3224 99.9871 15.9825 99.7432C15.6427 99.4993 15.3827 99.1542 15.237 98.7537L1.36067 60.5378C1.17167 60.0154 1.19062 59.4366 1.41336 58.9286C1.63609 58.4206 2.04443 58.0247 2.54881 57.8278L15.4926 52.7944C15.7426 52.6971 16.0086 52.6518 16.2755 52.6609C16.5425 52.6701 16.805 52.7336 17.0482 52.8478C17.2914 52.962 17.5104 53.1247 17.6929 53.3265C17.8753 53.5283 18.0175 53.7654 18.1114 54.0241L31.9877 92.2399C32.1767 92.7624 32.1577 93.3411 31.935 93.8492C31.7123 94.3572 31.3039 94.7531 30.7996 94.95H30.7995L17.8557 99.9834C17.6268 100.073 17.3841 100.119 17.1394 100.119ZM16.2086 53.5009C16.0618 53.5011 15.9161 53.5287 15.7787 53.5823L2.83501 58.6157C2.53235 58.7339 2.28732 58.9714 2.15367 59.2763C2.02002 59.5811 2.00865 59.9284 2.12207 60.2419L15.9984 98.4577C16.0547 98.6129 16.1401 98.7552 16.2495 98.8763C16.359 98.9973 16.4904 99.0949 16.6363 99.1634C16.7822 99.2319 16.9398 99.27 17.0999 99.2755C17.26 99.281 17.4196 99.2538 17.5696 99.1955L30.5134 94.162C30.816 94.0439 31.061 93.8063 31.1947 93.5015C31.3284 93.1966 31.3397 92.8494 31.2263 92.5359L17.35 54.32C17.2626 54.0798 17.1065 53.8727 16.9027 53.7264C16.6988 53.5801 16.4567 53.5014 16.2086 53.5009Z" fill="white"/>
<path d="M254.994 105.219C261.956 105.219 267.601 99.3775 267.601 92.1718C267.601 84.966 261.956 79.1246 254.994 79.1246C248.031 79.1246 242.386 84.966 242.386 92.1718C242.386 99.3775 248.031 105.219 254.994 105.219Z" fill="#2F2E41"/>
<path d="M198.985 151.713C199.58 151.952 200.219 152.053 200.856 152.009C201.494 151.964 202.114 151.776 202.673 151.456C203.232 151.137 203.717 150.695 204.093 150.161C204.47 149.627 204.728 149.014 204.851 148.365L239.516 125.731L233.206 118.38L201.101 142.955C200.034 142.814 198.955 143.083 198.067 143.711C197.179 144.339 196.544 145.282 196.284 146.361C196.023 147.441 196.154 148.582 196.651 149.569C197.149 150.555 197.979 151.318 198.985 151.713Z" fill="#FFB8B8"/>
<path d="M232.279 131.748C231.972 131.749 231.67 131.67 231.4 131.518C231.131 131.366 230.902 131.147 230.736 130.88L226.722 124.424C226.468 124.017 226.376 123.524 226.462 123.048C226.549 122.572 226.809 122.148 227.189 121.864L240.622 111.817C241.273 111.329 242.013 110.982 242.797 110.795C243.581 110.609 244.393 110.587 245.185 110.731C245.977 110.875 246.733 111.181 247.409 111.633C248.084 112.085 248.665 112.672 249.118 113.36C249.57 114.048 249.885 114.824 250.042 115.64C250.2 116.456 250.198 117.296 250.037 118.112C249.875 118.927 249.557 119.701 249.102 120.387C248.646 121.072 248.062 121.657 247.385 122.105L233.261 131.451C232.968 131.645 232.627 131.749 232.279 131.748Z" fill="#2F2E41"/>
<path d="M238.276 244.466L233.291 244.465L230.918 224.563L238.277 224.563L238.276 244.466Z" fill="#FFB8B8"/>
<path d="M229.729 242.991H239.345V249.256H223.675C223.675 248.434 223.831 247.619 224.136 246.859C224.44 246.098 224.886 245.408 225.448 244.826C226.01 244.244 226.678 243.783 227.412 243.468C228.147 243.153 228.934 242.991 229.729 242.991Z" fill="#2F2E41"/>
<path d="M261.553 240.608L256.752 242.003L249.27 223.505L256.355 221.446L261.553 240.608Z" fill="#FFB8B8"/>
<path d="M252.938 241.579L262.196 238.89L263.833 244.922L248.746 249.305C248.531 248.513 248.469 247.684 248.563 246.867C248.658 246.05 248.907 245.261 249.296 244.543C249.685 243.826 250.207 243.195 250.832 242.686C251.457 242.178 252.173 241.801 252.938 241.579Z" fill="#2F2E41"/>
<path d="M274.986 210.064L255.629 186.424L267.375 171.674C267.547 171.458 267.764 171.284 268.009 171.165C268.254 171.046 268.522 170.984 268.793 170.985C269.063 170.986 269.331 171.049 269.575 171.17C269.82 171.29 270.035 171.466 270.206 171.683L287.979 194.256L274.986 210.064Z" fill="white"/>
<path d="M256.41 186.6C256.696 186.068 257.049 185.579 257.462 185.146L268.673 173.384C269.113 172.92 269.704 172.645 270.331 172.614C271.612 172.551 273.713 172.685 274.298 174.139L259.162 186.955L256.41 186.6Z" fill="#F2F2F2"/>
<path d="M275.659 215.067C274.796 215.04 273.957 214.765 273.236 214.273L273.183 214.216L255.455 186.156L258.396 185.862L274.162 173.136C274.361 172.975 274.59 172.859 274.835 172.794C275.079 172.729 275.334 172.718 275.583 172.76C275.833 172.802 276.071 172.897 276.282 173.039C276.494 173.181 276.676 173.367 276.815 173.585L294.049 200.579C294.313 200.996 294.409 201.504 294.314 201.993C294.22 202.482 293.944 202.913 293.545 203.193L276.868 214.83C276.484 214.989 276.073 215.069 275.659 215.067Z" fill="white"/>
<path d="M269.389 195.873C269.222 195.873 269.058 195.831 268.911 195.75C268.763 195.669 268.638 195.552 268.544 195.409L266.508 192.278C266.358 192.046 266.302 191.763 266.354 191.489C266.406 191.215 266.56 190.973 266.783 190.817L277.232 183.538C277.456 183.383 277.73 183.325 277.994 183.379C278.259 183.432 278.492 183.592 278.643 183.823L280.68 186.954C280.83 187.185 280.885 187.469 280.834 187.743C280.782 188.017 280.627 188.258 280.404 188.415L269.956 195.694C269.788 195.811 269.591 195.873 269.389 195.873Z" fill="white"/>
<path d="M230.13 241.456C229.574 241.453 229.038 241.236 228.629 240.847C228.22 240.457 227.966 239.923 227.918 239.349C227.031 228.918 222.579 176.344 222.091 165.727C221.548 153.93 231.035 135.268 231.131 135.081L231.196 134.953L235.885 135.559V136.123L240.349 136.667L248.986 137.532L251.459 168.811L252.552 190.024L262.825 233.35C262.941 233.83 262.87 234.338 262.628 234.764C262.386 235.19 261.991 235.501 261.529 235.629L252.589 238.152C252.124 238.281 251.629 238.216 251.209 237.971C250.79 237.727 250.481 237.322 250.347 236.843L241.929 206.243C241.889 206.094 241.797 205.967 241.672 205.884C241.546 205.801 241.396 205.768 241.249 205.792C241.102 205.815 240.968 205.894 240.873 206.012C240.778 206.131 240.728 206.281 240.733 206.435L241.623 236.273C241.628 236.579 241.572 236.883 241.459 237.167C241.346 237.45 241.178 237.706 240.966 237.92C238.916 239.911 233.501 240.975 230.456 241.431C230.348 241.447 230.239 241.456 230.13 241.456Z" fill="#2F2E41"/>
<path d="M256.994 110.014C255.575 108.483 246.228 110.586 244.152 112.841L229.944 136.876L253.442 141.4L258.633 110.862L256.994 110.014Z" fill="white"/>
<path d="M250.835 171.077C250.329 171.078 249.826 170.991 249.347 170.821C247.982 170.336 246.309 169.829 244.374 169.314C235.902 167.06 232.91 159.841 235.483 147.858L235.548 147.554C237.965 136.187 242.519 125.424 248.951 115.878L249.948 114.396C251.151 112.609 252.834 111.227 254.79 110.422C256.745 109.618 258.886 109.425 260.947 109.869C264.759 110.683 266.806 111.862 267.031 113.375C267.472 116.342 258.956 152.209 255.275 167.492C255.028 168.517 254.457 169.427 253.652 170.077C252.847 170.726 251.855 171.079 250.835 171.077L250.835 171.077Z" fill="#2F2E41"/>
<path d="M221.647 166.473C221.425 166.473 221.205 166.437 220.994 166.367L218.247 165.458C217.964 165.364 217.702 165.21 217.479 165.005C217.256 164.8 217.077 164.55 216.953 164.269C216.829 163.989 216.762 163.684 216.758 163.376C216.755 163.067 216.813 162.762 216.93 162.478L231.502 127.081C234.294 120.328 239.176 114.728 245.379 111.16H245.379C245.469 111.109 245.569 111.077 245.671 111.067C245.773 111.057 245.876 111.069 245.974 111.103C246.063 111.132 246.146 111.181 246.217 111.245C246.287 111.31 246.343 111.389 246.382 111.478C248.096 115.379 238.768 133.845 231.273 148.681C227.435 156.278 224.121 162.84 223.743 164.711C223.643 165.209 223.379 165.656 222.997 165.977C222.615 166.298 222.138 166.473 221.647 166.473Z" fill="#2F2E41"/>
<path d="M266.73 174.539C267.242 174.143 267.664 173.636 267.966 173.054C268.268 172.472 268.444 171.828 268.479 171.168C268.515 170.508 268.41 169.848 268.173 169.234C267.936 168.621 267.571 168.068 267.105 167.616L266.989 125.199L257.619 126.826L260.684 168.03C260.002 168.891 259.649 169.98 259.691 171.092C259.733 172.204 260.169 173.262 260.914 174.064C261.659 174.866 262.663 175.357 263.735 175.445C264.807 175.532 265.873 175.21 266.73 174.539Z" fill="#FFB8B8"/>
<path d="M259.101 135.722C258.637 135.722 258.19 135.539 257.851 135.211C257.512 134.883 257.306 134.433 257.275 133.953L256.185 116.838C256.082 115.191 256.615 113.569 257.666 112.328C258.717 111.087 260.2 110.328 261.791 110.218C262.608 110.162 263.428 110.279 264.199 110.563C264.971 110.846 265.678 111.29 266.278 111.866C266.878 112.442 267.358 113.139 267.689 113.914C268.02 114.689 268.194 115.526 268.201 116.373L268.349 133.722C268.353 134.223 268.165 134.705 267.826 135.063C267.487 135.421 267.025 135.626 266.541 135.632L259.123 135.722L259.101 135.722Z" fill="#2F2E41"/>
<path d="M252.396 105.883C257.913 105.883 262.385 101.254 262.385 95.5454C262.385 89.8363 257.913 85.2083 252.396 85.2083C246.88 85.2083 242.408 89.8363 242.408 95.5454C242.408 101.254 246.88 105.883 252.396 105.883Z" fill="#FFB8B8"/>
<path d="M260.702 102.779C261.447 100.325 262.131 97.4321 260.657 95.3617C259.594 93.8699 257.687 93.2924 255.898 93.2098C254.109 93.1271 252.315 93.4409 250.53 93.294C248.745 93.1472 246.859 92.4181 245.952 90.8201C244.776 88.7481 245.772 85.8942 247.662 84.4987C249.552 83.1033 252.05 82.9085 254.35 83.2335C257.261 83.5912 259.998 84.8581 262.196 86.8656C264.335 88.9081 265.728 91.8522 265.666 94.863C265.604 97.8739 263.972 100.872 261.372 102.224" fill="#2F2E41"/>
<path d="M258.211 80.1912C255.82 79.4289 254.717 76.1572 255.787 73.8162C256.856 71.4752 259.589 70.2494 262.072 70.5755C264.554 70.9015 266.741 72.5495 268.25 74.6153C269.758 76.681 270.668 79.1435 271.427 81.611C272.185 84.0786 272.816 86.5995 273.852 88.9565C275.496 92.578 278.032 95.6879 281.205 97.9739C284.378 100.26 288.077 101.641 291.929 101.979C293.608 102.105 295.351 102.015 296.881 101.289C298.412 100.562 299.695 99.098 299.866 97.3647C300.737 103.522 297.276 110.065 291.795 112.624C286.314 115.182 279.284 113.536 275.4 108.785C271.606 104.142 271.018 97.5876 271.109 91.5074C271.134 89.8401 271.193 88.1412 270.748 86.5386C270.303 84.9359 269.25 83.4121 267.715 82.9031C266.477 82.4924 265.137 82.7884 263.867 83.0796C262.598 83.3707 261.25 83.651 260.021 83.2121C258.793 82.7732 257.803 81.3269 258.298 80.0829" fill="#2F2E41"/>
<path d="M297.729 250H190.364C190.256 250 190.152 249.956 190.076 249.877C190 249.798 189.957 249.691 189.957 249.579C189.957 249.468 190 249.361 190.076 249.282C190.152 249.203 190.256 249.158 190.364 249.158H297.729C297.837 249.158 297.941 249.203 298.017 249.282C298.093 249.361 298.136 249.468 298.136 249.579C298.136 249.691 298.093 249.798 298.017 249.877C297.941 249.956 297.837 250 297.729 250Z" fill="#CCCCCC"/>
</g>
<defs>
<clipPath id="clip0">
<rect width="300" height="250" fill="white"/>
</clipPath>
</defs>
</svg>
