<svg width="260" height="209" viewBox="0 0 260 209" fill="none" xmlns="http://www.w3.org/2000/svg">
<path d="M131.544 209C202.488 209 260 204.517 260 198.987C260 193.457 202.488 188.974 131.544 188.974C60.5996 188.974 3.08789 193.457 3.08789 198.987C3.08789 204.517 60.5996 209 131.544 209Z" fill="#3F3D56"/>
<path d="M240.66 180.386L241.864 189.195L233.437 189.996L234.641 179.185L240.66 180.386Z" fill="#A0616A"/>
<path d="M200.929 59.4612C200.929 59.4612 201.732 70.2723 201.732 70.6727C201.732 71.0732 196.113 98.7017 196.113 98.7017C196.113 98.7017 188.087 113.917 196.113 113.517C204.14 113.117 201.732 99.1021 201.732 99.1021L210.159 75.8781L206.548 59.4612L200.929 59.4612Z" fill="#A0616A"/>
<path d="M214.173 180.386L212.969 189.195L221.397 189.996L220.193 179.185L214.173 180.386Z" fill="#A0616A"/>
<path d="M204.942 97.901L202.935 100.704C202.935 100.704 201.732 112.716 202.935 116.72C204.139 120.725 206.547 139.143 206.547 140.345C206.547 141.546 206.949 142.347 206.547 142.747C206.146 143.148 204.942 143.148 205.745 143.948C206.547 144.749 206.547 147.152 206.547 147.152V149.154L211.765 178.784C211.765 178.784 208.554 182.388 210.962 182.388C213.37 182.388 222.199 182.388 221.798 178.384L220.995 177.984C220.995 177.984 219.791 151.556 220.192 150.355C220.594 149.154 220.192 146.751 220.192 146.751C220.192 146.751 219.39 145.55 220.192 145.15C220.995 144.749 220.995 141.546 220.995 141.546L224.607 117.121C224.607 117.121 227.817 133.538 229.824 135.139C231.831 136.741 231.429 140.745 231.429 140.745L233.035 175.981C233.035 175.981 231.429 179.986 233.035 180.786C234.64 181.587 241.462 184.39 241.864 180.386C242.265 176.382 244.272 141.546 244.272 139.944C244.272 138.343 243.87 137.542 244.272 136.341C244.673 135.139 243.87 135.139 244.272 135.139C244.673 135.139 243.469 133.938 243.469 133.137V113.517C243.469 113.517 243.87 109.513 244.272 108.712C244.673 107.911 243.87 107.11 244.272 105.909C244.673 104.708 243.469 100.704 243.469 100.704L225.41 95.8989L204.942 97.901Z" fill="#2F2E41"/>
<path d="M218.989 187.593C218.989 187.593 220.995 185.591 218.186 185.591C216.383 185.628 214.606 186.037 212.969 186.793L210.962 194C210.962 194 202.735 200.607 211.966 199.806C221.196 199.005 219.791 199.606 219.791 199.606C219.791 199.606 222.601 198.805 223.002 198.004C223.403 197.203 222.199 185.591 222.199 185.591C222.199 185.591 220.995 188.795 218.989 187.593Z" fill="#2F2E41"/>
<path d="M236.246 187.593C236.246 187.593 234.239 185.591 237.048 185.591C238.852 185.628 240.628 186.037 242.266 186.793L244.272 194C244.272 194 252.499 200.607 243.269 199.806C234.038 199.005 234.239 199.606 234.239 199.606C234.239 199.606 231.43 198.805 231.029 198.004C230.627 197.203 233.035 185.591 233.035 185.591C233.035 185.591 234.239 188.795 236.246 187.593Z" fill="#2F2E41"/>
<path d="M210.159 27.8288C215.922 27.8288 220.593 23.1677 220.593 17.4181C220.593 11.6684 215.922 7.00732 210.159 7.00732C204.396 7.00732 199.725 11.6684 199.725 17.4181C199.725 23.1677 204.396 27.8288 210.159 27.8288Z" fill="#A0616A"/>
<path d="M206.548 25.0258C206.548 25.0258 208.153 33.0341 208.153 34.2353C208.153 35.4366 214.976 39.0403 214.976 39.0403L222.601 29.4304C222.601 29.4304 217.785 22.6234 217.785 21.0217L206.548 25.0258Z" fill="#A0616A"/>
<path d="M212.568 35.4365C212.568 35.4365 209.07 34.5076 208.009 32.97C208.009 32.97 196.916 43.8451 196.916 45.8472L205.745 61.4633C205.745 61.4633 205.745 67.0691 206.548 67.4695C207.35 67.8699 206.548 67.4695 206.548 69.0711C206.548 70.6728 204.14 81.0835 204.942 82.6852C205.745 84.2868 206.548 83.0856 205.745 85.4881C204.942 87.8906 202.936 100.704 202.936 100.704C202.936 100.704 210.16 98.3013 220.594 102.305C231.028 106.31 243.469 100.704 243.469 100.704C243.469 100.704 240.259 93.4963 241.061 91.0939C241.864 88.6914 239.055 84.2868 239.055 84.2868L237.048 47.4489C237.048 47.4489 239.858 31.0319 237.851 30.2311L233.838 28.6294L220.986 27.0535C220.986 27.0535 217.785 35.0361 212.568 35.4365Z" fill="#D0CDE1"/>
<path d="M200.929 43.0442L196.916 45.8471C196.916 45.8471 194.91 51.8533 196.916 54.6562C198.923 57.4591 199.726 61.4632 199.726 61.4632L207.752 60.6624L200.929 43.0442Z" fill="#D0CDE1"/>
<path d="M202.194 6.41559L200.384 5.69262C200.384 5.69262 204.168 1.53558 209.433 1.89707L207.953 0.270381C207.953 0.270381 211.572 -1.17553 214.863 2.62001C216.593 4.61526 218.595 6.96055 219.843 9.6025H221.781L220.972 11.3798L223.803 13.1571L220.897 12.8378C221.172 14.3722 221.078 15.9499 220.622 17.4408L220.7 18.8456C220.7 18.8456 217.331 13.6452 217.331 12.9223V14.7297C217.331 14.7297 215.521 13.103 215.521 12.0186L214.534 13.2838L214.041 11.2956L207.953 13.2838L208.94 11.6571L205.155 12.1993L206.636 10.2112C206.636 10.2112 202.358 12.5608 202.194 14.549C202.029 16.5371 199.89 19.0675 199.89 19.0675L198.903 17.2601C198.903 17.2601 197.422 9.1267 202.194 6.41559Z" fill="#2F2E41"/>
<path d="M204.614 87.1372H45.1357V198.911H204.614V87.1372Z" fill="#F2F2F2"/>
<path d="M98.6036 129.784H58.5605V199.527H98.6036V129.784Z" fill="#3F3D56"/>
<path d="M76.7533 133.968H65.9668V144H76.7533V133.968Z" fill="#F2F2F2"/>
<path d="M91.1966 133.968H80.4102V144H91.1966V133.968Z" fill="#F2F2F2"/>
<path d="M76.7533 147.649H65.9668V158.046H76.7533V147.649Z" fill="#F2F2F2"/>
<path d="M91.1966 147.649H80.4102V158.046H91.1966V147.649Z" fill="#F2F2F2"/>
<path d="M93.5109 171.891C94.9171 171.891 96.057 170.754 96.057 169.351C96.057 167.948 94.9171 166.811 93.5109 166.811C92.1048 166.811 90.9648 167.948 90.9648 169.351C90.9648 170.754 92.1048 171.891 93.5109 171.891Z" fill="#6C63FF"/>
<path d="M191.189 123.164H112.028V189.443H191.189V123.164Z" fill="#3F3D56"/>
<path d="M221.278 108.18H28.4697L41.3252 81.3637L44.2022 75.3594L47.966 67.5074L50.843 61.5031L54.1782 54.5474H206.087L208.057 61.5031L209.758 67.5074L211.983 75.3594L213.684 81.3637L221.278 108.18Z" fill="#3F3D56"/>
<path d="M117.583 150.645H114.806V167.735H117.583V150.645Z" fill="#6C63FF"/>
<path d="M117.583 153.186H114.806V155.264H117.583V153.186Z" fill="#F2F2F2"/>
<path d="M117.583 163.116H114.806V165.194H117.583V163.116Z" fill="#F2F2F2"/>
<path d="M125.684 150.645H118.972V167.735H125.684V150.645Z" fill="#6C63FF"/>
<path d="M125.684 153.186H118.972V155.264H125.684V153.186Z" fill="#F2F2F2"/>
<path d="M125.684 163.116H118.972V165.194H125.684V163.116Z" fill="#F2F2F2"/>
<path d="M130.082 150.645H127.305V167.735H130.082V150.645Z" fill="#6C63FF"/>
<path d="M130.082 153.186H127.305V155.264H130.082V153.186Z" fill="#F2F2F2"/>
<path d="M130.082 163.116H127.305V165.194H130.082V163.116Z" fill="#F2F2F2"/>
<path d="M134.248 150.645H131.471V167.735H134.248V150.645Z" fill="#6C63FF"/>
<path d="M134.248 153.186H131.471V155.264H134.248V153.186Z" fill="#F2F2F2"/>
<path d="M134.248 163.116H131.471V165.194H134.248V163.116Z" fill="#F2F2F2"/>
<path d="M136.925 150.706L134.326 151.683L140.368 167.674L142.967 166.697L136.925 150.706Z" fill="#6C63FF"/>
<path d="M137.823 153.083L135.224 154.06L135.958 156.005L138.557 155.028L137.823 153.083Z" fill="#F2F2F2"/>
<path d="M141.333 162.375L138.734 163.352L139.469 165.297L142.068 164.32L141.333 162.375Z" fill="#F2F2F2"/>
<path d="M188.642 150.645H181.93V167.735H188.642V150.645Z" fill="#6C63FF"/>
<path d="M188.642 153.186H181.93V155.264H188.642V153.186Z" fill="#F2F2F2"/>
<path d="M188.642 163.116H181.93V165.194H188.642V163.116Z" fill="#F2F2F2"/>
<path d="M180.31 150.645H177.532V167.735H180.31V150.645Z" fill="#6C63FF"/>
<path d="M180.31 153.186H177.532V155.264H180.31V153.186Z" fill="#F2F2F2"/>
<path d="M180.31 163.116H177.532V165.194H180.31V163.116Z" fill="#F2F2F2"/>
<path d="M176.143 150.645H173.365V167.735H176.143V150.645Z" fill="#6C63FF"/>
<path d="M176.143 153.186H173.365V155.264H176.143V153.186Z" fill="#F2F2F2"/>
<path d="M176.143 163.116H173.365V165.194H176.143V163.116Z" fill="#F2F2F2"/>
<path d="M170.689 150.706L164.647 166.697L167.246 167.674L173.288 151.683L170.689 150.706Z" fill="#6C63FF"/>
<path d="M169.791 153.083L169.057 155.028L171.656 156.005L172.39 154.06L169.791 153.083Z" fill="#F2F2F2"/>
<path d="M166.281 162.375L165.546 164.32L168.145 165.297L168.88 163.352L166.281 162.375Z" fill="#F2F2F2"/>
<path d="M191.189 167.735H112.028V169.351H191.189V167.735Z" fill="#F2F2F2"/>
<path d="M161.099 150.645H146.517V167.735H161.099V150.645Z" fill="#6C63FF"/>
<path d="M157.51 154.34H150.104V157.574H157.51V154.34Z" fill="#F2F2F2"/>
<path d="M152.303 123.164H150.914V137.944H152.303V123.164Z" fill="#F2F2F2"/>
<path d="M151.609 140.253C152.887 140.253 153.923 139.219 153.923 137.944C153.923 136.668 152.887 135.634 151.609 135.634C150.33 135.634 149.294 136.668 149.294 137.944C149.294 139.219 150.33 140.253 151.609 140.253Z" fill="#F2F2F2"/>
<path d="M209.759 67.5075H47.9668L50.8438 61.5032H208.058L209.759 67.5075Z" fill="#6C63FF"/>
<path d="M213.684 81.3637H41.3252L44.2022 75.3594H211.983L213.684 81.3637Z" fill="#6C63FF"/>
<path d="M230.627 46.6479C230.627 46.6479 228.303 52.6104 228.789 58.5097C228.878 59.5659 229.234 60.5822 229.825 61.4632L201.353 74.9496C201.353 74.9496 188.489 76.2785 191.699 81.8843C194.91 87.4901 206.548 79.0814 206.548 79.0814C206.548 79.0814 237.049 74.6768 239.456 70.2723C241.864 65.8678 243.47 47.4488 243.47 47.4488L230.627 46.6479Z" fill="#A0616A"/>
<path d="M231.831 30.2312H237.851C237.851 30.2312 242.265 31.032 243.469 39.0403C244.673 47.0485 245.877 49.0506 244.673 49.0506C243.469 49.0506 229.021 48.6502 229.021 48.2498C229.021 47.8494 231.831 30.2312 231.831 30.2312Z" fill="#D0CDE1"/>
<path d="M30.8789 149.847C47.9328 149.847 61.7577 136.053 61.7577 119.038C61.7577 102.023 47.9328 88.2292 30.8789 88.2292C13.8249 88.2292 0 102.023 0 119.038C0 136.053 13.8249 149.847 30.8789 149.847Z" fill="#6C63FF"/>
<path opacity="0.1" d="M30.8791 145.534C45.5454 145.534 57.4349 133.671 57.4349 119.038C57.4349 104.405 45.5454 92.5425 30.8791 92.5425C16.2127 92.5425 4.32324 104.405 4.32324 119.038C4.32324 133.671 16.2127 145.534 30.8791 145.534Z" fill="black"/>
<path d="M29.6071 134.673V130.817C27.6533 130.779 25.6321 130.091 24.4531 129.137L25.2615 126.579C26.6626 127.626 28.3617 128.201 30.1124 128.22C32.5042 128.22 34.1212 126.655 34.1212 124.478C34.1212 122.378 32.8074 121.08 30.3146 119.935C26.8785 118.408 24.7563 116.651 24.7563 113.329C24.7563 110.16 26.7438 107.755 29.843 107.182V103.326H31.9315V107.029C33.4889 107.051 35.008 107.514 36.3109 108.366L35.4686 110.886C34.219 110.032 32.7383 109.579 31.2241 109.587C28.6303 109.587 27.6533 111.344 27.6533 112.871C27.6533 114.857 28.8997 115.849 31.8305 117.224C35.3002 118.828 37.052 120.813 37.052 124.211C37.052 127.227 35.1992 130.053 31.7294 130.702V134.673H29.6071Z" fill="#F2F2F2"/>
</svg>
