<svg width="294" height="159" viewBox="0 0 294 159" fill="none" xmlns="http://www.w3.org/2000/svg">
<g clip-path="url(#clip0)">
<path d="M159.539 84.11V84.4552C159.539 87.6264 158.277 90.6674 156.032 92.9094C153.786 95.1513 150.741 96.4106 147.566 96.4101H12.4252C9.25087 96.4098 6.20664 95.1501 3.96206 92.9082C1.71748 90.6663 0.456357 87.6258 0.456055 84.4552V84.11H159.539Z" fill="#F2F2F2"/>
<path d="M28.7206 27.2002C18.9545 29.6093 10.1875 22.1048 8.65674 15.1429L9.33668 15.0215C17.5681 13.2041 26.7568 19.081 28.7206 27.2002Z" fill="#6C63FF"/>
<path d="M264.786 156.132C261.961 154.914 261.319 150.476 263.683 148.509C266.048 146.543 270.302 147.976 270.99 150.971L268.355 132.146C267.749 127.818 267.265 122.98 269.883 119.479C272.336 116.201 277.126 115.15 280.972 116.562C284.818 117.973 287.66 121.493 288.866 125.404C290.072 129.315 289.787 133.565 288.734 137.52C287.681 141.475 285.892 145.189 284.083 148.861C282.229 152.623 279.981 156.701 276.018 158.085C272.232 159.408 264.786 156.132 264.786 156.132Z" fill="#F2F2F2"/>
<path d="M277.163 116.204C278.895 121.602 279.719 127.248 279.603 132.915C279.494 138.556 278.479 144.143 276.598 149.463C275.527 152.481 274.17 155.391 272.545 158.151C272.475 158.281 272.458 158.433 272.498 158.575C272.538 158.718 272.631 158.839 272.759 158.913C272.887 158.988 273.038 159.01 273.182 158.975C273.326 158.94 273.45 158.85 273.529 158.726C276.446 153.747 278.518 148.321 279.663 142.668C280.824 136.987 281.057 131.157 280.351 125.402C279.954 122.177 279.255 118.996 278.262 115.902C278.038 115.207 276.938 115.504 277.163 116.204Z" fill="white"/>
<path d="M263.111 149.202L272.13 158.669C272.637 159.2 273.441 158.395 272.936 157.864L263.917 148.397C263.41 147.865 262.605 148.671 263.111 149.202Z" fill="white"/>
<path d="M255.449 113.458C255.128 113.459 254.817 113.344 254.574 113.134C249.005 109.512 244.048 105.028 239.889 99.8514C239.634 99.6102 239.484 99.2792 239.471 98.929C239.458 98.5789 239.582 98.2375 239.818 97.9778L242.552 94.9624L243.115 95.4718L240.381 98.4872C240.277 98.6018 240.223 98.7528 240.231 98.9072C240.238 99.0615 240.307 99.2065 240.422 99.3103L240.462 99.3524C244.58 104.483 249.491 108.925 255.009 112.511L255.059 112.549C255.174 112.652 255.325 112.706 255.479 112.699C255.634 112.691 255.779 112.622 255.883 112.508L261.217 106.624C261.316 106.515 261.37 106.372 261.368 106.224C261.366 106.077 261.308 105.936 261.205 105.829C259.969 105.157 258.763 104.423 257.619 103.649L258.046 103.021C259.183 103.791 260.383 104.519 261.613 105.187L261.686 105.239C261.817 105.357 261.923 105.5 261.999 105.659C262.074 105.818 262.117 105.991 262.126 106.167C262.135 106.343 262.109 106.519 262.049 106.685C261.99 106.851 261.899 107.003 261.78 107.134L256.446 113.017C256.328 113.148 256.185 113.255 256.026 113.33C255.866 113.405 255.693 113.448 255.517 113.457C255.494 113.458 255.472 113.458 255.449 113.458Z" fill="#3F3D56"/>
<path d="M249.569 103.554C251.244 105.067 252.965 105.898 253.413 105.405C253.471 105.321 253.508 105.225 253.52 105.123C253.532 105.022 253.519 104.919 253.481 104.825C253.3 104.266 253.009 103.749 252.627 103.303C251.138 102.245 249.69 101.103 248.285 99.8772C247.844 99.7331 247.506 99.7369 247.343 99.919C247.32 99.945 247.3 99.9744 247.286 100.006C247.005 100.579 247.981 102.116 249.569 103.554Z" fill="#6C63FF"/>
<path d="M239.472 91.3559C239.486 91.7014 239.636 92.0272 239.89 92.2627C242.14 95.0403 244.614 97.6301 247.286 100.006C249.241 101.748 251.311 103.358 253.481 104.825C253.842 105.071 254.207 105.31 254.575 105.545C254.817 105.757 255.127 105.873 255.449 105.872C255.472 105.872 255.494 105.868 255.517 105.868C255.694 105.86 255.867 105.817 256.027 105.741C256.186 105.666 256.329 105.559 256.448 105.428L261.781 99.5471C262.02 99.283 262.144 98.9347 262.127 98.579C262.109 98.2233 261.95 97.8892 261.686 97.6501L261.614 97.597C255.791 94.4558 250.814 89.9563 247.107 84.4812L247.05 84.4129C246.786 84.1741 246.437 84.0499 246.081 84.0677C245.725 84.0855 245.39 84.2438 245.151 84.5078L239.818 90.3885C239.699 90.519 239.607 90.6717 239.548 90.8377C239.489 91.0037 239.463 91.1799 239.472 91.3559ZM240.232 91.318C240.228 91.2421 240.239 91.1662 240.264 91.0946C240.29 91.023 240.329 90.957 240.38 90.9006L245.713 85.0162C245.765 84.9591 245.827 84.9129 245.897 84.8803C245.967 84.8478 246.042 84.8294 246.119 84.8265C246.259 84.818 246.397 84.8613 246.507 84.9479C250.269 90.4909 255.309 95.0502 261.203 98.242C261.306 98.3477 261.365 98.4883 261.367 98.6355C261.37 98.7827 261.317 98.9254 261.219 99.0349L255.882 104.919C255.831 104.977 255.769 105.023 255.7 105.056C255.631 105.088 255.556 105.107 255.479 105.109C255.325 105.117 255.173 105.064 255.057 104.961L255.008 104.923C254.203 104.407 253.409 103.867 252.626 103.303C251.137 102.245 249.69 101.103 248.285 99.8772C245.446 97.4045 242.828 94.6905 240.46 91.7657L240.422 91.724C240.308 91.6186 240.239 91.4729 240.232 91.318V91.318Z" fill="#3F3D56"/>
<path d="M253.413 97.8185C253.859 97.3262 252.862 95.6983 251.186 94.1825C249.51 92.6667 247.79 91.837 247.343 92.3294C246.897 92.8217 247.894 94.4496 249.57 95.9654C251.246 97.4812 252.966 98.3109 253.413 97.8185Z" fill="#6C63FF"/>
<path d="M219.9 154.244L215.243 154.244L213.027 136.303L219.9 136.303L219.9 154.244Z" fill="#FFB8B8"/>
<path d="M221.087 158.753L206.071 158.753V158.563C206.071 157.796 206.222 157.037 206.516 156.329C206.81 155.621 207.24 154.977 207.783 154.435C208.326 153.893 208.97 153.463 209.679 153.17C210.388 152.877 211.148 152.726 211.916 152.726H211.916L221.087 152.726L221.087 158.753Z" fill="#2F2E41"/>
<path d="M233.574 154.244L228.918 154.244L226.702 136.303L233.575 136.303L233.574 154.244Z" fill="#FFB8B8"/>
<path d="M234.762 158.753L219.746 158.753V158.563C219.746 157.796 219.897 157.037 220.191 156.329C220.485 155.621 220.915 154.977 221.458 154.435C222.001 153.893 222.645 153.463 223.354 153.17C224.063 152.877 224.823 152.726 225.591 152.726H225.591L234.762 152.726L234.762 158.753Z" fill="#2F2E41"/>
<path d="M236.7 81.7385L235.588 147.638C235.585 147.846 235.538 148.052 235.451 148.242C235.365 148.432 235.24 148.602 235.084 148.741C234.929 148.881 234.746 148.987 234.548 149.052C234.349 149.118 234.139 149.142 233.931 149.123L228.482 148.629C228.124 148.596 227.79 148.438 227.538 148.183C227.286 147.928 227.132 147.592 227.105 147.235L223.914 106.129C223.907 106.032 223.863 105.942 223.791 105.877C223.719 105.812 223.625 105.777 223.528 105.779C223.431 105.78 223.338 105.819 223.269 105.887C223.2 105.955 223.16 106.047 223.156 106.144L221.561 148.191C221.546 148.583 221.38 148.954 221.097 149.226C220.814 149.499 220.436 149.651 220.043 149.651H214.199C213.812 149.651 213.439 149.503 213.158 149.239C212.876 148.974 212.706 148.612 212.682 148.226L208.591 81.3591L232.902 75.2887L236.7 81.7385Z" fill="#2F2E41"/>
<path d="M219.066 19.8599C224.219 19.8599 228.396 15.6879 228.396 10.5414C228.396 5.39502 224.219 1.22302 219.066 1.22302C213.914 1.22302 209.737 5.39502 209.737 10.5414C209.737 15.6879 213.914 19.8599 219.066 19.8599Z" fill="#FFB8B8"/>
<path d="M207.758 83.6987C207.596 83.5428 207.467 83.3564 207.378 83.1503C207.289 82.9441 207.242 82.7224 207.24 82.498L206.61 37.5611C206.573 35.2752 207.261 33.0361 208.577 31.1655C209.893 29.2949 211.769 27.889 213.935 27.1498C214.809 23.1891 219.461 22.693 222.173 22.7523C222.85 22.7668 223.513 22.9442 224.107 23.2693C224.7 23.5945 225.207 24.0578 225.583 24.62L227.527 27.5326L231.812 30.0413C233.795 31.1973 235.359 32.9526 236.279 35.054C237.198 37.1553 237.426 39.4941 236.929 41.733L236.269 44.73C233.946 55.3377 234.167 66.3438 236.914 76.85L238.241 81.9051C238.31 82.1684 238.316 82.4444 238.256 82.71C238.197 82.9757 238.075 83.2233 237.9 83.4323C237.726 83.6412 237.503 83.8055 237.252 83.9112C237.001 84.017 236.728 84.0613 236.457 84.0404L234.915 83.9218C234.515 83.8915 234.138 83.7214 233.851 83.4412C233.564 83.161 233.385 82.7887 233.345 82.3898L233.09 79.8414C233.085 79.7946 233.064 79.7512 233.029 79.7197C232.994 79.6881 232.948 79.6706 232.901 79.6706C232.854 79.6706 232.809 79.6881 232.774 79.7197C232.739 79.7512 232.717 79.7946 232.712 79.8414L232.465 82.3086C232.424 82.7254 232.23 83.1124 231.921 83.3958C231.612 83.6793 231.21 83.8395 230.791 83.8459L208.975 84.1812C208.966 84.1812 208.957 84.1815 208.948 84.1815C208.503 84.1824 208.076 84.0091 207.758 83.6987Z" fill="#3F3D56"/>
<path d="M219.796 15.9128C219.835 17.2301 220.75 17.9922 221.874 18.6821C222.999 19.3721 224.313 19.6713 225.6 19.9598C225.773 20.0516 225.967 20.0972 226.162 20.0924C226.358 20.0876 226.549 20.0325 226.717 19.9325C226.886 19.8324 227.025 19.6907 227.123 19.5211C227.22 19.3514 227.272 19.1596 227.273 18.9641L228.454 14.4784C228.872 13.0454 229.176 11.5819 229.363 10.1012C229.648 7.25228 228.972 4.18753 226.981 2.12767C224.99 0.0678074 221.537 -0.663925 219.151 0.923164C216.32 -2.68863 203.378 5.29118 206.571 7.80272C207.139 8.24953 208.007 7.68416 208.728 7.62936C209.449 7.57456 210.256 7.70121 210.714 8.26C211.313 8.99004 211.052 10.0775 211.299 10.9882C211.401 11.3086 211.565 11.6057 211.783 11.8624C212 12.119 212.266 12.3301 212.566 12.4835C212.865 12.6368 213.192 12.7294 213.528 12.756C213.864 12.7825 214.201 12.7424 214.521 12.638C215.117 12.3446 215.678 11.9846 216.192 11.5648C216.745 11.1969 217.444 10.9251 218.067 11.1571C218.887 11.463 219.178 12.4662 219.253 13.3378C219.378 14.207 219.559 15.0672 219.796 15.9128Z" fill="#2F2E41"/>
<path opacity="0.2" d="M217.617 40.8871L216.098 59.4776L208.121 78.827L219.897 59.857L217.617 40.8871Z" fill="black"/>
<path d="M206.256 86.0325C206.691 85.6833 207.045 85.243 207.291 84.7426C207.538 84.2422 207.672 83.6939 207.683 83.1362C207.695 82.5786 207.584 82.0252 207.358 81.5151C207.132 81.005 206.797 80.5505 206.377 80.1837L211.458 67.6119L204.544 69.0065L200.778 80.7311C200.208 81.4777 199.932 82.4074 200.002 83.3438C200.073 84.2802 200.484 85.1583 201.16 85.8118C201.835 86.4653 202.726 86.8487 203.666 86.8894C204.605 86.93 205.527 86.6252 206.256 86.0325V86.0325Z" fill="#FFB8B8"/>
<path d="M205.886 80.4879L201.972 79.0791C201.569 78.9317 201.236 78.639 201.038 78.2584C200.84 77.8778 200.792 77.4371 200.903 77.0229L207.359 53.4169L208.344 32.0824C208.373 31.4384 208.531 30.8068 208.807 30.2242C209.083 29.6416 209.473 29.1197 209.953 28.6888C210.433 28.2578 210.994 27.9265 211.603 27.7141C212.213 27.5017 212.858 27.4124 213.503 27.4514C214.147 27.4904 214.777 27.657 215.356 27.9414C215.935 28.2258 216.452 28.6223 216.876 29.108C217.301 29.5937 217.624 30.1588 217.828 30.7704C218.032 31.3821 218.112 32.0281 218.063 32.671L216.305 56.0318L208.079 79.4476C207.954 79.8014 207.716 80.1044 207.402 80.31C207.088 80.5157 206.715 80.6125 206.34 80.5856C206.185 80.5737 206.032 80.5409 205.886 80.4879Z" fill="#3F3D56"/>
<path d="M246.221 87.2655C246.488 86.7757 246.644 86.2334 246.679 85.6767C246.713 85.12 246.625 84.5626 246.421 84.0435C246.216 83.5245 245.901 83.0566 245.495 82.6728C245.09 82.2889 244.606 81.9984 244.076 81.8218L243.916 68.265L238.074 72.2127L239.121 84.4812C238.883 85.3897 238.987 86.3537 239.413 87.1908C239.839 88.0279 240.558 88.6798 241.433 89.023C242.308 89.3663 243.279 89.3769 244.161 89.053C245.044 88.7291 245.777 88.0931 246.221 87.2656L246.221 87.2655Z" fill="#FFB8B8"/>
<path d="M243.741 82.2914L239.585 82.4975C239.157 82.5166 238.736 82.3748 238.407 82.0997C238.077 81.8247 237.863 81.4365 237.806 81.0115L234.658 56.7434L227.336 36.6771C227.115 36.0715 227.017 35.428 227.047 34.7841C227.078 34.1401 227.236 33.5086 227.512 32.9263C227.789 32.3439 228.179 31.8223 228.659 31.3918C229.14 30.9613 229.701 30.6305 230.311 30.4186C230.92 30.2067 231.566 30.1179 232.21 30.1575C232.854 30.197 233.484 30.3641 234.063 30.6489C234.642 30.9337 235.158 31.3307 235.582 31.8167C236.006 32.3027 236.329 32.8681 236.533 33.4799L243.922 55.7138L245.363 80.4877C245.384 80.8621 245.282 81.2332 245.071 81.5438C244.86 81.8544 244.554 82.0873 244.198 82.2067C244.05 82.2555 243.896 82.284 243.741 82.2914Z" fill="#3F3D56"/>
<path d="M293.62 158.946H148.895C148.795 158.946 148.698 158.906 148.627 158.835C148.556 158.764 148.516 158.667 148.516 158.566C148.516 158.466 148.556 158.369 148.627 158.298C148.698 158.227 148.795 158.187 148.895 158.187H293.62C293.721 158.187 293.818 158.227 293.889 158.298C293.96 158.369 294 158.466 294 158.566C294 158.667 293.96 158.764 293.889 158.835C293.818 158.906 293.721 158.946 293.62 158.946Z" fill="#3F3D56"/>
<path d="M122.776 77.0342C120.594 77.0342 118.859 76.3862 117.619 75.108C114.815 72.2188 114.99 66.6499 115.132 62.1751C115.173 60.8733 115.211 59.6436 115.172 58.6136L115.172 58.598C115.182 56.5856 115.986 54.6583 117.411 53.2349C118.835 51.8115 120.764 51.0069 122.779 50.996H140.866C143.045 50.996 144.778 51.6431 146.018 52.9196C148.822 55.8064 148.648 61.374 148.509 65.8477C148.468 67.1523 148.43 68.3846 148.47 69.4164C148.463 71.4319 147.659 73.363 146.234 74.7896C144.808 76.2163 142.877 77.023 140.859 77.0342H122.776ZM115.932 58.5926C115.971 59.6473 115.932 60.8868 115.891 62.199C115.754 66.5306 115.584 71.9214 118.164 74.5798C119.272 75.7208 120.78 76.2754 122.776 76.2754H140.858C142.672 76.2658 144.41 75.5415 145.693 74.2598C146.976 72.978 147.701 71.2424 147.71 69.4299C147.669 68.3874 147.708 67.1423 147.75 65.824C147.885 61.4935 148.053 56.1039 145.473 53.448C144.366 52.3087 142.859 51.7547 140.866 51.7547H122.78C120.968 51.7649 119.232 52.4885 117.95 53.7686C116.668 55.0486 115.943 56.782 115.932 58.5926Z" fill="#3F3D56"/>
<path d="M24.725 27.8983C21.5534 27.8791 18.451 26.9715 15.7703 25.2787C11.843 22.8413 8.87773 18.9376 8.03159 15.0916L7.94678 14.7061L9.00807 14.5164C17.3623 12.6748 26.8114 18.6094 28.8357 26.9745L28.9244 27.3413L28.5577 27.4319C27.3037 27.7418 26.0167 27.8985 24.725 27.8983ZM8.86549 15.3128C9.77706 18.8409 12.5436 22.3826 16.1712 24.6342C19.6787 26.8762 23.9291 27.648 28.0022 26.7826C25.8843 18.9891 17.0158 13.5203 9.16469 15.2591L8.86549 15.3128Z" fill="#3F3D56"/>
<path d="M14.1867 71.014C11.7014 71.014 9.68236 69.9032 8.49697 67.8769C7.83257 66.6981 7.48333 65.3682 7.48291 64.0154C7.48249 62.6626 7.83089 61.3325 8.49456 60.1532C9.6989 58.0922 11.7661 56.9742 14.3192 57.0133H38.4186C40.963 56.9809 43.0317 58.0939 44.2368 60.1573C44.9006 61.3362 45.2491 62.6661 45.249 64.0187C45.2489 65.3713 44.9001 66.701 44.2361 67.8799C43.0316 69.9385 40.9634 71.0379 38.4129 71.0131H14.313C14.2708 71.0137 14.2286 71.014 14.1867 71.014ZM14.2008 57.7712C11.9844 57.7712 10.1941 58.7501 9.15068 60.5357C8.5528 61.5981 8.23894 62.7964 8.23933 64.0152C8.23973 65.2339 8.55438 66.432 9.15297 67.494C10.214 69.308 12.041 70.2899 14.3073 70.2543H38.4186C40.6873 70.2904 42.5199 69.309 43.5802 67.497C44.1783 66.4349 44.4925 65.2369 44.4926 64.0184C44.4927 62.7998 44.1786 61.6018 43.5806 60.5396C42.5197 58.723 40.6866 57.7449 38.424 57.7721H14.3112C14.2744 57.7716 14.2374 57.7712 14.2008 57.7712H14.2008Z" fill="#3F3D56"/>
<path d="M128.961 60.0181H121.364C120.86 60.0181 120.377 59.8183 120.021 59.4625C119.664 59.1067 119.464 58.6242 119.464 58.1211C119.464 57.618 119.664 57.1355 120.021 56.7797C120.377 56.424 120.86 56.2241 121.364 56.2241H128.961C129.464 56.2241 129.948 56.424 130.304 56.7797C130.66 57.1355 130.86 57.618 130.86 58.1211C130.86 58.6242 130.66 59.1067 130.304 59.4625C129.948 59.8183 129.464 60.0181 128.961 60.0181Z" fill="#6C63FF"/>
<path d="M128.961 66.0885H121.364C120.86 66.0885 120.377 65.8887 120.021 65.5329C119.664 65.1772 119.464 64.6947 119.464 64.1916C119.464 63.6884 119.664 63.2059 120.021 62.8502C120.377 62.4944 120.86 62.2946 121.364 62.2946H128.961C129.464 62.2946 129.948 62.4944 130.304 62.8502C130.66 63.2059 130.86 63.6884 130.86 64.1916C130.86 64.6947 130.66 65.1772 130.304 65.5329C129.948 65.8887 129.464 66.0885 128.961 66.0885Z" fill="#6C63FF"/>
<path d="M128.961 72.1589H121.364C120.86 72.1589 120.377 71.959 120.021 71.6032C119.664 71.2475 119.464 70.765 119.464 70.2619C119.464 69.7587 119.664 69.2762 120.021 68.9205C120.377 68.5647 120.86 68.3649 121.364 68.3649H128.961C129.464 68.3649 129.948 68.5647 130.304 68.9205C130.66 69.2762 130.86 69.7587 130.86 70.2619C130.86 70.765 130.66 71.2475 130.304 71.6032C129.948 71.959 129.464 72.1589 128.961 72.1589Z" fill="#6C63FF"/>
<path d="M142.256 60.0181H134.659C134.155 60.0181 133.672 59.8183 133.316 59.4625C132.959 59.1067 132.759 58.6242 132.759 58.1211C132.759 57.618 132.959 57.1355 133.316 56.7797C133.672 56.424 134.155 56.2241 134.659 56.2241H142.256C142.759 56.2241 143.242 56.424 143.599 56.7797C143.955 57.1355 144.155 57.618 144.155 58.1211C144.155 58.6242 143.955 59.1067 143.599 59.4625C143.242 59.8183 142.759 60.0181 142.256 60.0181Z" fill="#6C63FF"/>
<path d="M142.256 66.0885H134.659C134.155 66.0885 133.672 65.8887 133.316 65.5329C132.959 65.1772 132.759 64.6947 132.759 64.1916C132.759 63.6884 132.959 63.2059 133.316 62.8502C133.672 62.4944 134.155 62.2946 134.659 62.2946H142.256C142.759 62.2946 143.242 62.4944 143.599 62.8502C143.955 63.2059 144.155 63.6884 144.155 64.1916C144.155 64.6947 143.955 65.1772 143.599 65.5329C143.242 65.8887 142.759 66.0885 142.256 66.0885Z" fill="#6C63FF"/>
<path d="M142.256 72.1589H134.659C134.155 72.1589 133.672 71.959 133.316 71.6032C132.959 71.2475 132.759 70.765 132.759 70.2619C132.759 69.7587 132.959 69.2762 133.316 68.9205C133.672 68.5647 134.155 68.3649 134.659 68.3649H142.256C142.759 68.3649 143.242 68.5647 143.599 68.9205C143.955 69.2762 144.155 69.7587 144.155 70.2619C144.155 70.765 143.955 71.2475 143.599 71.6032C143.242 71.959 142.759 72.1589 142.256 72.1589Z" fill="#6C63FF"/>
<path d="M159.539 33.0583H0.456055V33.8171H159.539V33.0583Z" fill="#3F3D56"/>
<path d="M147.004 96.6301H12.5352C9.21182 96.6264 6.02562 95.3061 3.67563 92.9589C1.32563 90.6117 0.0037541 87.4294 0 84.11V18.8534C0.0037541 15.534 1.32563 12.3516 3.67563 10.0045C6.02562 7.65729 9.21182 6.337 12.5352 6.33325H147.004C150.327 6.337 153.513 7.65729 155.863 10.0045C158.213 12.3516 159.535 15.534 159.539 18.8534V84.11C159.535 87.4294 158.213 90.6117 155.863 92.9589C153.513 95.3061 150.327 96.6264 147.004 96.6301ZM12.5352 7.09205C9.41325 7.09559 6.42016 8.33588 4.21259 10.5408C2.00502 12.7457 0.763257 15.7352 0.75971 18.8534V84.11C0.763258 87.2282 2.00503 90.2177 4.2126 92.4226C6.42016 94.6275 9.41325 95.8678 12.5352 95.8713H147.004C150.126 95.8678 153.119 94.6275 155.327 92.4226C157.534 90.2177 158.776 87.2282 158.779 84.11V18.8534C158.776 15.7352 157.534 12.7457 155.327 10.5408C153.119 8.33586 150.126 7.09558 147.004 7.09205H12.5352Z" fill="#3F3D56"/>
</g>
<defs>
<clipPath id="clip0">
<rect width="294" height="159" fill="white"/>
</clipPath>
</defs>
</svg>
