<svg width="251" height="180" viewBox="0 0 251 180" fill="none" xmlns="http://www.w3.org/2000/svg">
<path d="M106.597 84.0738H5.15039C3.78489 84.0723 2.47577 83.5305 1.51022 82.5673C0.544666 81.6041 0.00154246 80.2982 0 78.936V5.13785C0.00154329 3.77568 0.544667 2.46974 1.51022 1.50654C2.47577 0.54334 3.78489 0.00153953 5.15039 0H106.597C107.963 0.0015387 109.272 0.54334 110.238 1.50654C111.203 2.46974 111.746 3.77568 111.748 5.13785V78.936C111.746 80.2982 111.203 81.6041 110.238 82.5673C109.272 83.5305 107.963 84.0723 106.597 84.0738Z" fill="#E6E6E6"/>
<path d="M99.4588 83.9181H98.7627L88.0125 62.3142L87.7003 61.6915L79.75 45.7112L66.2778 18.6363L65.9688 18.0135L57.082 0.15564H57.7812L66.6649 18.0135L66.977 18.6363L80.1058 45.023L80.4149 45.6458L88.3621 61.6136L99.4588 83.9181Z" fill="black"/>
<path d="M111.592 18.015H0.15625V18.6378H111.592V18.015Z" fill="black"/>
<path d="M111.592 45.0245H79.8838V45.6473H111.592V45.0245Z" fill="black"/>
<path d="M30.4387 0.155762H29.8145V84.2296H30.4387V0.155762Z" fill="black"/>
<path d="M88.2052 61.6907H30.127V62.3134H88.2052V61.6907Z" fill="black"/>
<path d="M66.4867 33.0068C66.4867 38.3146 58.6618 53.2823 55.723 58.7167C55.6162 58.9144 55.4578 59.0797 55.2645 59.1949C55.0713 59.31 54.8503 59.3708 54.6252 59.3708C54.4 59.3708 54.1791 59.31 53.9858 59.1949C53.7925 59.0797 53.6341 58.9144 53.5274 58.7167C50.5885 53.2823 42.7637 38.3146 42.7637 33.0068C42.7637 29.8686 44.0134 26.8589 46.2378 24.6399C48.4623 22.4208 51.4793 21.1742 54.6252 21.1742C57.771 21.1742 60.7881 22.4208 63.0125 24.6399C65.237 26.8589 66.4867 29.8686 66.4867 33.0068Z" fill="#6C63FF"/>
<path d="M54.6258 38.3003C57.5565 38.3003 59.9323 35.9303 59.9323 33.0068C59.9323 30.0833 57.5565 27.7133 54.6258 27.7133C51.6951 27.7133 49.3193 30.0833 49.3193 33.0068C49.3193 35.9303 51.6951 38.3003 54.6258 38.3003Z" fill="#E6E6E6"/>
<path d="M54.6254 64.4567C55.8322 64.4567 56.8105 63.4808 56.8105 62.277C56.8105 61.0732 55.8322 60.0973 54.6254 60.0973C53.4187 60.0973 52.4404 61.0732 52.4404 62.277C52.4404 63.4808 53.4187 64.4567 54.6254 64.4567Z" fill="#6C63FF"/>
<path d="M54.7097 94.9287C52.3182 94.9284 49.9803 95.6356 47.9917 96.9608C46.0032 98.286 44.4532 100.17 43.5379 102.374C42.6225 104.578 42.383 107.003 42.8494 109.343C43.3159 111.683 44.4675 113.832 46.1585 115.519C47.8496 117.206 50.0041 118.355 52.3497 118.82C54.6952 119.285 57.1264 119.046 59.3358 118.133C61.5452 117.22 63.4336 115.674 64.762 113.69C66.0905 111.706 66.7994 109.374 66.799 106.989C66.7953 103.791 65.5204 100.726 63.2541 98.4651C60.9877 96.2042 57.9148 94.9324 54.7097 94.9287ZM54.7097 118.385C52.4504 118.386 50.2418 117.718 48.3632 116.466C46.4845 115.214 45.0201 113.434 44.1553 111.352C43.2904 109.27 43.0639 106.979 43.5043 104.769C43.9448 102.558 45.0324 100.528 46.6297 98.9337C48.227 97.3399 50.2622 96.2543 52.478 95.8143C54.6938 95.3743 56.9906 95.5997 59.078 96.4619C61.1654 97.3241 62.9496 98.7844 64.205 100.658C65.4605 102.532 66.1307 104.735 66.131 106.989C66.1275 110.01 64.9231 112.906 62.782 115.042C60.641 117.179 57.738 118.381 54.7097 118.385V118.385Z" fill="#E6E6E6"/>
<path d="M60.6587 101.206C60.3291 100.955 59.9128 100.844 59.5013 100.898C59.0898 100.952 58.7168 101.167 58.4642 101.496L53.0704 108.511L50.7886 106.768C50.6255 106.642 50.4392 106.55 50.2404 106.497C50.0415 106.443 49.8341 106.429 49.6299 106.456C49.4257 106.482 49.2287 106.549 49.0504 106.652C48.872 106.754 48.7157 106.891 48.5904 107.054C48.4652 107.217 48.3734 107.403 48.3204 107.602C48.2673 107.8 48.2541 108.007 48.2814 108.211C48.3087 108.415 48.3761 108.611 48.4795 108.789C48.583 108.966 48.7206 109.122 48.8845 109.246L52.4086 111.937L52.4243 111.949C52.6943 112.151 53.023 112.261 53.3607 112.26C53.6013 112.26 53.8387 112.206 54.0546 112.1C54.2705 111.994 54.4592 111.84 54.6061 111.65L60.9488 103.395C61.2012 103.067 61.3123 102.651 61.2579 102.241C61.2035 101.83 60.988 101.458 60.6587 101.206Z" fill="#6C63FF"/>
<path d="M171.914 131.211L168.902 124.087L166.317 117.974L164.204 112.974C163.827 112.086 163.113 111.383 162.218 111.02C161.322 110.657 160.319 110.663 159.428 111.037L130.699 123.128C129.811 123.506 129.109 124.218 128.745 125.11C128.382 126.001 128.386 127 128.757 127.889L136.47 146.127C136.656 146.566 136.927 146.966 137.267 147.301C137.608 147.636 138.011 147.902 138.454 148.081C138.897 148.261 139.372 148.352 139.85 148.349C140.329 148.346 140.802 148.249 141.243 148.063L169.973 135.976C170.863 135.6 171.567 134.887 171.931 133.994C172.295 133.101 172.289 132.1 171.914 131.211ZM169.657 135.231L140.931 147.319C140.238 147.611 139.458 147.616 138.761 147.334C138.065 147.052 137.509 146.506 137.216 145.815L129.503 127.577C129.262 127.007 129.217 126.373 129.375 125.775C129.442 125.507 129.549 125.25 129.693 125.015C130.002 124.504 130.464 124.104 131.014 123.872L159.743 111.784C160.328 111.537 160.979 111.495 161.591 111.663C161.858 111.734 162.111 111.845 162.344 111.993C162.84 112.299 163.229 112.751 163.455 113.288L165.665 118.516V118.519L168.059 124.177L171.168 131.526C171.46 132.217 171.465 132.996 171.182 133.691C170.898 134.385 170.35 134.94 169.657 135.231L169.657 135.231Z" fill="#CCCCCC"/>
<path d="M150.112 129.451C149.345 129.776 148.496 129.857 147.681 129.685L129.014 125.697L129.183 124.907L147.851 128.895C148.495 129.03 149.165 128.968 149.773 128.718C150.382 128.467 150.901 128.04 151.262 127.491L161.87 111.237L162.549 111.678L151.941 127.932C151.497 128.609 150.86 129.138 150.112 129.451Z" fill="#CCCCCC"/>
<path d="M150.07 134.291C152.754 134.291 154.93 132.121 154.93 129.444C154.93 126.767 152.754 124.596 150.07 124.596C147.387 124.596 145.211 126.767 145.211 129.444C145.211 132.121 147.387 134.291 150.07 134.291Z" fill="#6C63FF"/>
<path d="M203.606 82.1495C203.606 82.1495 197.284 78.1664 191.295 82.8134L187.302 124.305C187.302 124.305 202.275 135.922 205.935 124.968L203.606 82.1495Z" fill="#6C63FF"/>
<path d="M205.149 176.455H208.976L210.25 161.784L205.148 161.73L205.149 176.455Z" fill="#FFB8B8"/>
<path d="M216.356 179.999L204.329 180L204.329 175.364L211.709 175.364C212.942 175.364 214.124 175.852 214.995 176.722C215.867 177.591 216.356 178.77 216.356 179.999Z" fill="#2F2E41"/>
<path d="M191.318 176.455H187.491L185.67 161.73H191.318L191.318 176.455Z" fill="#FFB8B8"/>
<path d="M184.757 175.364H192.137V180H180.11C180.11 178.77 180.6 177.591 181.471 176.722C182.343 175.853 183.525 175.364 184.757 175.364Z" fill="#2F2E41"/>
<path d="M213.422 124.47L210.094 173.928L204.937 173.762L198.116 134.096L191.794 173.264L185.804 173.596L184.141 122.479C184.141 122.479 209.429 116.836 213.422 124.47Z" fill="#2F2E41"/>
<path d="M197.72 77.951C201.954 77.951 205.387 74.5269 205.387 70.3031C205.387 66.0792 201.954 62.6552 197.72 62.6552C193.486 62.6552 190.054 66.0792 190.054 70.3031C190.054 74.5269 193.486 77.951 197.72 77.951Z" fill="#FFB8B8"/>
<path d="M202.441 80.6558L204.438 81.9835C204.438 81.9835 212.756 81.9835 213.422 86.9624C214.087 91.9414 215.917 125.964 213.921 125.964C211.924 125.964 211.592 123.309 211.592 123.309C211.592 123.309 210.261 123.641 207.599 126.296C204.937 128.951 203.273 128.951 202.275 124.968C201.277 120.985 194.622 90.4477 200.944 84.8049L202.441 80.6558Z" fill="#2F2E41"/>
<path d="M192.792 80.6558L190.795 81.9835C190.795 81.9835 182.477 81.9835 181.811 86.9624C181.146 91.9414 179.316 125.964 181.312 125.964C183.308 125.964 183.641 123.309 183.641 123.309C183.641 123.309 184.972 123.641 187.634 126.296C190.296 128.951 191.96 128.951 192.958 124.968C193.956 120.985 200.611 90.4477 194.289 84.8049L192.792 80.6558Z" fill="#2F2E41"/>
<path d="M203.942 74.9663C204.511 74.3672 204.89 73.6125 205.028 72.7983C205.167 71.984 205.06 71.147 204.72 70.3938C204.381 69.6405 203.824 69.005 203.122 68.5681C202.419 68.1312 201.602 67.9126 200.775 67.9402C199.715 67.9756 198.716 68.4084 197.704 68.726C196.171 69.2463 194.535 69.3933 192.933 69.1546C191.321 68.905 189.867 68.0484 188.87 66.7614C187.921 65.4609 187.626 63.657 188.296 62.1942C189.069 60.5055 190.876 59.5749 192.576 58.8189C193.262 58.4765 193.994 58.2365 194.75 58.1065C195.128 58.0438 195.515 58.0598 195.887 58.1533C196.259 58.2469 196.608 58.416 196.912 58.6502C197.389 59.0601 197.669 59.6762 198.189 60.0314C198.774 60.4312 199.534 60.4207 200.24 60.4912C201.83 60.65 203.333 61.2877 204.551 62.3197C205.768 63.3517 206.642 64.729 207.056 66.2684C207.469 67.8078 207.403 69.4363 206.867 70.9374C206.33 72.4385 205.348 73.741 204.051 74.6717L203.942 74.9663Z" fill="#2F2E41"/>
<path d="M164.83 121.506C164.726 121.028 164.729 120.533 164.837 120.056C164.946 119.579 165.158 119.132 165.459 118.746C165.76 118.36 166.141 118.044 166.578 117.821C167.014 117.598 167.494 117.473 167.984 117.455L173.078 110.298L176.361 113.634L171.499 120.914C171.475 121.737 171.149 122.523 170.583 123.122C170.017 123.721 169.25 124.092 168.428 124.165C167.606 124.238 166.786 124.008 166.123 123.518C165.459 123.028 164.999 122.312 164.83 121.506Z" fill="#FFB8B8"/>
<path d="M209.978 128.039C209.619 127.706 209.338 127.298 209.155 126.845C208.971 126.391 208.89 125.903 208.916 125.415C208.942 124.926 209.075 124.45 209.306 124.018C209.537 123.587 209.859 123.211 210.251 122.917L210.342 114.14L214.946 115.012L215.117 123.757C215.568 124.447 215.749 125.278 215.627 126.092C215.505 126.906 215.087 127.648 214.454 128.175C213.82 128.703 213.015 128.981 212.19 128.956C211.365 128.931 210.578 128.605 209.978 128.039Z" fill="#FFB8B8"/>
<path d="M184.286 107.309L182.976 86.4646L182.605 85.0081C182.605 85.0081 169.36 101.998 169.329 114.78C169.329 114.78 175.818 117.933 176.816 115.609C177.208 114.697 178.547 113.344 184.286 107.309Z" fill="#2F2E41"/>
<path d="M212.258 86.4645L213.455 87.2212C213.455 87.2212 217.743 106.046 216.583 118.662C216.583 118.662 209.762 121.815 208.764 119.491C207.766 117.168 212.258 86.4645 212.258 86.4645Z" fill="#2F2E41"/>
<path d="M250.687 179.98H131.76C131.678 179.98 131.598 179.948 131.54 179.889C131.481 179.831 131.448 179.752 131.448 179.669C131.448 179.586 131.481 179.507 131.54 179.449C131.598 179.39 131.678 179.358 131.76 179.358H250.687C250.77 179.358 250.85 179.39 250.908 179.449C250.967 179.507 251 179.586 251 179.669C251 179.752 250.967 179.831 250.908 179.889C250.85 179.948 250.77 179.98 250.687 179.98Z" fill="#3F3D56"/>
</svg>
